<mxfile host="Electron" agent="Mozilla/5.0 (Macintosh; Intel Mac OS X 10_15_7) AppleWebKit/537.36 (KHTML, like Gecko) draw.io/26.0.4 Chrome/128.0.6613.186 Electron/32.2.5 Safari/537.36" version="26.0.4" pages="2">
  <diagram name="Pagina-1" id="UOQ4mnaoWQCaY0x1Cth6">
    <mxGraphModel dx="2420" dy="2705" grid="1" gridSize="10" guides="1" tooltips="1" connect="1" arrows="1" fold="1" page="1" pageScale="1" pageWidth="827" pageHeight="1169" math="0" shadow="0">
      <root>
        <mxCell id="0" />
        <mxCell id="1" parent="0" />
        <mxCell id="C2CYXAZEnYBO-IzJzkXt-1" value="" style="shape=image;verticalLabelPosition=bottom;labelBackgroundColor=default;verticalAlign=top;aspect=fixed;imageAspect=0;image=data:image/png,iVBORw0KGgoAAAANSUhEUgAAApYAAAKcCAYAAABSafpsAAAMTGlDQ1BJQ0MgUHJvZmlsZQAASImVVwdYU8kWnltSIQQIREBK6E0QqQGkhNACSC+CqIQkQCgxJgQVO7qo4NpFBCu6CuKiqysgiw27sij2vlhQUdbFgl15EwLosq98b75v7vz3nzP/nHPuzL13AKB38KXSXFQTgDxJviw2JIA1PjmFReoCKNABDOACrPkCuZQTHR0BYBls/17eXgOIsr3soNT6Z/9/LVpCkVwAABINcbpQLsiD+FcA8GaBVJYPAFEKefNp+VIlXgOxjgw6CHG1EmeqcLMSp6vwxX6b+FguxI8AIKvz+bJMADR6IM8qEGRCHTqMFjhJhGIJxP4Q++blTRFCPA9iG2gD56Qr9dnp3+lk/k0zfUiTz88cwqpY+gs5UCyX5vJn/J/p+N8lL1cxOIc1rOpZstBYZcwwb49ypoQrsTrE7yXpkVEQawOA4mJhv70SM7MUoQkqe9RGIOfCnAEmxGPluXG8AT5WyA8Mh9gQ4gxJbmTEgE1RhjhYaQPzh5aL83nxEOtBXC2SB8UN2ByVTYkdnPdahozLGeCf8mX9Pij1vypyEjgqfUw7S8Qb0MccC7PikyCmQhxYIE6MhFgD4kh5Tlz4gE1qYRY3ctBGpohVxmIBsUwkCQlQ6WNlGbLg2AH7XXnywdixo1liXuQAvpSfFR+qyhX2SMDv9x/GgvWIJJyEQR2RfHzEYCxCUWCQKnacLJIkxKl4XE+aHxCrGovbSXOjB+zxAFFuiJI3gzheXhA3OLYgHy5OlT5eLM2Pjlf5iVdk88OiVf7ge0EE4IJAwAIKWNPBFJANxG3dDd3wTtUTDPhABjKBCDgMMIMjkvp7JPAaBwrBnxCJgHxoXEB/rwgUQP7LMFbJiYc41dUBZAz0KVVywGOI80A4yIX3in4lyZAHieARZMT/8IgPqwDGkAursv/f84PsN4YDmYgBRjE4I4s+aEkMIgYSQ4nBRFvcAPfFvfEIePWH1Rln456DcXyzJzwmtBMeEK4SOgg3J4uLZMO8HAc6oH7wQH7Sv88PbgU13fAA3AeqQ2WciRsAB9wVzsPB/eDMbpDlDvitzAprmPbfIvjuCQ3YUZwoKGUExZ9iM3ykhp2G25CKMtff50fla/pQvrlDPcPn536XfSFsw4dbYoux/dhp7Bh2FmvGGgALO4I1Yq3YISUeWnGP+lfc4Gyx/f7kQJ3ha+bbk1VmUu5U69Tl9FnVly+anq/cjNwp0hkycWZWPosDvxgiFk8icBzFcnZydgNA+f1Rvd5ex/R/VxBm6zduwR8A+Bzp6+v77RsXdgSAXzzgK+HgN86GDT8tagCcOShQyApUHK68EOCbgw53nz4wBubABsbjDNyBN/AHQSAMRIF4kAwmQe+z4DqXgWlgFpgPikEpWAHWggqwGWwD1eBnsA80gGZwDJwC58FFcBXchqunEzwHPeAt+IQgCAmhIQxEHzFBLBF7xBlhI75IEBKBxCLJSBqSiUgQBTILWYCUIquQCmQrUoP8ghxEjiFnkXbkJnIf6UJeIR9RDFVHdVAj1AodjbJRDhqOxqMT0Ux0KlqILkSXoeVoFbobrUePoefRq2gH+hztxQCmhjExU8wBY2NcLApLwTIwGTYHK8HKsCqsDmuCz/ky1oF1Yx9wIs7AWbgDXMGheAIuwKfic/CleAVejdfjJ/DL+H28B/9KoBEMCfYELwKPMJ6QSZhGKCaUEXYQDhBOwr3USXhLJBKZRGuiB9yLycRs4kziUuJG4h7iUWI78SGxl0Qi6ZPsST6kKBKflE8qJq0n7SYdIV0idZLek9XIJmRncjA5hSwhF5HLyLvIh8mXyE/InyiaFEuKFyWKIqTMoCynbKc0US5QOimfqFpUa6oPNZ6aTZ1PLafWUU9S71Bfq6mpmal5qsWoidXmqZWr7VU7o3Zf7YO6trqdOlc9VV2hvkx9p/pR9Zvqr2k0mhXNn5ZCy6cto9XQjtPu0d5rMDQcNXgaQo25GpUa9RqXNF7QKXRLOoc+iV5IL6Pvp1+gd2tSNK00uZp8zTmalZoHNa9r9moxtMZoRWnlaS3V2qV1VuupNknbSjtIW6i9UHub9nHthwyMYc7gMgSMBYztjJOMTh2ijrUOTydbp1TnZ502nR5dbV1X3UTd6bqVuod0O5gY04rJY+YylzP3Ma8xP44wGsEZIRqxZETdiEsj3umN1PPXE+mV6O3Ru6r3UZ+lH6Sfo79Sv0H/rgFuYGcQYzDNYJPBSYPukTojvUcKRpaM3DfyliFqaGcYazjTcJthq2GvkbFRiJHUaL3RcaNuY6axv3G28Rrjw8ZdJgwTXxOxyRqTIybPWLosDiuXVc46weoxNTQNNVWYbjVtM/1kZm2WYFZktsfsrjnVnG2eYb7GvMW8x8LEYpzFLItai1uWFEu2ZZblOsvTlu+srK2SrBZZNVg9tdaz5lkXWtda37Gh2fjZTLWpsrliS7Rl2+bYbrS9aIfaudll2VXaXbBH7d3txfYb7dtHEUZ5jpKMqhp13UHdgeNQ4FDrcN+R6RjhWOTY4PhitMXolNErR58e/dXJzSnXabvT7THaY8LGFI1pGvPK2c5Z4FzpfMWF5hLsMtel0eWlq72ryHWT6w03hts4t0VuLW5f3D3cZe517l0eFh5pHhs8rrN12NHspewzngTPAM+5ns2eH7zcvfK99nn95e3gneO9y/vpWOuxorHbxz70MfPh+2z16fBl+ab5bvHt8DP14/tV+T3wN/cX+u/wf8Kx5WRzdnNeBDgFyAIOBLzjenFnc48GYoEhgSWBbUHaQQlBFUH3gs2CM4Nrg3tC3EJmhhwNJYSGh64Mvc4z4gl4NbyeMI+w2WEnwtXD48Irwh9E2EXIIprGoePCxq0edyfSMlIS2RAFonhRq6PuRltHT43+LYYYEx1TGfM4dkzsrNjTcYy4yXG74t7GB8Qvj7+dYJOgSGhJpCemJtYkvksKTFqV1DF+9PjZ488nGySLkxtTSCmJKTtSeicETVg7oTPVLbU49dpE64nTJ56dZDApd9KhyfTJ/Mn70whpSWm70j7zo/hV/N50XvqG9B4BV7BO8FzoL1wj7BL5iFaJnmT4ZKzKeJrpk7k6syvLL6ssq1vMFVeIX2aHZm/OfpcTlbMzpy83KXdPHjkvLe+gRFuSIzkxxXjK9CntUntpsbRjqtfUtVN7ZOGyHXJEPlHemK8Df/RbFTaKHxT3C3wLKgveT0uctn+61nTJ9NYZdjOWzHhSGFz400x8pmBmyyzTWfNn3Z/Nmb11DjInfU7LXPO5C+d2zguZVz2fOj9n/u9FTkWrit4sSFrQtNBo4byFD38I+aG2WKNYVnx9kfeizYvxxeLFbUtclqxf8rVEWHKu1Km0rPTzUsHScz+O+bH8x75lGcvalrsv37SCuEKy4tpKv5XVq7RWFa56uHrc6vo1rDUla96snbz2bJlr2eZ11HWKdR3lEeWN6y3Wr1j/uSKr4mplQOWeDYYblmx4t1G48dIm/011m402l27+uEW85cbWkK31VVZVZduI2wq2Pd6euP30T+yfanYY7Cjd8WWnZGdHdWz1iRqPmppdhruW16K1itqu3am7L/4c+HNjnUPd1j3MPaV7wV7F3me/pP1ybV/4vpb97P11v1r+uuEA40BJPVI/o76nIauhozG5sf1g2MGWJu+mA785/raz2bS58pDuoeWHqYcXHu47Unik96j0aPexzGMPWya33D4+/viVEzEn2k6GnzxzKvjU8dOc00fO+JxpPut19uA59rmG8+7n61vdWg/87vb7gTb3tvoLHhcaL3pebGof2374kt+lY5cDL5+6wrty/mrk1fZrCdduXE+93nFDeOPpzdybL28V3Pp0e94dwp2Su5p3y+4Z3qv6w/aPPR3uHYfuB95vfRD34PZDwcPnj+SPPncufEx7XPbE5EnNU+enzV3BXRefTXjW+Vz6/FN38Z9af254YfPi17/8/2rtGd/T+VL2su/V0tf6r3e+cX3T0hvde+9t3ttP70re67+v/sD+cPpj0scnn6Z9Jn0u/2L7pelr+Nc7fXl9fVK+jN//K4AB5dEmA4BXOwGgJQPAgOdG6gTV+bC/IKozbT8C/wmrzpD9xR2AOvhPH9MN/26uA7B3OwBWUJ+eCkA0DYB4T4C6uAzVwbNc/7lTWYjwbLAl4Ut6Xjr4N0V1Jv3O7+EtUKq6guHtvwC794M8GuMqdwAAAIplWElmTU0AKgAAAAgABAEaAAUAAAABAAAAPgEbAAUAAAABAAAARgEoAAMAAAABAAIAAIdpAAQAAAABAAAATgAAAAAAAACQAAAAAQAAAJAAAAABAAOShgAHAAAAEgAAAHigAgAEAAAAAQAAApagAwAEAAAAAQAAApwAAAAAQVNDSUkAAABTY3JlZW5zaG90bqr77AAAAAlwSFlzAAAWJQAAFiUBSVIk8AAAAdZpVFh0WE1MOmNvbS5hZG9iZS54bXAAAAAAADx4OnhtcG1ldGEgeG1sbnM6eD0iYWRvYmU6bnM6bWV0YS8iIHg6eG1wdGs9IlhNUCBDb3JlIDYuMC4wIj4KICAgPHJkZjpSREYgeG1sbnM6cmRmPSJodHRwOi8vd3d3LnczLm9yZy8xOTk5LzAyLzIyLXJkZi1zeW50YXgtbnMjIj4KICAgICAgPHJkZjpEZXNjcmlwdGlvbiByZGY6YWJvdXQ9IiIKICAgICAgICAgICAgeG1sbnM6ZXhpZj0iaHR0cDovL25zLmFkb2JlLmNvbS9leGlmLzEuMC8iPgogICAgICAgICA8ZXhpZjpQaXhlbFlEaW1lbnNpb24+NjY4PC9leGlmOlBpeGVsWURpbWVuc2lvbj4KICAgICAgICAgPGV4aWY6UGl4ZWxYRGltZW5zaW9uPjY2MjwvZXhpZjpQaXhlbFhEaW1lbnNpb24+CiAgICAgICAgIDxleGlmOlVzZXJDb21tZW50PlNjcmVlbnNob3Q8L2V4aWY6VXNlckNvbW1lbnQ+CiAgICAgIDwvcmRmOkRlc2NyaXB0aW9uPgogICA8L3JkZjpSREY+CjwveDp4bXBtZXRhPgoa1tWZAAAAHGlET1QAAAACAAAAAAAAAU4AAAAoAAABTgAAAU4AAOESqeypVQAAQABJREFUeAHsXQeAVNXVPsvSy1a36NobgiVREyNIJBhr1NggicZEE8X4o9ICJiARLCyJokSSaFRAygIGxEgwjUSFuEASUzQxRmMLgmyRsrD0su8/Z9a3GWZn5s3M+957d+adq8vMvHvvd8/5zi3f3Fcmz+JEmpQBZUAZUAaUAWVAGVAGlAGXDOSpsHTJoFZXBpQBZUAZUAaUAWVAGYgwoMJSO4IyoAwoA8qAMqAMKAPKAIQBFZYQGhVEGVAGlAFlQBlQBpQBZUCFpfYBZUAZUAaUAWVAGVAGlAEIAyosITQqiDKgDCgDyoAyoAwoA8qACkvtA8qAMqAMKAPKgDKgDCgDEAZUWEJoVBBlQBlQBpQBZUAZUAaUARWW2geUAWVAGVAGlAFlQBlQBiAMqLCE0KggyoAyoAwoA8qAMqAMKAMqLLUPKAPKgDKgDCgDyoAyoAxAGFBhCaFRQZQBZUAZUAaUAWVAGVAGVFhqH1AGlAFlQBlQBpQBZUAZgDCgwhJCo4IoA8qAMqAMKAPKgDKgDKiw1D6gDCgDyoAyoAwoA8qAMgBhQIUlhEYFUQaUAWVAGVAGlAFlQBlQYal9QBlQBpQBZUAZUAaUAWUAwoAKSwiNCqIMKAPKgDKgDCgDyoAyoMJS+4AyoAwoA8qAMqAMKAPKAIQBFZYQGhVEGVAGlAFlQBlQBpQBZUCFpfYBZUAZUAaUAWVAGVAGlAEIAyosITQqiDKgDCgDyoAyoAwoA8qACkvtA8qAMqAMKAPKgDKgDCgDEAZUWEJoVBBlQBlQBpQBZUAZUAaUARWW2geUAWVAGVAGlAFlQBlQBiAMqLCE0KggyoAyoAwoA8qAMqAMKAMqLLUPKAPKgDKgDCgDyoAyoAxAGFBhCaFRQZQBZUAZUAaUAWVAGVAGVFhqH1AGlAFlQBlQBpQBZUAZgDCgwhJCo4IoA8qAMqAMKAPKgDKgDKiw1D6gDCgDyoAyoAwoA8qAMgBhQIUlhEYFUQaUAWVAGVAGlAFlQBlQYal9QBlQBpQBZUAZUAaUAWUAwoAKSwiNCqIMKAPKgDKgDCgDyoAyoMJS+4AyoAwoA8qAMqAMKAPKAIQBFZYQGhVEGVAGlAFlQBlQBpQBZUCFpfYBZUAZUAaUAWVAGVAGlAEIAyosITQqiDKgDCgDyoAyoAwoA8qACkvtA8qAMqAMKAPKgDKgDCgDEAZUWEJoVBBlQBlQBpQBZUAZUAaUARWW2geUAWVAGVAGlAFlQBlQBiAMqLCE0OgtyIoVK+I2kOi4XXjlypX227RenXDTAgMUtiwLgBIforGxkZ599llatWpVpMA555xD11xzDZWVlUU+x8u/+uqrqby8PC5gvPLReA0NDZH2Vq9eHak/YMAAEjy7vbigBh908jdefrr8RZdPl7947ZsUj3j2ufHX4K7iiWmp8ifjOy8vj/wYb9KOSelzn/tcRuYMHDgwab1EuImOJwXTzJxiQIWlj+GMFmzR72MFYHSej+YZ25RXwvIXv/gF3XDDDdTU1HSQ76WlpfTEE0/Q3r176bbbbqPNmzcflF9UVEQzZ86MCMLoDCe8PXv20O23394Oz25PBEU2JSd/0+Xv6aefTsp3uvw52ZcuHjo2aH/R9pmO58Tf7t27I+Nty5YtB7ni9XgzTVge5HwAH6KFZqxYtfPs1wDM0ya9YIAXbU0gBl566SVL/iZOnGjxQGn747jJlpv+ZcgBKDwHwTzzzDOu47Fo0aI2TDReG7Chb2pqaqD8zZs3D4qHtg8dBrS/aPtMxzOZP53r3a119top66j9J+uqpuxhQHcsM1DrsqMof/ZOo+4wZkBiGlV4OKVR2rloXV0d9e7dm5qbm50LJylRUFBAb731Fol9CLzCwsIIXkVFRZJWg89av3499e3bF8bf/v37IXg2f/v27YPioeOB4s/2F21f8D0suQWm86c7lsnj5zZXdjftnU95L3+aDGMgezRwMJZG70By6FzvqihG+hyiIz9jxgxYHOfMmWMh8ebOnYt2F47HlwEYzR/SPi/iEbb+gu6ASP5k5xOddI5Pf45HcMYCM7LDqbub6B6dPp7stmiKYkCFZDCTQrKJJSo8kLd33HEHTBiNHj3a4usmoXgQJz0EGTlyJNTfESNGwPC+/e1vW0g8iS86DR8+HOavF/ah/UXjIfmT/oJOyeYyzfNvfbGFppxO1+QvAyosmW8Rk9IJddD7N+jT4Ro9JEaNGgWLtWAhhZYXC53J/IkwQgrBMWPGGB8P04URur+g8ZD8SX9Bp3TmNi3r35pjX6+JjrfitWcgtMJSxaR/A9rt5Nm+27o7Mnv2bJiwlFOlSLz58+e7c86H2kh/5VTkrFmzYPEQ/pD2eREPtL8+hNyoJpD8LViwAO6b2/lO63u/NqnIhHf7gwBDJSzt09w6cL0fuEiOD+qxgA98045VWVnpWszwTROWYKHwqqqqIlgAFz2FQPvLj3uyhEu3fcbmD20fmky0v2j7TMcznT+3/Vjr+7s+6aly/IgPhbDU3Ul/Byp6YsR3e8tavHixayGzbNmyNtMQeMuXL2/DM/0N2l/E45qi+UPbh44H2l+0fabjmcwfev5TPH/WLxGYohU0uWcgp4WlCkp/BqTXE5/7bh4fYfLkyRmLy+nTp7cDReO1a8CwA2h/TcdD04/2F22f6Xim8uf1fKj43q5ruoPpfuTnrLDUm3G8HXx+Tm7uu3lihGnTpqUtLqurqxMCovESNmRIBtpf0/HQtKP9RdtnOp6J/Pk5N2pb3q1zKjAzH/05Jyxll1IHm3eDLQhuM+/eqdWcMmVKyn1m6tSpjqBoPMcGAy6A9td0PDTdaH/R9pmOZxp/QcyR2qZ3a54KzPRngJwSltIBdIB5N8CC4jb9bp1+jbFjxzr2HTn1lmpC46XablDl0P6ajofmGe0v2j7T8UziL6h5Utv1bu1TcZneDJATwlKvpfRuQJkwWaXXpTMvPX78+ITiMpOJBY2XuWf+1ET7azoemlW0v2j7TMczhT8T5ky1wZs1UW/uSW0WyHphqae+vRlAJk1MqXVlTKlhw4a1E5fjxo3LGByNl7EhPlVE+2s6HppWtL9o+0zHM4E/k+ZOtQW/PmayyWD6uEHbl9XCUk994weNiRMRutM74Q0dOrRNXE6YMMGpuGM+Gs+xwYALoP01HQ9NN9pftH2m4wXNn4lzqNqEXStVXCafBfIkmztd1qVJkybRPffck3V2q8HpMxBEF+WfVqS8vDzim3XSNzhODTRenCaMOoT213Q8NPlof9H2mY4XJH8yb2jKfQZYXJLoEE3tGchKYamisn0gc/lIEMIyl/lU35QBZcA7BlRYesetacgqLuNHJOuEpYrK+IHM5aMqLHM5uuqbMpBbDKiwzK14OnnD93kQPzfbqVio8rNKWK5YsYIGDRqUswGK1zkHDhzYzt945doVijqQbvmoqhm9RU+sKiwzCoNWYgYaGxuJf/6PamtrKT8/n/r160eDBw+m8vLyCD8NDQ20ZMmSg/KHDBlCZWVlvvCHts/GW716NbW0tNCAAQMo2h87PxEfsU47lXfKj8VDf7bbj/Y3Or52fqr+IuzLhflP1tpUUrJyK1euPAgiWdmDCmbhBxWXBwctq4QlesAeTIV3n2xhZ4tE+7O0GP3eOwv8RUbHSYWlv/HLldaefvppuu2222jz5s0HuVRUVEQzZ86kPXv20O23394uv7S0lJ544gm6+uqrD6qH/oC27xe/+AXdcMMN1NTUdJCptj979+5Nykesv072pYt3kFGAD2h/ASZFIHT+c2bSFpn2q11DxGjsMTvP5FdZx0VcavqYAV60syKZfgc4dyxL/sRO7mCRv6wg1gMjuWu13VWNeO+BiQqZ4wzMmzfPdR9ctGiRZyyh7aupqYH6i7YPTSTvQkP9RdqHmPOiMZC2ZROWrKOynsqfrK3RnJj4XuzU1MpAVuxYmnhdpXxDkR1IeZU/Tf9jQL+x/48Lfec/A+vXr6e+fftSc3Ozq8YLCwvprbfeooqKClc4sZXR9u3btw/ib0FBQcTf/fv3Q/EqKytjKXD1ua6ujnr37u06vra/aPt0/nMVXsfK9p3YJu5ushhWPSARzAaFLWaa8McCMtQ7kan2FXSsUm1XyykDwsCMGTNg88XcuXPhpKLt49P6MH/nzJkD5U/w0GnWrFlQf9H26fyHZjQ5nr2rieY9U7zk1oYj13hhKZ0m0wAj6qmYTH8gIHiPxkjfAq0RZgaGDx8OmzNGjx4Np3LEiBEw+/h5jdbIkSNheOIvkr9Ro0bB+UP664V90XMX4j2cwBwGNEFkimYIezJeWCIGZroYKibdDYt0+XYq784arR02BpDCSIQbOiGF5ZgxYywRR05jKNX8bBCWSH9VWKJ7tzl4QW5KyfWhYU5GC8sgOoa0qckdA6kuYqmWc2eN1g4bA8hTpfPnz4fTh7Zv9uzZMGEpN+0g7RM8dJLT66nOHU7lvLDPqc1089H8hQ0vCB0R9l1LY4WlKP50B6Cb8ioocdONmzjEq4uzTJHCwAA/bsfiG25czx9VVVUW3wAEpwxtn9jIN6DA/EXbhyYQ7S/avnhzmJtjaPvCiue3wAzzrqWxwtKvTqCnvfHTjJtJNF5dvIWKmOsMIB5Hs3z5cs9oQtu3ePFi18Iy2l+0fWgiTbYv3hzm5hiauzDj+aUrJN5h3rU0Vli6GYip1g1z4L2cXFLlP9VyXtqq2LnLwOTJkzMWW9OnT/ecGLR9puOhCUX7i7Iv1Xkt1XIouxTnfwz4JTDDumtppLD0I+jShiZvGEh1wky1nDdWKmoYGJg2bVra4rK6uto3atD2mY6HJhbtL8K+VOe1VMshbFKM9gyozmjPCeqIkcIy1QGXaTkVlajuEx8n07gkqhe/FT2qDKTGwJQpU1IWl1OnTk0NFFgKbZ/peEDqIlBof93al2gey/S4W3u0fmIG/BCXiVvP3RzjhKXXgVZR6X1nznQCTVTPe4u1hVxnYOzYsY7iUk6tBpXQ9pmOh+YZ7a8b+xLNY5ked2OL1nVmwGvNEcbT4aESlioqnQcZokSmE2iiegibFEMZGD9+fEJxacLcgLbPdDx0j0T7m6l9ieaxTI9naofWS50Bud8i0/g41QvjvRzGCUunILnJT72baUk3DLiJUby6bmzRuspANAPDhg1rt4CMGzcuukig79H2mY6HJhvtbyb2xZvD3BzLxAatkz4DXorL9K3J7hpGCUsvt6RN2JHI7q6SuvVuJtHYumH8tpc601oyEwaGDh3aJi4nTJiQCYSnddD2mY6HJhPtb7r2oQVKuu1r+cwY8PLZ2WE7HZ4nIeDF3Ig0adIkuueee+C2sKgkwdbkDwN5eXmwhniSJh6UMDwFUgaEAf6pRpJ+yjfrGEkI2j7T8dBBQPubjn2DBg2iFStWpFMlaVmDluikduZCplcaJGzrmFHCEilIoju5DsxoNrx/j4xj2Aak99HRFpQBZcBLBlRYesmu99jI9Sva2jDpEGOEpVffFHS3Mrpr+/MeOTBVWPoTM21FGVAGMAyosMTwGBSKV1pEzrzJehaGlPPC0rRvCXKKxD5NsnLlyrY+Zh+L7ngDBw6M5Mux6ONtlQx9E2Zh2djYSPxzc7R69WpqaWmhAQMG0JAhQ6isrCwSrYaGBlqyZAnV1tZSfn4+9evX76B8r0Nq2xfd/uDBg6m8vNwI+9D+2/5KPCT179//IL41HmjGk+PZ8UjU/5zyY9Gdykt8ZTyuWrXKt/EWZmGZK+sbOobSb0O1ycXCy4jEwqntgnqOAeS9KTfsyIW7CP/EH1N8StZpUPETHOEtW9LSpUutoqKidn23tLTUYjFpLViwwCopKUmY77WfCxcujNu+2GyCfWj/NR5oRt3hOfU/p/zY1p3Kz58/3youLvZ9vCHm+ug5NNZv0z7n4vom62x0DBDvs2ktc9vHjLkrHBG4WAy35LipjxpssT7Zn00WmLaNiNdsGYw1NTWuJ6JFixa56XJJ686bN89o+5Ian0GmxiMD0jysgu5/aDyk62EQlmFY3xDrVywGsp+ZjGWEsJROGhsAt5+DEl5eD7hYXoLyM1mnjrXRzedsEJbr1q2zevXq5boPFxYWWvX19cmozSjPdPsycipJJdP9Nd2+JNRmlIXyt6CgwKqrq7NQeF6Nt1wWlmFa39BxlHVQ+AtDMkJYerHt7Lfg8nvAxYo1v/1NNjhibXPzORuE5cyZM12LSpujuXPnJqM2o7wZM2YYbV9GTiWppPFIQk4AWcj+N2fOHAuJJzuf6IQWJGj7MsEL4/omPtvzMurVpHU6k36Qah0jhCV6IEon8DN50QEz7cgmdNxMbY9XLxuE5YgRI2AT0OjRo+Fdd/jw4Ubbh3ZY44Fm1B0eOh7I/szPu3TnXJza6PUsThO+Hgrz+hZvTXJzLBvWM0Tn8leBJbDYTaDi1fVTXElb8WwI8pif/scLKdL3bBiII0eOhPUBFZbxelR6x5Dx8EJ4mC6M0mPbubTJwnLMmDHODqRZIpeEZdjXN3QsZW0MQzLCS6QQESy/hJWJg87m0i8O4g0S2wbEazYIy9mzZ8OEpdx0gk6zZs0y2j60v8h4yJ3F6ISMhxf2meyvnLpG8idPakAntBhB25cqnq5vluXFbm2q/GdzucCFZbYGDj15IERYLEZQoizWDjefg/IhnUHd3NxsVVZWuhZvFRUVlmChU1NTkyXYbuIgdb2yD+0vKh5VVVVGx8Mr+9DxQPU/2180Htpf9Noga6TfCe2D27knXn2/1oZ4bbs5FkQ8/e4/gQtL9LciPzpbNgw6u+P7wUd0p0V/UfDb/mhf0nm/ePFi18Jt2bJl6TSZVll+SLTR9qXlTAqFEfFYvnx5Ci1lVgQRDy/ty8yrxLXQ/qLxEluefg56ffBbiKDtt9ciL179WB/QfPgdz/R7sPsaOScsvT4FjBbCXgy2WEyvOYnuhmhh6aft0X5k8n7y5MkZi7fp06dn0mRadUy3Ly1nUihsur+m25cCxWkVQfuLxkvLmSSF0WuEn0IEbXvsWuTFZ6/XCDQnfojhJN3Tl6zAhSX624CXnQzdwbwYZIkwveQluqeGWVgKD9OmTUtbXFZXV0dT6Ol70+1DO2+6v6bbZ3o8TOQPvU74JSzRdidai7w47uX6hl7TVFiiZ5U4eOhOFqcJyKFsHnQ2x35MUOhB6OWEAekYcUCmTJmSsricOnVqHARvD5luH9p70/013T7T42Eaf+i1wo95G22zveb4+eolT2g/0GPKNLzAdyyzJWBoO4PC83LwSecWfKRv2SgshYexY8c68iCn8oJKptuH5sV0f023z/R4mMQfWqR5PWdLbJFzdpBYXnGFPrOKHk+m4QUqLNEixKstZvREEeTA84oju2OjY5qtwlL4GD9+fMIJ2wS/TLfP7lOoV9P9Nd0+VBxsHLS/aDzbznRf0euFV2LJ9gttby6ub2hh6XVM7dgG9RqosER3aK8W6yAHihdte9mpVVgePJSHDRvWTlyOGzfu4EIBfjLdPjQ1pvtrun2mx8ME/tDrmpfztcTTizUmSEwv+Mq2mKLHabp4KiwdGEN3qCAHnN22l7uWKizbd6ihQ4e2Td4TJkxoXyDgI6bbh6bHdH9Nt8/0eATNH3rN8EIo2TFE22qvMUG+erG+6bpm95jUXnNKWHoxAIMcIF627QVX0uV0AMYfePJTjV78PGD81tI/arp96XuUvIbp/ppuX3J2089F+4vGS8cjtFjzaq4Wn7xcY4LERnOGXte8EL/p9FGvywYqLNHXLaDJQk8QQQ602La96tjoAYieINB9RPGUAWVAGYhmIFvmQF3foqPm/D52DXXz2av119kLf0rkSTNMUCBp0KBBtGLFCljbaFfy8vJgtpkIhOZLfJw0aRLdc889MHd5kiYehDA8BVIGlAFlwEsGZE2TtQ2VvJoDdX1LL0JIvmRNk7jmagpUWJocKLRAMrEDeTFhoXnzwsboWDQ2NhL/PBytXr2aWlpaaMCAATRkyBAqKyuLFLPza2trKT8/n/r160eDBw+m8vLyaJi293b5RHgNDQ20ZMkSisaLbq8NSN9AGEDHwwnPzo+Obyr9JVH5oPuL7U+i/mznJ7IfEsQkIE7tC38yvletWtU2fr0eb2hhyTuLkS/sSWhIOws9T6dtgA8V0GuH6RthPlCaehOyYxlUYith13jItj4y5fJpApt3L7bj0bzx5IAM60FYS5cutYqKitr1wdLSUovFn7Vw4UKrpKSkXb7UkfzY5IS3YMGCuHh2e7F4+tkdA+h4OOGl21+cygfdX9D+uotm+9pO/M2fP98qLi5uN369Hm8yZ9lzLOIVvbYJk+h5GuEnGgO9vgke0sb2PTp3jgR6jSUySOjBh7TNZCx0V0ZPWF4JS97FcD1JLFq0qI0+NF4bsL7JiIGamhpofNF48+bNg9qXEUlJKqH9TdJURlkm85cNwtLkNQllG1pYZsvaltGAAlcKTFiaPPjQtqEGihc4aOGWDYNvw4YNVq9evVwv7AUFBVZdXZ2FwissLLTq6+vBQzx8cOvWrYPE144HCs/uLyg82z50hFH22f6aap9X/KHXD/SmCdo+L9YlFCZyfcuGtQ091jLFU2EZhzl0B0INEi9w0JMWmrs44XF9aMaMGa5FpR2LOXPmWEi8uXPnuvYv7AAzZ86ExVfigcTLhv6C9hfdH5HjTXY+vUj2/IB4NX2ORvjoFQaSO7QgR4peL/qwG8zAhCVagCCDhLbNq0GDwEUOPOmIaO7cdO5Ede+44w6Y8JDn5d1+++1QvER26/HUGBg5ciQsHvLsUSSe9Jfhw4fD7BM8dBoxYgTMvlGjRqHNg/Ln1bNlEXOzjWH6KV3bThNfkesbWlgibYMPMpeAKizjEIi+SNfEAWfbhJ600NzFCY/rQ7LY2f67fRUspPDwaqFzTVoWASDjO2bMGAuJhxaWXvQXZH8W7tAJKcwlvl4kt/NKdH3T5+hoW017j+ROhWXqIyVnhGXqLjuXRIsj0wZbtD3IgSfMorlzjlb6JWbPng0TlnKqFIknd7JqcscAOh5IPDn1OmvWLFj/86K/oP11F832tZH8yZ33XqToOdbte9PnaLf+eVkfzR3SVt2x9GDkmXzKFC2OkJ0RjYUeeEju0LbZ3bi5udmqrKx0vbhXVFRYgoXCq6qqimDZduprZgyg44HGa2pqsqTvuB3LXvUXtL+ZRTFxLdP5E8tNngeRtrntw17XR68hSHvRtiUeMf7nBLZjie7cSOqQnScbsJDcIePq5cBbvHix64V92bJlbdQh8JYvX96Gp2/cMYCOBxoP8XgqL/sL2l930Wxf23T+TJ4Hs2FNQtrYvvdkfgRpl5frW+YeYmrmhLBEBwjZebIBC9OVWlGQ/qLjGuvn5MmTMxaX06dPj4Wz0HjtGtADaTGAjofpeGmRk0JhtL8pNJlWEZPtQwpLmVORCTlHZwMWkjtkXL1e35B+p4uF7bFptG5ygJC2mT7w0J0b6a8f16BMmzYtbXFZXV2dsKej8RI2pBkpMYCOh+l4KZGSRiG0v2k0nVJRU+1DryEpkZFiIbRtyDkfjYVe35DcoW1LMfy+FAtMWCI7EDpAyM6D9NMLLDR3SBv9EJYyyqZMmZKyuJw6darjwETjOTaoBZIygI6H6XhJycggE+1vBiYkrWKifXoPAe7nmt2sKej1Da0NknbsLM5UYRkneOjO42ZgeF0XOfCy+XEMY8eOdRSXcuot1YTGS7VdLRefAXQ8TMeLz0LmR9H+Zm5J/Jqm2YcWlsjnNOv6Fr8PpXIUzV0qbWZjmZwQluidLfSk4LU4dIOP5C6bhaUM3vHjxycUl5nwhMbLxgnGJJvR8TAdD8092t9ctg+9hiCFJdo2N+uP13UzmbeT9UsVlsnY+V+eCsv/cdH2TgdeGxVpvUHzhpxMU3Vk2LBh7cTluHHjUq3erhwar10DeiAtBtDxMB0vLXJSKIz2N4Um0ypiin3oL9nIuRA9T3stDt3go4Ulmru0OncWFQ5EWKIHHbrzoO1zMzC8rmvyhIW0LZ0xOXTo0DZxOWHChHSqxi2LxovbiB5MmQF0PEzHS5mYFAui/U2x2ZSLmWAfeg1BrnFo27xeo9zgo9cQtLBE25fyIPG4oArLBAS76czZVDeB+xkdRg+6jIwAVZKf3kP+XB4aD+RmaGHQ8TAdDx1otL+5Zh9avCGFpXCdTWuUG1vR/Qq9xqmwBEbI9EEnrqKvpXAzOLyqi56s0IMO2OUUShlQBpQBXxlAztuyHiGTrm+ZsYle41RYZhaHuLWyQViibUROMigstLBET1ZxO48eVAaUAWUgCxhAzdOCgxaWur5l1oFUWKbGW54U447ra1qxYgUNGjQI1iYHmyZNmgTDs4Hy8vLstzn5ig49ki+eSIknP895b2xsJP55OFq9enWkrf79+9OQIUOorKws8tnOr62tpfz8fOrXrx8NHjyYysvLPbdNGrDbR9ln4yXyp6GhgZYsWUKJ8mOdtvFMtS/WXv2cWwzY/S9Rf5X+LON71apVbeM3enx7yYascbLWoZLJ8zXKRyQOmi+xDa1dZI2TtS7nEpPve0J/WxI8L5J8S+SA5+QferdS+EdyJdx7nZYuXWoVFRW1s7u0tNRicWUtXLjQKikpaZcvdSTf64S2z8mfBQsWpOWv6fZ5HR/FD5YBp/48f/58q7i4uN34tce319aj1w+0vWj7kPO/Wywv1jfhP1u0C7qvpIsXyM072bKdjO5EbgcLsn66HcWpPJorryYG24+ampp2C066/C5atMiGg7+i7Zs3bx7UX9PtgwdEAY1iAN2fvXAOLdxkjkUm9Jyd7vzpZXkkT9FYaM68XueibffzvQpLB7bRk4OXgylVbC86M/rLghc22qFet26d1atXL9dCq6CgwKqrq7NhYa9o+8KGBwuEAhnJAKo/FxYWWvX19Z75iJ4T0cJSHNf1Lb3wq7BMjS8Vlg48oTtSquLPy3IOLmeUjZ5EvRSWM2fOdC0q7fjMmTMnI76SVULbN2PGDKi/ptuXjFvNy34GkP1Zdj69Sui1w4s5EW2jPS8G+epVPAUXzZcXMfXS/1SxVVimwFQufavzqiOjOZIB7FUaMWIETGiNGjUKbubIkSNh9snzBpH+Ch7avuHDh8P89SIe8AAroCsGkP0F+azaWKfQIkTmWC8Seu4OUlR6tb7ZvKNj6rW9tt1+v6qwTIFxdGcKcuCl4G5GRdA+ZWREipWQwkiw0EnEEYpPwUIKS1mI0fYhhYIIX025zQCyv3gpLCUKqHEsOF4JS13fUh8vaK5UWKbOvWNJIRM54CTYXid0h0L6nyqWl504VRtSLedlPGfPng3rf3PnzoWbirZv1qxZMH/lph3T7YMHRAGNYgDZn+XOcS9TqvNdquW8slXXt9SYRfPk5ZqcmkfelNIdyzR4RQviVCcTRDkvOzCaF6++mduhbm5utiorK12LrYqKCkuw0AltX1NTkyW2uu1Htr+m24eOh+KZxQCqP1dVVXkyfqPZQp9m9nITBT2Pu51v0qnv5foWHU8VltFsJH6vwjIxN3FzsnHweT3o0Jx4ba8EdvHixa6F1rJly+L2EcRBtH38kGiov6bbh4iBYpjLAKI/L1++3HMH0cLS67kRPZenIw4zLes1J9GdRIVlNBuJ3wciLNGDzctvcfGoQ9uf6YBKpZ7Y6nVC8+HXRDF58uSMxdb06dO9ptVC2xc2PM8DpA0EygC6P3vhDFqoZeN8nso6lWkZP/iI7hdoYem3/dG+ePk+J4SllwQlwkaLqUwHVrJ6fnXaZDZkkufnF4Vp06alLS6rq6sTdQv4cbR9YcODB0QBjWIA3Z/RzqGFiMynfiRd3+KzjI6nX2t0fG+8O+pPL42xH91pY+B9+4j+NpqJCEtUx69dPy848C2AHzc0ZcqUlMXl1KlT/TbPQtsXNjzfA6YN+soAuj+jjU80R2d63K8v3l7M7Zn6HFvPr/UtXl+ItcXNZxWW8RjO8FiuCEtx38TB5+eg88L/DLuVq2pjx451FJdy6i2ohLYvbHhBxU3b9YcBdH9GWu1GeMSr66cY8WJ+j+dTOsf8XN/i9YN0bHUq62cs4/ni1THdsQQwa9Lg8+vbrE2b08BJNz/IgTZ+/PiE4jLoyUz4RtsXNjy7z+prbjKA7s8oltAbKTKn+pnCvL7F4zndNS1Z+SDXu3i+oY7520M/tho90FBkuMUJcgAKp36LSi/8DVrADRs2rJ24HDdunNuuAauPti9seLBAKJCRDKD7M8JJL+ZJv+d64cELP5KJrui8INa3RLGPtsvtexWWiVjO4HiuCkubCj8HYJADzgs/g5gw7bjZr0OHDm0TlxMmTLAPG/OKti9seMYEUg3xhAF0f3ZrpMxpbgVIbP0gBYkX836sf/bnINe3RHG3bUO8BhnHRP4hjucJCBPkaxo0aBCtWLEC1mYALqRk+6RJk+iee+5JqWy6hbhDEg9wktegUl5eHrxpU2LJP/VG4h/frAP3EQGIti9seIgYKIa5DKD7s1tPc3GuzPX1LVHMkbGU9Zu/eCRqKmuPq7D0IXQyACW5FZkmiMmII/yPF5NKrg4ymzN9VQaUgXAygN5MERZFkMicGXTKxfUtGacqLJOx05qnwtKZI2gJ2am1d2tXrlzZhm0fi54oBg4cGMmXY9HH2yoF+AY5uGw3ZAfWnqTsY/qqDCgDykC2MxCWL+K5sr4l62/ItU/Wdd2xTMZ2Gnnob2+mnD5Ng4KsLurFJCmEBCEsGxsbiX8ejlavXh2JSf/+/WnIkCFUVlYW+Wzn19bWUn5+PvXr148GDx5M5eXlkXyv/7HbR9ln4yXyp6GhgZYsWUKJ8r32N2z46HjYeIn6S9Dxte1L1L+c8mP7h1N58VfG96pVq9rGb/T4jsXz6rMILln30CmIORPtQ7bhqbBMIWIsynxPrNKhFzP77kDIG+RuBY2fjec3rUuXLrWKiora+VJaWmqxuLIWLlxolZSUtMuXOpLvdULb5+TPggULAvXXaz5Nw0fHw6m/BB1fJ3+d8mPj51R+/vz5VnFxcbvxa4/vWDyvP9vzHPrVa7sV/2AGkPETLZSLSR83lItR9dAn/obcbqJGDDTB9TPV1NS49mPRokWemYy2b968eUb76xmRhgKj44HuL2ja0P6i8dD+xsNDb6jY867fc2c838J0zOYd8arCEthz0AMMaJpCJWHAK1EpA9TPyXHdunVWr169XAutgoICq66uLgljmWWh7UPjZeaV1rIZQMcDjWfbiXpF24fCKywstOrr61FuOuJ48dghW9wItiZ/GLA5R7yqsATGDBGQaAygaQqVhIFoztHvkzQLz5o5c6ZrUWn7P2fOHOPtmzFjhtH+wgk0HBAdD9P7M9pfJJ7sfPqZ7HkD/ZqrAsXP2KTaFjp2qbabTeUCORWugcmmLtJqa67sVoo3I0aMgAmtUaNGwYM5cuRImH2jR4+2hg8fDsPzwl84gYYDIvufxBeJ50V8kfah+zM/79LX3oI+Wxe9lqq49CeU0Zwj3vtjtb+tqLD0l++sbM1LUSkD08/T4BIApHATLHSSxR0xYQmGYCGFpSzsmtwxgBRaIoyQ/dmL+CL9zXZh6eXp8CDmUncjITtro+ZmGyc7WUhutQrL5PyEPtdrUSmDy+80e/ZsmHCbO3cu3Hy0fbNmzYL5KzeJaHLHADoeyP7iRXyR/sqpaySe3Dnud7IFhVevfn9R95u/oNtDxy1of7xo3/9Vnb3QwHgRSjymH6IyiEmwubnZqqysdN0PKyoqLMFCJ7R9TU1Nltjqdtx55S+aP9Px0PFA9xc0fyh/q6qqIuMNjYf21wkvV+dVJ79zJd/tPBpbP1d4ifZDhWU0G/q+jQEvrwWKHlhtDfr8ZvHixa6F1rJlyzyzGm0fPyTaaH89I9JQYHQ80P0FTRvC3+XLl7eZhcZrA/bhjdenw+35NYgv7T7QF3gTNr+o18Ad8sAAFZYekJrNkDLp+SUqg574Jk+enLHYmj59uudhRtuHxvOcgBxvAB0PNB6afrR9aDy0v8nw/JpjRfwEPc8m4yEb81CC0sbJRg6cbFZh6cRQiPJlArI7ux+vJjx7bdq0aWn7XF1d7VuvQNuHxvONiBxtCB0PNB6adrR9aDy0v4nw/Nq1tOdxFZeJIpH+cZtT1Gv6FphfQ4Wl+THy3EK/BaUMSJMmuilTpqQsLqdOnep5PGIbQNuHxou1Vz+nxwA6Hmi89LxxLo22D43n7AGmhJ+7lrYIMmnexbDoP4rNJerVfw+8b1GFpfccG9uCn6e9YwehaaSMHTvWUVzKqbegEto+NF5QvORKu+h4oPHQPKPtQ+Oh/Y2H5/euZfQcrAIzXkRSOxbNI+J9aq1mVykVltkVL9fWBikm7UFo6qQ2fvz4hOLSBJvR9qHxXHfOkAOg44HGQ4cHbR8aD+1vPLwgdi3teVheZV4zYW6Lx42px6L5Q7w31U83dqmwdMNeltQ1QUxGD0CTaRs2bFg7cTlu3DhjTEbbh8YzhqgsNQQdDzQemla0fWg8tL/x8KLnxiDfq8iMF532x9Axat9C9h9RYZn9MWzngQhJmSSC/jYcbwBmw7fjoUOHtonLCRMmtOM36ANo+9B4QfOT7e2j44HGQ/OLtg+Nh/Y3Fi/IU+Lx5mg5JmuHzNXZMF/H8un150ScZXrca3uDwM+TRpkQX1NeXh60vQBcgNqfKdiKFSsiVeV15cqVbe8zxfO6Hk9SNGnSJK+bgeDzT+WR9FO+WQeChwZB24fGQ/sbNjx0PNB46Hig7UPjof2NxZN58Z577ok9bNRnFps0cODAiE3yXv7CmFS/OEddhaUzR4GUsEWjNG6/zwbxmIyssH4BSMaJ5ikDyoAyIAwMGjSoba7PJkaiBadtty067Vf7eC68qrB0jqIKS2eO2pWwhV67jAQH4pW3RWJ0lXjlovOz+T2f7qFcnGSyOSZquzKgDJjDgMz/Ii5zNcXO//buZzx/Y8vGKyPHUi2XqH4mx1VYOrOWE8LS2U0tESQDJp8Cb2xsJP55OFq9enWEov79+9OQIUOorKws8tnOr62tpfz8fOrXrx8NHjyYysvLfaHUbl/ty4xuJ/4aGhpoyZIlFHR8E7Vvin2m979k/Mn4XrVqVdv4jR7fmfUq72rlurj0jrnsRc7JM3nslO+Ju0DbzRH6Pre5MPni76VLl1pFRUXt+mJpaanFYsNauHChVVJS0i5f6ki+10ntc8ewE38LFiwINL5O/Sto+5z4c7LfXfScazu1P3/+fKu4uLjd+LXHt3MLwZSQOVPXxdxeF6PjG0wv87bVnLgrPDpI+t6cAWmyqKypqXE9eS9atMiz0an2uaPWdP7mzZun/c9FiE3nz4VrkaoqLs1Zx7zWFG77ion1VVjq7qnrBS7ewDNZVK5bt87q1auXa78LCgqsuro6+LhW+9xRqvwpf/HmpNhjhYWFVn19vTuyPKyt4jIc4tLDLhQYtApLFZauBVbshC3PZTM5zZw5E+bznDlz4K6qfe4oNZ2/GTNmaP9zEWIkf7LzaXJScZn74tLk/pepbSosVVjCFjm+Q88yXVTKQBkxYgTM51GjRmU69hLWU/sSUpNShun8DR8+XPtfSpGMXwjJHz/vMn4jBh2VOTX2y7t+zh3BaVBXg5miwlKFJWTSMvnUd+xoGTlyJMRnmdwFC53UPneMIvkbPXq0O2Pi1EYKIy/sQ/LnxRcvJH/ZICztLqS7l7kjJqO/GNjxzaVXFZYqLF2LrGzYpYwetLNnz3btsz0xzJ07Nxoa8l7tc0cjkj+5CQidZs2aBet/XtiH5M+LU81I/uTO8WxKKi5zT1xmU/9L1VYVliosM17k5NR3Nqbm5marsrIyY79tUVlRUWEJFjqpfe4YNZ2/pqYmS/qO3Y8yfTW9/1VVVXkyPlD8eWWfu96bWm0VmLkjMFOLeHaVUmGpwjLtBS5brqVMNhQXL16ctt+xAmDZsmXJmnCVp/a5os8ynT9+aHfO97/ly5e7C2KS2gj+vLQvienQLBWY2S8woR3CEDAVliosU17gckFQRo+7yZMnp+x7rKicPn16NJQn79U+d7Qqf8pf7Li1P/sxft2xn3ptuRRJBWb2CszUI509JVVYqrB0FFcyaWXbdZSpDsFp06Y5+m8vRvZrdXV1qvCuy6l97ihU/pQ/e9zar36OX3fsp19bBWb2Ccz0o2x+DRWWKizjCqtc251MNhSnTJkSlwN7IYp+nTp1ajIoT/LUPne0Kn/Knz2Ggxi/7tjPrLYITBWZ2SEyM4uw2bVUWKqwbBNVYRKTscNy7NixbTzYi1Dsq5xaDSqpfe6YV/6UvyDHrzv23dVWkWm2wHQXXTNrq7AMsbAUISmTTq6e5k53yI0fPz6huBSegk5qn7sIKH/KnzsGsr+2LTJl7o/94qyfgxGg2d+r2nugwjJEwlKFZPsBEHtk2LBh7SbccePGxRYL7LPa54565U/5c8dAbtWWTQURmyo0gxGVIuZzMQXilX4z8rYTyyShIjLz4Tp06NA2cTlhwoTMgTyqqfa5I1b5U/7cMZDbtW2xqYLT23Xa1kG52JvyxCl20NeUl5fna3u51hiLxjaXBg4cSPZn+7UtU99kzAD/1BtJP+WL/TPG8LKi2ueOXeVP+XPHQPhqr1ixguTPTitXroy8jT5m5+lr6gwEIMFSNy7DkiosMyQOWS1WEIpYtFN0XvR7O19flQFlQBlQBpQBExiwRab9attki1D5HJtnlwnrqwpLUORN27HMVLBFC8B41CTCTXQ8HoYeUwaUAWVAGVAGcpWBREIz0XGbh2ixah9L5dUJNxUMZBkVlkg2FUsZMICBxsZG4p+Ho9WrV0es6d+/Pw0ZMoTKysoin+382tpays/Pp379+tHgwYOpvLw8rvV2+UR4DQ0NtGTJEkoVL24jBh108tfOzxV/0dQ78ZOr/SVRf3DiI5Z/p/LCn4zvVatWtY3f6PEdi6eflQFlAMAAq2VNykAoGVi6dKlVVFTUdqMOD6fI+9LSUovFn7Vw4UKrpKSkXb7UkfzY5IS3YMGCtPBi8U377ORvuvyZ5p/X9jjxk2v9xclfp/zYeDiVnz9/vlVcXNxu/NrjOxZPPysDygCGgUDuCseYrijKQOYM1NTUtFtwbGGZ6uuiRYvaDEDjtQEb+iZs/qLDMG/ePGj/Q9uHxkP7i8ZD+6t4ykCYGQjk5h3ARqtCKAMZM7B+/Xrq27cvNTc3Z4whFQsKCuitt96i/fv3Q/EqKytd2eV1ZTR/pvuL5jNs/KH9RY23wsLCyPitqKhAh1jxlIFwMxBmVa2+h5OBmTNnut4t4lkjgjFnzhwLjWd6VMLmLzoeM2bMgPY/tH1oPLS/SDzZ+dSkDCgDWAb0VDiWT0XLAgZGjhwJW9hHjx5tjRgxAoY3atQo4xkMm7/ogAwfPlz7S4a/eCbjDckfP88UHV7FUwZCz4AKy9B3gfARIOLN3nF0+ypYaKFqekSQ/gpW2BJSGInQMj0hv4iosDQ92mqfMmBZeo1luK+ECKX3fPqabrzxRojvc+fOpZaWFhge3xRDX/3qVyG2eQWC5u9rX/uaV6YaifvUU0/RN7/5TYht2dBfkP7yqWvat28fjD++c5yuu+46SCwURBlQBloZUGGpPSF0DGzfvp1OOOEEqq+vd+W7XPT/zjvvRDCQeD179nRll9eV0fyZ7i+az61bt1Lv3r1JnrHoJtn9z3T+UP5WVVXRm2++SQcOHIDwZ+OZzp+bPqJ1lYFAGNBtW2UgjAwsXrzY9enwZcuWtVGHxmsDNvRN2PxFh4Ef2g3tf2j70HgIf5cvX95mFhqvDVjfKAPKgGsG9BpL1xQqQLYyMHny5IwX9+nTp7dzG43XrgHDDoTNXzT9YeMP7S8aDx1fxVMGwsqACsuwRl79jjAwbdq0tMVldXV1QvbQeAkbMiQjbP6iaQ8bf2h/0Xjo+CqeMhBGBlRYhjHq6vNBDEyZMiVlcTl16tSD6sb7gMaL14ZJx8LmL5r7sPGH9heNh46v4ikDYWNAhWXYIq7+xmVg7NixjuJSTr2lmtB4qbYbVLmw+YvmOWz8of1F46Hjq3jKQJgYUGEZpmirr0kZGD9+fEJxOXHixKR142Wi8eK1YdKxsPmL5j5s/KH9ReOh46t4ykBYGFBhGZZIq58pMTBs2LB24nLcuHEp1Y1XCI0Xrw2TjoXNXzT3YeMP7S8aDx1fxVMGwsCACsswRFl9TIuBoUOHtonLCRMmpFU3XmE0Xrw2TDoWNn/R3IeNP7S/aDx0fBVPGch1BvQB6YE8PVQbNZ0B/g1hysvLI75ZB2IqGg9ilIcgYfMXTWXY+EP7i8ZDx1fxlIFcZkCFZS5HV31TBpQBZUAZUAaUAWXARwZUWPpItjalDCgDyoAyoAwoA8pALjMQuLBsbGwk/nkuWr16NbW0tNCAAQNoyJAhVFZWFuFdfk93yZIlVFtbS/n5+dSvX7+D8nM5OKn4Fs2flO/fv/9B/ATNn5N9dn50fAcPHkzl5eVx3bfLS39B+OuEZ+dnYl+8/pwuXlwScvigzU+i+cDOTzUeOUyVL67ZfKPiYeMlip9TvtdOO7XvlB9rn1N5p/yg8WT9kPV51apVKa2/Tv6kixfrv2mfbX+jx0f0+mXnJ+rvpvkDsyfIi0iXLl1qFRUVtd0owU5F3peWllosJq0FCxZYJSUlCfODtN2Etk3nz8m+hQsXxo2v9AmJf2xywku3vzjhoe1LFy/W/1z/jI5HrvPltX/oeDj1f6d8r/11at8pP9Y+p/JO+UHjzZ8/3youLk55/XXyJ128WP9N+4weH6b558aewO4K529B7TqsLSxTfV20aJEb37O6bk1NjdH8oe0zHU/7s7vhpPy54w9dGx2PefPmGT1foe1TvNZNolTXcimXTes5enygx2/QeIEIyw0bNli9evVyPdEUFhZa9fX1QXPoe/vr1q0zmj+UfQUFBVZdXZ2FwrP7CwrPtg/Vn2083ztUwA0qfwEHIKZ5dDzQ4y3GXNcf0faFBQ89n9p4rgPqMQB6fHhsbiDwgQjLGTNmuBaV9jehuXPnBkJckI3OnDnTaP6Q9s2ZM8dC4kl/QeKJfbNmzYLFQ/DClpQ/syKOjgdyvvdifKDtCxOe7Mwi/RU80xN6fJjubyb2BSIsb7/9dthCPHr06Ez8zuo6I0aMMJq/kSNHQu1D4vHz7SwknvQ/JN6oUaOyum9mYrzylwlr3tWRPmh/cXf7KuNj+PDhMDwvxgd6Pg0T3pgxY6DxlfnZ9KTzlXOEAhGWyMCEUVgi+fNiICMXJrEPiScTIRIPbZ/ENmwJGY8w8ofuLzKnuhWUdn0Vlulfa2hzJ6/Cn8lCdezYsVBhKfOz6Qk5XwlWLqZAhOXs2bNhE5fc1BG2hORP7tRDJ6R9El8knviLxBP75PRc9GLg5n0YL+1Q/tAj0B0eMh5yahN56tCLU6Vo+8KEJ0/iQPoreKYn9Pgw3d9M7AtEWDY3N1uVlZWuF+OKigpLsMKWUPxVVVV5wh/KPju+KDzbXxQe2j4bT/tzZrs8YeUP3V9Q48Meb01NTZbExs0XLqlr46H9RduneJmNX6/ii+4v6PGBts8EvECEpTi+ePFi1xPNsmXLTOAwEBsQ/C1fvtwz2xH2RccXgRftLwIv2j7E4yei8TwLjKHAyp9ZgUHEI3q8ofHQbKHtU7z0xWV0f0HHF42Hji/avqDxAhOW4vjkyZMzFpfTp08PmrvA2zedP7R9YcMLvIP5bAA6vj6bn3PNoeOBxkMTjrZP8VIXl9m4nqPji+7PQeIFKizF8WnTpqUtLqurq4PkzKi2TecPbV/Y8IzqbD4Yg46vDybndBPoeKDx0OSj7VM8Z3GZzes5Or7o/hwUXuDCUhyfMmVKyuJy6tSpQXFlbLum84e2L2x4xnY8jwxDx9cjM0MDi44HGg8dCLR9ipdYXObCeo6OL7o/B4FnhLAUx+WxBU4Xd8vWs6b4DJjOH9q+sOHFj3ruHkXHN3eZ8sczdDzQeGgW0PYpXntxmUvrOTq+6P7sN54xwlIcHz9+fEJxOXHiRL+5ybr2TOcPbV/Y8LKuQ7o0GB1fl+aEvjo6Hmg8dIDQ9ine/8RlLq7n6Pii+7OfeEYJS3F82LBh7cTluHHj/OQkq9synT+0fWHDy+rOmYHx6PhmYIJWiWIAHQ80XpSpkLdo+xSPrFxez9HxhXTiAECME5bCwdChQ9vE5YQJEwKgJbubNJ0/tH1hw8vu3pm+9ej4pm+B1ohmAB0PNF60rYj3aPsUDxEVczHQ8TXX08SW5UkWX9toXOKfyqO8vDzii3uNsy0bDDKdP7R9YcPLhj6ItBEdX6RtYcRCxwONh44J2j7FQ0fILDx0fM3yztkaY4Wls+laQhlQBpQBZUAZUAaUAWXAJAZUWJoUDbVFGVAGlAFlQBlQBpSBLGYg54RlY2Mj8c8tUW1tLeXn51O/fv1o8ODBVF5eHglTQ0MDLVmy5KD8IUOGUFlZmS9htO1bvXo1tbS00IABAyi6fTs/kf1eG2m3L/ZJ6t+/f1bZl258o/2NF4908dDxibYvXjzi2Rfd39H2eI0X7W+q8fDTX7R90XiJ4ivz2apVq9rms+j5wut4oPFT8Ted+dl0PK/4k/WhQ4cO7ebnePNBLvSXZP7a46Njx4509tlnH7ReoflXvBQZSHz5ZfblLFy40CopKWm78YcpiLwvKiqyeLKyFixYEDe/tLQ0ku+1x0uXLrXEFtsu+9Vu38l+tS85f+nG1yke6eKh45OpfXZ/R9vjNZ7p/qLtc8KbP3++VVxcnHC+8DoeaHwnf9Mdb6bjoflLtD7Y60e6/KHtQ+M5+Ztr4wPNX5B4Rt4Vngkh8+bNazcB28It1ddFixZl0nRKdRA/Wu+lfTU1NUbzh7ZP45FSt/WtkOnxQNuH7s++BSrDhtD+mo6XIU0Jq6H9TdiQIRlh89cQ2mFm5ISwXLdundWrVy/XwqiwsNCqr6+HkWsDbdiwAWJfQUGBVVdXZ8PCXlH8mW6fHV9UPGw8WCA+BjI9Hmh/UfHwqv+h7UPF16v+h44v2l/T8UznD20fGg8dX7R9iufMQE4IyxkzZrgWlfau5ty5c51ZS7ME0r45c+ak2bpz8ZkzZ8L4M90+ie+sWbNg/nrRX0yPh3OPSq8EMh5e9D+0fcj4ypka0xPSXxlvpuOh44H2F20fGg/pbzaMDzR/JuDlhLAcPnw4TCiMHj0aHpfbb78dZt+oUaPg9o0YMcJo+0aOHAmzj58vZiHxvOgvpscD3QGR8fBifAim/cXT7av0F2R8pT+bnpDxRY9fwUPGw/T5wAv70P0PGY9sGB9o/kzAU2H58Q0+9oLhxcBDTqxhtA+5sI8ZM8ZC4nkxcZneX9ATFzIeXowPwbTnB7evXggjdDzQeMj4Cn9oPNPHm+n2ofsL0l+Z7zX5z0BOCEvkqSq5aBidZs+eDVuY1L7WO/0zXeDlTkI5XZpp/dh6godOpvcXtL/IeHgxPtD2IePrRf9Dxxfpr8TXdDzT+UPbh8ZDxlfulNfkPwM5ISybmpqsiooK12JBMJqbm+FREMzKykq1L0NmUfxVVVVF4ovGy9CthNVQ9nnVnxManmGG6f6i7UPh2f05Q9p9q4by1+7PpuOhiUX7i7YPjYfyN1vGB5o/E/ByQlgKkYjHgSxbtsyzmCxevNi1sFT73O1WLl++vC2+iP4SjdcGDHpjen8BudkGg4iHl+MDbR8ivl72v7bAgN4g/I2Or+l4INraYND+tgEb+gbhbzaND0PDkLFZOSMshYHJkydnLN6mTZuWMYmpVlT7UmUqfjk0f2i8+FZnftR0+zL3LH5N0/1F24fGi8+qOUfR/uQ0WysAAEAASURBVJqOh2Ye7S/aPjRe2PxF8xckXk4JSyFSBGLsdXBOnx977DHfYqD2uaMazR8az5137Wubbl97i90dMd1ftH1oPHfse18b7a/peGhG0f6i7UPjhc1fNH9B4eWcsBQip0yZkrK4fOqpp3znXu1zRzmaPzSeO+/a1zbdvvYWuztiur9o+9B47tj3vjbaX9Px0Iyi/UXbh8YLm79o/oLAy0lhKUSOHTvWUVw++eSTQXAeaVPtc0c9mj80njvv2tc23b72Frs7Yrq/aPvQeO7Y97422l/T8dCMov1F24fGC5u/aP78xstZYSlEPvjggwnFpfwaTtBJ7XMXATR/aDx33rWvbbp97S12d8R0f9H2ofHcse99bbS/puOhGUX7i7YPjRc2f9H8+YmX08JSiJw0aVI7cTlu3Dg/OU7altqXlB7HTDR/aDxHB9IscP/99xvdn9N0x7G46f6i7UPjORIccAG0v6bjoelG+4u2D40XNn/R/PmFl/PCUoiM/uWMCRMm+MVtyu2ofSlTFbcgmj80XlyjXRy8884728Slif3ZhWtxq5ruL9o+NF5cUg06iPbXdDw09Wh/0fah8cLmL5o/P/DypBG+azrnE3dGamlpoalTpxrpq9rnLixo/tB47rxrX9t0+9pb7O6I6f6i7UPjuWPf+9pof03HQzOK9hdtHxovbP6i+fMaLzTC0msiFV8ZUAaUAWVAGVAGlIGwM6DCMuw9QP1XBpQBZUAZUAaUAWUAxEDOCcvGxkbin1+j1atXR059DxgwgIYMGUJlZWURyhoaGmjJkiVUW1tL+fn51K9fv4PyY3lF48Xiu/0cbZ9g9e/f/yB/0vXXrT2x9Z3ss/Oj4zF48GAqLy+PhYp8tstLfCXlur8RJ4H/2Pwl4jtef0kWD6BpWQFl85eo/9n5ifjNCic9NNKJH6d8D03zBNrJH6f8WKOcyjvlp4sn84Gsp6tWrUprvUzU/4PGi/Xf7Web70R6w85PxIfb9o2t78eFnH61sXTpUquoqKjtxgYmPfK+tLTUYjFpLViwwCopKUmYH2snGi8W3+3nbLdv4cKFceMhMZR4xaaw+Rvrv9vPTnwnGh+J4uHWnmyr79T/nPjNNn/R9jrx45SPtsdrPCd/nPJj7XMq75SfLt78+fOt4uLilNdLp/aDxov13+1nnQ8SM5gzd4Xzt6p2A8AWlqm+Llq0qI2pmpoaKF4bMOhN2OwLm7+gbtIGM2/ePKP7c5uhhr4xvf8ZSlubWWHrf2h/Fa91kyjVtVzKRa/nbR0R9AatN0BmGQOTE8Jyw4YNVq9evVwvnIWFhVZ9fb21bt06KB462mGxr6CgwKqrqwtNPGx/Te0vXtmH9heNhxpvyl/64iBaSGQLf+j+YiqeV+slyl/bPvR8gNIb2dKfM+EvJ4Sl/IpO9ATk5v3cuXOtmTNnQvEyCUyyOmGyb86cOaGKh/iLTsjx4YV9aH/ReMjxFkb+wtb/0P6ajCc7qUj7vMBDzwezZs2C6YNcnQ9yQljecccdsEB/+9vftkaMGAHDk4dto5Pp9o0cORLKn+n+Iu0bNWoUurtYw4cPh8XDC/vgDoMBTY8v2F04XNj6H7K/yPphMt6YMWOg9gkesr/Ieo5OyPUtV+fTnBCWEhw3u5TRdaUjIjuO6R3bC/s0Hpmf8pO+h07IidqLL0pof9F4yPkgVxeSZJwj+1828GeyEEQLVdOFpdiHTsj1LRv6cyb85YSwnD17NkxYykX6SDy5Ew6dwmRf2OIhl2KgE/LUjcQjbAk53uRUX9gSsv9lA39of03Gk/UNaR8aT550gU5y+jp6M8rN+2zoz5nwlxPCsrm52aqsrHQd7IqKCkuwUHhVVVURrEwCk6xOWOwLWzxsf5PFPpO8pqYmS7DdTIBS1yv7MvHJzzqmjzc/ucikLVT/82o+zcSnZHXQ/ipeZmeAvOovOh8k6/2teTnzgHR5iKs8CN1NWrZsGV122WURCATe8uXL6YILLnBjUsK6YbAvbPGI9jdh4DPMeP/99+l3v/tdhrVbq1188cV05JFHusLI1soI/i699FLixS5bKXBlt/wohTxo303ycj51Y1e8umh/FS8ey8mPedlf0PFI7kkW5jprz+wpMXny5Ix3ZaZPn97OUTReuwZcHgibfWHz12X30OrKgFEMmD5+0WSh/VW81Hcu463npscXbV+QeDlxKjyawGnTpqUtLqurq6MhDnqPxjsIHPAhbPaFzV9AF1EIZcAYBkwfv2ii0P4qnrO4TLaemx5ftH1B4eWcsBQip0yZkrK4nDp1qiP3aDzHBtMsEDb7wuZvmt1BiydhYNeundbaD9ZZb7/9jvX2O+9G/t559z2raetWrtWSpKZmoRgwffyi/LRx0P4qXmJxmcp6bscF9YqOB8quIHFyUlgKoWPHjnUUl3JqIdWExku13VTLhc2+sPmbaj/QcokZkJsgpv/kMeu6r99sXf2lr1nXfLn1b/C1N1gjRt9pvbx6jdXSouIyMYO4HNPHL87TViS0v4rXXlyms56bHl+0fX7j5aywFCLHjx+fUFxOnDgxba7ReGkb4FAhbPaFzV+H8Gt2Egb27dtjfW/ivdZpn+xnHd/79Na/k86wTpC/Pmdavflv0PmXWS+8tJLF5YEkSJqFYsD08Yvy08ZB+6t4/xOXmazndlxQr+h4oOwKAienhaUQOmzYsHbicty4cRlzjcbL2JAEFcNmX9j8TRB2PZyEgZ07d1rfGTfJOl5EpC0q+bVVVIqwPMM68aQzI3/nX3yVVbtqjXXggIrLJJTCskwfvzBHPwZC+6t4ZLlZz02PL9o+v/ByXlgKkUOHDm0TlxMmTHDNLRrPtUExAGGzL2z+xoRbPzowMLtmodX3E2dbJ/aWHcrTreNO+qR12pn9rPMv+aL1mc9+3jrx5NYdS9m1FJF5zZe/bq37cJ0DqmajGDB9/KL8tHHQ/iqezawZr+h4mOFVelbkzHMsnZ70xD9dSHl5ecQX9zoVTSkfjZdSo2kUCpt9YfM3ja4Q+qIT762mhT9bQnTA4nNnFlUcVk43fONLdHKfk2htXT09+/Nf0uuv/Ita9h8gK4+oS+dOtGD+LDr15D6h584vAkwfv2ge0P4qHjpC7vDQ8XBnjf+1QyMs/adWW1QGlAETGLj7nsksLJ+lPBaW1OEADRt+M91w47W0vWU3zVz2K3r99bX0xu9X0/6tzUR5FnXq2JGF5VP0iVP7mmC+2qAMKAPKQFYxoMIyq8KlxioD5jGwd+8eem7Zr+nD9etbjeNdv2OPOYYuuegC6ty5c+AGf2/S/bTg6SWU17KPOnbpRPfdfzftPqwX/athPf3+6V/Svm4l1Pzvd6jjR1sor0MederUkeYbICxbWvbT0l/+muo+rGfBy6RyOvTQCrrisoupQ4dOgfOqBigDyoAyEI+BwIVlY2Mjyc8T1tbWUn5+PvXr1y/y01/l5eURe53yY51yKu+UH4uH/uzUvlN+rD1O5Z3yY/HC9tmJH6f8WL7s8qtXr45k9e/fP/JTo2VlZZHPdn6i/p4IL9XysfW9/rxp8yZ67NGnqObpRXK9NgsgbpFfCwsK6OZvXk/XfmUI9erVyxMzDrQcoKYtW2nzli20d8+eyC2irQa0Npef34F69OhO03/8U3ruF7/mU+H72LQWuuorV9Derl3ol799ifbs209Vn/kMffTyK5Tf3EwduE5+x3x68IHJdNSRh0d8apV0rZhyOU1XrltSWkrFRQV8MDoX5+a2bduoZsFi+tFPfso2fNxG5MWi//vWzXTj175ChYWFuAZ9QnLq/075sWY6lXfK9xovFt/tZyd/nPLdtu9U36n9hoaGyHq/atWqtvVeforZnh+d8DU/SxhI75JMbOmFCxdaJSUlbTfWMGWR90VFRRb/FqfllB9rjVN5p/xYPPRnp/ad8mPtcSrvlB+LF7bPTvw45cfytXTpUkv6rt2P7dfS0lJ4f37vvfdim/f5c4vV0FAfeYSP3PxyUp9PWSf1PdPqw+/78A0wfU/+lNX/nPOtlStfTskuuQt73759B/3t378/4XMl5U7vRUuete4YOca67Ioh1uc/f6l13ue/YH2OX+VvEP+df/EXrS9/9RvWueddbB174iet4044xTr22FOsk04907p13J3Whf93q3XK9ddbvb9wuXX08ZzPfyeceDrfHX66ddElV1mDLrjcGvgxpuAN+vxl1nnnX25dec111qixd1nPLV1mbd+xPaF/4pP4EP0nx5yeldnCD2p/9udLrbPOHhThtXdf5vbkT1t9TjnL6nvqZ6xPfeZz/DzOn1pbt8lD3bMnOY0np/xYT53KO+V7jReL7/azkz9O+W7bd6rv1P78+fOt4uLihPOjE77mZw8Dge1Y1tTU0Ne+9jVX8nvRokWR3SABQeO5MixOZbR9aLw4Juf0ITR/PGnS9ddf74qzdPrz448/Trfccour9txU3r59O/30iVlUM/9ntGv3Ht634/94R01ujslrYWT+wPqIplTfTVdedSnn5idoroVeXLmSFi9+nnbu2BkpIxtzsvrI7mHVYZV0wfmDaMA5Z/MOR8dI/o6du2jy5O/TCy/8gZqatsoGaeu+YaT91rpygAVcpHzkHynDBQV3P58SLy8vos989hz622tv0Pp3PuDiFp9e7kAd8/IjN/nJzmTEl8jr/zA7MKS9gVjEO4aXfOECGjViGMl7SfsPtNC7775LK1bW8rWb/6Yd23dEjku7krgJOqn3ifSVrwymIw6vaj0Y8y8vH7xT+Tj95NEZrTumbIOcou+Q1yFiGwvPSHujR99OV19xaRsvMTBGfUSPN9Px0OSj/Q2bfWh/FS85A4EIy/V8LVbfvn2pmU89uUkFfLrtrbfeIt4RgOJVVla6Matd3bD5244Aww6YHo9U+nOQwlIE2/O/+g1NvHcKC6edEcEjIS4t7UWVFSX0xr/WRkQZ32NNP6ieSFdd+QUWbq2iMLYrLP/di/Sdu75HO5p3/y8rosJY6LGQYgj+/wCd9akzaOpD91NBQRHdfc/9tHTpr6iDxfmcRIjZQlBEpp1apDKnSL68FcXKIu3Tn+5DDz84kQoPKaI1f/w7PfiDx+itN//D7Yk47hx5jbQdEZWMHakoSK1YbR8ZsyNfj/mla6+mb4+4jXr26EmPPvkk/fTRmbRn917GYpEqdSL/8RvG60B8Op7fnjvwXJp8791Udsgh/OngJPZOZ2H5KAtLSdLGYYeWU9PWbSy+dxP/NpAYQgVFhTRv7mN04rHHHwxg2KdcGG+pUGqvR6avH6baJ5d2yHpeUVGRCt1axmAGAhGWM2fOpJtvvhlCy5w5c4hPoUHxvv71r0Nss0HC5q/tt6mv6HiIELzpppsg7qban4MUlhvq6+ibN99B77/33zaNVcSi8pabh9BLv19Fr/ztDdY9vEPJ4ufTZ51Be/bspi2bm+Qjp1apJe86depEH23cxF8wt8vHSJIisrMYEXO8S8cqinc+9/FOXz6dyeLysMMOpd8sf4Ex97KwlCotLLzy6ZCSQurJ13J26Mzt8q7i7l27aWtTM23dup349DPt57u9Reb16NWd7r1nFF16yXm807qXXl79F1qxYg0tXfJrnkf2t+4Mys4lt1dSUkyFLN7kmkoRmrvFj21b2ZdtfLnmft65FCGax48n6kw3fP06tuUAzZgx62M/ZXdROIj837bLmc9l5M5zEY9l5WXMQXeuF/Gay3egLl3y6aijj6LNm5ro76/+I1KuQ75F11xzGXXkHdtnf/4b/iLNkp13LcXPT3yyLz350x+x4O7Jx4Tbg5PYF52kXfmLTrJT62VCjzf0fI/GM339MNm+efPmuT7z42VfVuzUGAhEWI4cOZIeeeSR1Cx0KDV69OjIjuX06dMdSqaWPWrUKHr44YdTK5xiqbD5myItgRVDx0N28H74wx9C/JH+LELIaXy4EZZi746dO2kvfyFrlR151K1rV+rWrevHPlgkN4+88pe/0+bNW9qOHc2C55OfPJUefWwW76Y9yQKpdS+vY8c8uvarl9HFF32OJn3vAXrn3XrRg5HU+sJCUURPpLFWERXRNh9rHnkRkSb5LSw25bSvtZdt47ui5bS6xa9tiUVQBxatrYKphQ497BC64MJz6bOf7U+lVUfQLs7fyafmt21too/WNtC7r79Bq2pX03/XyuluouNOOIq+P2U8P0qoD21r3knLfvUSffBhHS2cu5h3TXcQP2mIDjv8UBrIO4pnnf0ZKjuqinoW9aQ8Pi2/f8cuanh3Lb388h/pd8tf5JuGtkXEIOvEiLjdz3yK4OsgglgOspRt4VYP8I5jhKsD+ymfT5XLSfY8EZcRpzpwHfHnY3kpwo+PR/KiBOAFF36Wbv2/G7hfzOIbHdcwJ1KhFWHMt4fxZUXX0iuvvEZr1677uHYeC+3u9LlzB7Td5LObb3Ba+Ydavnv/Q8Zn4csle/ToQZdddiH16N4jYo0X/6DHWyrjI1U/smH9GDFiBJm8viHtk+c/op41nWof0HJ4BrJeWIoQlIkGNfBkEpw2bRqUaeTEmg3+QsnzAAwdDzER1WckviL8vBSWb775Jj3605m00RaNLFBOO+0UuukbX+dTs6W0e/dOmleziOYu+Blt/3g3keUP77CV09dZwDzyyE/4tOx2PiLyhOioY8po1oxH6L1336OJ35tKGxrkusdWgSTiJW4STRSVaXVkpKOOoh7HHMkiriPt276LdtdvoP0frKW8XXy6PQIi1xmyCOvQMVK1orKQho+8hQacfx69sWsT/Xbdh7T2Xd4BXbeN8jvz7mSnznTsEYdQObdT++zz9KffvUSfPvsT9IPvT6Bjjz6cNm5ppqcXL6ftjP/03KdpK/Nx2ukn0zf+72baW3U4/XP7Rtqybzv1KODdzk77qDOr3N7dyuj0zkfQqytfofvv+wHt28viN68jMyGCUbQei20Wlgc68afKQ6nn8cdQ94pi3kntRDvrN9PmP71KXbdtilzPKRzJTqxlifDkugLw8UPcGbCNH9Gop37yJJpcfWcE/1tDv00bGEvKiDw86pjD6EtDrqGfPbOU6jc0tGpaVqpdunamy/nRRN8ZOzISj6W//CWfpp9FH320kbFlRzWPOnfpTBdeNIi+y2V69fDm7n3keEv1i1eku6TwjwrLFEhyKKLC0oGgEGYHIiyfeuop+uY3vwmhe+7cuZEdSySe25uKYh0Lm7+x/pv2GR0PEYI33ngjxM1U+3OmO5YfbdnIAvI23lX8b0RsiGgRgSOP2PnylwezCLmNnnnueZoy5WHat2dfRLyIYxHRxK9SLrLTKVtscpwfOD6l+jt0xRcvoWXP/4p+MOVR3uXcFakg2kikj8Vl8lh4yW5gF36O5H6G3bObBVlESbVKxgPdu1HhoAHU49AS6sQ7p/l8Snvbuu20s/Ej2vqnldSpeVdkV09OF+fxrqSIopu+9SW6+dah9OyGf9Bft37Ip71b6MNXN9Hm/2zmU9Us9fbLKfUO1L2kC1WdeSS9t+w3dCrjPsDCUq5Z3MSntJ+YvZR2799Nv3nul9Sho0U3TrybXnynjta+t4EO8E5pr8O606GnFlN3frJQXv5W9mcHlXcupRuPvJCWzf45/eRHT/Fpc85jcSlOR04zd+9ERRf2p6ITTqL8LuxzQRe2ma8U3bOf3li4kjr86x98ww1X4v+tvE58qp13NnmnU/JbeCdSTrszO7x9+/G+Yt4BquDnVz700F10Gu+0zp29hK83fZyzWcQKyYyTz2JcLskQkjpwPGVXVKSunOa+6urL6dJLL6LvfGcSfcSPdxNBauXLbrPkt5a5+qor6HvjR0cuTxA/kAk53uRUqZy6Rs33XuC5vYkvlns0fybbJzdBXnedXFaiKZsZCERYbt26lXr37k3yTCs3SS7yfeeddyI7lki8nj17ujGrXd2w+duOAMMOoOMh7p1wwglUX88PsnaR0unPmQjLffv20le++k1644032UrZg2QJwSIkkkRssEr5wQ/u5R3Jx2j9hxu4BAsMESlyajpyOlpO2/L7j3WHiLsTe1fRz372OHXp1IUfKv4M/XDabD7NvqcVkst17daZ+pxyPF182UXUl0VRIV8L2JElT+OHjXw95kr6Pf/izYYNH9FebrvzqSdR2WnHUQvv2jW9vZb2bGyiA7t3U159I+Xv43PijCdCSe4w79GLf3ZxySx6o8M2+v1Hr9Ou5n300fvbaeP7fIPLR/to385WkSennPP4GkW5lHH/ribqY+2nh+/7Dh3OP+tYV7+RHvjhPBZxLbTqpRepc58+tKf7oTyf8Clrvm6T9R31rOxBXYtEwO2hrh33EWdTx4J9dGzBsTTsmKvpyi9cyddcbo/YJAYKmy1cj6oOobwuXalzURF1Y7Hcla8B3bb2Q9pW+1fqxgQec+zhdNHF59E5nzuHSg4pp50cm3V1dfTyH/9Ma154mRrXNtJ+uRyA/5PrAXr06EbTfvg96n/26bT2gw9pxPB7+O7z9W2XHEQIl3+4bEeOVwv7IKfiRZp252d5fmnI1TR7zvyI8G0VlKIvWwMp8T2WL3N48IF7qM9JJwmIIMESarxVVVWR7LbLGSrEfO8Vnqnrh+1v2OyDdWQFSpmBQISlWMfPqYw8CD1lS+MUXLZsGV8fdFkkB40XpzlXh9D2ofFcOZeFldH8yUP+5UG/blI6/TkTYfkOn6q+/Movi4KMmCkv3Vh07OY7u0WhyK5Z//6fodVr/syiQ2QHF8jbTyeeeDS989b7XE9O28reI+exqOT/6dvf/gbvHn2FS3agmTMX8sPIa2jvbt6S5MweJT3pqiGX0qAvXkwr/76W3v2gkW9d2U1H800x/fscRX2OrqD333mPZj65kFat+htZvBtKBd3I4mskO/Cjh1qvy2wVvnLrjdy1Hblbm4XbSX2Opumzf0xPvvN7Wruxgd779T+o4S8f0N4D/Ms5pXxTTPFhLChlp5DFaMcDvAPKwnJnE1Wxn4+Mv51O4FPu/123gaofmkm8sUl/ermW9hx6GHUsOp46du3IwpJv4OnKIq3rftqxfgPt/aCBOvBjjgpPKKNDzzuSehzZjUaceRM9ftdUWlP7F/afbed/Wy8B4FPhwlGr6bS/M4thvsGnA99QJGfIB37u03TT0BuooLSS3m/4iN7+73pat4VvbuJYVB1TSd15d3PF4l/Tay+toRa+SUlwOzHGww99h87jXd2dbMfjP51Hc+f9nPhMvCjESBLJzRqRRethVFfXSLt28UPjOV4deDeziq8bXfvB+o9jn0dFZb14R3o/7eTrTCWWRcWF9N07R9EVl3+hFQz8L2K8LV++nC644IKIZabjgemDrJfR/IXNPrS/ipecgcCEpZhVXV1Nd911V3ILE+TKNZV33HHHQblovIPAAR/Q9qHxAC5mFQSaPz/xMhGWzz63jMZ/776I4GH9wTtv3ajv6afSa3/4I+9w8QEWKJ35WsD/3dTDOq+kG33rluvpoe8/xiKF72n+eIdTxEhhcXcWOJP5+sy+ERH4xJPz+fmLC2gvq51OjHPZV75A5131RZrx8mp6fcUbtHN9HeXv3kpd+Jx475OOoisvH0QDP316RDzd9b0H6ZU//43lmQhWFkMsrg45pJCOPuYovqmoe2RXkB8Kz4832sW6OI8GntePbr9vDP3wT4vojV/9hRp+9yZ14K1Ci6/BtHhXc3/ZIVTQ+5MRUSmOdejYwqfGd1A3FlIP3nYDncG7ox982ED3PvAkl8+jv676I+0/4ijqXHxU5DR8fhf+BZ7O+2jHB/+lFr4JqBPfic3NMj7/ms9JxXTklSfQWSf1o/cWvkIv//IFFnQs3qrKI/b27Nkjcm3qf95+l6+FbGQhzjccRYRxPn3i9GPp3nvvom17LfrT62/TGr6ZZt17H9AO3pndxTdQ9ex9DJ1ywafoqB5l9MKsp2nzX/jOcG44n2+Q+sEPxtAlvMu5h8u+8OIKeuCBGdS4qblVgHP4JKayO3vttV/kLwJr6S9/ee3jLwKtO72yEyxJng/a++xTaW/zHnr3n8wb+y+/enbLLTfSbbfeHHkfKQj+x8/x4WS6rh9ODKWfj45v+hZoDVMYCFRYCglyN63csJBOkg48bty4uFXQeHEbcXEQbR8az4VrWVkVzZ9feJkIy4n3TI7c4CEP+ZadvENO7U19+XFAK2bURK7XE2Epu2wfb2hGdgcvvLQfXX/dlfSNr40hObsq+pPVSkT8feKM3vw8yO/w71eX8+cO9OSMn/GOJQtL3gk7gu++Hjv5TnrmjX/TX15+lbb88W/UZQc/VkiEqcUijcVNX35UzuAhl9NAfvj5Br5T+VtDx0Z20AoKutPtd9xAF154EfXoKQ8eZ7HJu6nyaKJ5cxfSM0uepzPOOo1uZWF5/8If83WLq6jDZj5tzDfCsIKU4pHT29bRx1CvI0/g+ntZVIrlu2n/ls10343X0nn9+9L7H26h8ff9hIXWAXr7tX+SddRx1Ln0cIboGIE5sHcT7f7bm9SJ+ZKdQNkx5bd853oeHTGkL5084Cx6b/GbtGHNGho27Jv8SKCrqHPXbty8+GjRrj076Le/f4kef3Q21fHp/o4dO9OPfnwfHXLY4fRbPiX+q2d/QR+tW8eAjMvER3jn0+dllw2gQ884mTa9vYX+O7eGuu5joc1ufX/Kt+kLF3+emrdvo/+8/TZ/MX+M3ny7tT6bFfFb1O99946guvWb6fHH53Fc7ZuoRBVLGRGpLHCvPJ+2f7Sd3lrJ3Mmpe8784uWX0PjvjuG7yOWnKr1Jfo2PZNbr+pGMHXd56Pi6s0ZrB8VA4MJSHP/+97+fUCjGEiOPIpBHEiRLaLxkbWWSh7YPjZeJT9lcB82fH3jpCUuLT5/uoKG3jqK//e01FmCsJFhgVHz+HKo88UT620+e4EvzWk/j/i+OLGZYLN5bfTudefrp9NWvDOPf5d7BAogFCp9O5i04uvTyc+nO0TfRIaUlEaFYU/MLvjt+Du3gU779LzuXLrzhyzTnpZX0758tp46bNlEpnwI/4fgjaVvTDnr//Q/4RpUDdMEln6MvXnZ+BOOBKT/iZ0J2oLHfHc43VB9G/1lbT/Ufbab9/LzJjh33U6E8p5LV1/2THqJd+3bQ92c9Qnc/+gC9/yu+GWb3ARZIcqpedi0jWo32de9MPU87gzp26xR5FmYL3/Sxo6GeRl5zBX31yoH02j/+Q2Mn/oh3aVtoI++mthzFp8ELK6gj71bKDue2f/yDuvIvDOXzVaGyi9oifosiZ/3a89OHUr8bvkB/mfEy9WIbx4wbSR269qLGLZu4cb4mkh/fcwyffj6SdzEbNtTTj/i61TVr/kqPzXiIT3830TJ+HuXfXv4TderK1zcedySL2070Xz4lvnsnC+DjKqnqws9wKHrSe0v42s8N69mmPJr6wDj+FaJz+SalLbRl00d0/5Sf0po/v86+cdFISNhxFslPP/0orX2/ju6++0F+3qc8Akns5jxOco1qfqeudPLXrqJNGxppPd8p34GvBeAS9OnPnE7V936PDj+8KlLWq3/8GB+JbNf1IxEzuOPo+OIsUyS/GDBCWIqzd955Jz344INJ/Z48eTKNHz8+aRk7E41n46Je0fah8VB+ZgsOmj+v8dIVlv9du5ZGjBzHd4O/zyFhkdS5I5Vecj6VH3McvfnYE9TC1+3J3e2y2yfXVoqQ6szPlJw7/0E6tKKcbr1lPP373+9FTstGhCXnf/W6S+hr13+Rf3GniHcWe9LSX7xI1VOepM3bdlD/ay+hYwd8gl74w59p3dO/pkK+fnDot27knzK8gncP99OjP55NzyxexqfTe7Lg/Ro1807iR3y94XXXDaF8PiX8+ptr6bV//pvW840qWzdtZosO8GN/ekV+qWY1n7pv3FhP4x+aRHOee4bWrvgn7yq22ix3VfP/4kbkoegtRx1BPQ8/goUX36LDW667Nm2ka/p9mq65+Bya/dQS+vNrb1LL3r20hcVahyOP5VPhpSzyiHY18mn7tSzoeKtSTnMLJ/KMSjkVLiKt4xE96aK7r6Xl4xdQMV/D+LkLPsunpXdSHZ9eP8C3vfdkW6uOPIJ/5ecUOuu0PtSJcR77yZPUiX+dp+rYY+nZmudo/ftr6aZbv0w3ffP6yE7ojBkL2KbnyCruRiUDT6eufFPPh6v+Q9Zrf6XuPbvy2Z276Zyzz2SBv5kFIwtrPo3/+5de4Q1guR5WdpH50oWibrR8+dP0j9f+zV/WH6BNm7a2xlWiLgVYWHbs3JVOuf0GWvefdbTxd7+njiI++b8jjzycpj1UTX37yA083iavx0c863X9iMeKN8fQ8fXGSkX1igFjhKU4KNdbymmKeGnixIk0adKkeFkJj6HxEjaUYQbaPjRehm5lbTU0f17ipScsif78yl/prgn38U0dfOc6K6d9LPR69RtIlX2PpbpFS2jHOtlB/J+wFGVWVlZITy94mHrxTuHEu39Mv/7NysjOltxUI3cSf/MbV9A1V5/Pp057UFFRCdWufpXbeITqGpvohGvOpSPOOI7++ee36KPnfs+7laX0rWF8bSOf4u3Gz05cxzfDjP9uNZ8u3k3nnnc2deZrKm++6at8DWc+/fM/79Pzv/gtvf36m7wzt5X2sRAVTSSpC4tO2YATW086vQ/VN22mpv/W8yaiCMDWXVcRlrJL16Nndyo84jBay4826sKC0Tqwl/bwEyn6lB9C3fiXc045+VT6DQurTfwInj2M2ZEfht6VRfIefp7l6fwMyrf++ho/toh/Bz0iLFsxD3Ab4jt160B9LjuDXv/ZKurB14B271FATXwXe+RXcSIyTe6I70Z9+FrOy6++hM46ow/14FPsDz/yJOXzbmbt71bRrh3baOnzs9nOXrSVH87+wQd1NJLv9m7p0ZlKBn2Sb0AqoY9er6O9a1ZRZVUFTXt4Ip3W9wTauPEj/hWgHfSTn9TQr3+7JvLsS2aElaNFnznnVJrx+MP06qv/pAkTfsgPTN/AXPCvBEnMRBTLjmVBDzpjzB305pp/07aVLCz5uaUS2O58Gv9H0x+gfv3OaiXb43+9HB+xpuv6EcuI95/R8fXeYm0BxYBRwlKcuu222/hXPR49yD+5njKR4DyoYJwPaLw4Tbg6hLYPjefKuSysjObPK7x0heVLK//AN408QB/x7p88VmhvYRl1P+UzdPiZx9D2VWuoftXqyE6cCDIRaPyBb7A5kp544h5+RFAR/1ThYvrRj2o+Figs4lij3HjDF+mySz/Lj8LpziK0jH/dpoGGD7+f3mPReOgFZ9Ax/U/iXbl6Wjv3eerWuQudd+G5fFfvuXy6uwv97oUX6fnnXoz8dGJFZQlN4p9ZFIzX3nyfFsxdRG/yL+bIcxo78ON6OlVV0q76TbSfdwMjD0hn+w/lxwUR/+52PYvYPBajkSc/iqBkgSXCU+y/+kts3+X8gPDq6fTfrTupc6+u/OD1nbSfHwt1Xr8z6ccP/YAefOhRmsuP4eGfHqJORx/K+B3o2F496aH77or8hvial1/mY0KNiFaWb3yTi6T9+/ewEOO7x/nO891y5zY/j5IfN0n7+CabzsceEbmLe/dba6kTX0968idOpiF8neqpJx1PDfxzmN+vfoRPj2/l52QeoCFf/yL152tM8zt2otqVtbSo5peUV9yDyi76FCvTnrTx9Q9o9+o/800/p/IzQr9DlWUltIV3LHfzDTyP8930v/xNLW/GynNCOTEv3/3uLfyTeFfSv/71Fk2a+GP6D9/NbzFPLS1stwhkLtPlhKPprGE3099ffI02177ID2xvktqR9CA/buqSiy+I+Gsf8/LVq/ERbbOuH9Fs+PseHV9/rdfWMmXAOGEpjtxyyy305JNPRnyaMGEC3XfffZn6F6mHxnNlTJzKaPvQeHFMzulDaP68wPvUpz4VGSepBuL5X/6apnz/Yf6ta76LmJXSHr5JpfsJp9PRnz6WetVtoL/OXxC50UPw5LE1rCz4d75P4RtGRrDgK6cXXljDZxSm0fbt/FxJ/k/uLL7h61fQRReeTb34LuhD+C7sFv4FmZv4BpxX//E+dT3laDr+4k9RN77R5S+PLaUW3gWUncoj+HTrLhZF6z5cz7uMnakTC6rLrxhEN3/renrjrffoxRfX0PJlv4uIJf4BbOp25imULzfw8E8hbv7dSurOeGNG307XXncNbeSbWJ5d+ht66iezaEsD/5oN2yTqTy457MJCcTE/57LPSSfSCy/V0o9m1dArb71LB/hu7GMPKaD5T/wwcgr/tX++wTun99F7/IzJAv55yM9/9mz6xle/RKefdiLNW7CM7p1QzVQIYquwlF2/jvyQ92uvH0KjR9/Bj/vZRbN/9gwtnPkMbdvID1Dn6yXLz/okP2qpB63n3x+3+PpLuVnmoksvpM99vh+VlxTQksXP02/4pyTlEUp5rEaPY8Epv1O+9r21EeHe/cQqOuyS/iweW/jGoFdpL//2+iWXXkATJ4yInJrfuHEj/2TlNr5M4ef8u+myY9lqX3fe6fzZ04/R0UeV0j//+Q+qnjyTL1/4L7cjSlueaclx5bvGT7ziIqoYcC7/etA/adMf11CXjesiXybkS8WUyd/jm3gu9U1YsmHGz/fo8Ss+I5Pah2RTsRAMGCksxTG5QUd2CVC/G4rGQ5AfjYG2D40XbWsY3qP5Q+P98Y9/pLPPPjvlUPz850vpgQen0dYdIgw70J6Ko6j78adSxYkVdP7xFfSz6odp+5atrYKCdYiMvbPP+STdfde36NCyUhZe62j8XdMjQkUalfyvXPuFyCODurJgLOFTyEXF5TTh7gf4mXsvksU/Y3jExWfToUeX0WbeuXv3uZf4Ok4+rSx3/UTqy4O88+mkk4+jMXfeSs387Mu33/mAliz8BX24ro4fLs53ZvPvWHc67gjqVllBB/gh5Nv4+Zpf+vJV/BSJ/yN+dDotqP0lvfOPt6nhzc30+u9XUBf+9R4RvXv41O6tt93Ez2W8jcXuAWrmaz7feX8DXXbNjXSAb6/+yleupOE3XEN/e+MdFrYd6YXf/J6e+/mv6Hh+BNIzz8ylYn6I+1bexdvYtJ1G3z6eXn/1X3wzTwfqxddNNvNvqJ/6idPo+w9Oom78uKUPm7bQCv6Zxv/wY4HW/PplvtW+iMo/e2ZEqG1Z+Wfqsr+F9uzcTsX8nMgbb72eH8x+KG1s3ESLFzxH777zLt94I6KvE/+x7GPB35l/pee4wQMpj3dpN61vorVLllNX/o3yb936dRp2y3WR30Bv5FP38ozKOTU/5wfM86OiIjcV5dHpfJf+jx+p5l832k9/f/VVemTaQnrz3+9Hdn45YBw05p5/eejz/BzPLQe60ZuvvEVbX/8Hda5/nzc7+cmbbMrke+7iX+phYck3LPmZ0OPDdDw0t2h/w2Yf2t+w4xkrLMMeGPVfGUAysOTnz/HNcQ/Ttubd/NxG/lnGQ4+l7secTF359PBtXz2Xlv1oBr2++i+tTfIpaFYWdManTqFxd95Ah5aX8C5dF7r//ifo+WUv8gaZXK+Xx7to59K1Qy4mEZbFRcVUWl5Bf3j5z/yooLvlAkPqydcVlrJwrOIdtI/+/iZ9wDea7NnczG208E8H8iNv+BTxVfy4oeJDivl3u/kXdH77B1qz4o9UwL99fciZp1ILi82Nb71D21gY5vFOacv/s/cd8FGV6ddnMum9914IhNB7VaSK2BB7Y0HddW3g2suqu+rqYu/Con+7ix0VlV5C6D2V9N7bJJnJTKZ857kx3yI/IQlcJEAupM2989633Dtz5jzPOQ/zIxf++WYMnjgeX+9NZQ7mPpTnlsM7qB+KVv+M2ayLHUCF+ooV3ykG5ElD4jCM1X527TqAjz/9BtuYA2qjUfkFVKLPv2I6tnK84TH9sHndJmxcvZ7g0YYb/nQN/nTDFShjze3aJgMB4DfIOJROW6RLKYzxwRsvv42J543Fwtvn4+0VP8NAtX0p2dJBIxOx4zMysww3OxJcejOcPpRjcPHzQgkBbNrWnRhJ1fXcqy5VwG9RYQmZWeaRZucQhBLEcT7dAn0QRwbYLSkCtToDSrdnoIlzFhjoh2eefhATWee8pqaaJTOpCqeh+nsffI0dO6gKJyIUL8oFf5qHO2l71NhUgQO0T3rn7W+Qk8PcWc64rJcAS/sQP1z6z4exe1cugWstGjPS4ViUTWBJppfipKfpsTn3NABLNa/1vrb6ZqBvBk7vDPQBy9M7/31n75uBP2QGvvr2Gxpqk5WkKbaFCZLtofFwjRoAOwd73HbLTJRuTcF3S+lnaWKiIJkrwZaJFPY8fN98RIYHwYes5VdfraHlzX9YstGkAJVRY4bitgVzCSo9FHsd/6BghRSbOfMqlmtlyN3LneByBPM4ExgCJpvY1IK2QqqtKVQZOXIEBg5IoOE5mUi9HjkM2X750Qqas1sw6s/z4BMWQEVzMxqrG1CVuhctuSXslg0DBidi4R134dF/v4LG+gp4DxxJ4VEZ2jL24m/3341LGDL+818eQDbZz1EEYn9/9G4ltL+JgLe0tJJK7TDFAmjld6uQn1eEqNgo2iZdDBP7UFBQgOTBAxEXH4xd2/fj+ZfeoMDGhHnXzsNfFt5I5XgzbrxiAU3jPbH48UX45MdUHNybBn+WrHSlyr4hdRtN2m0Euv4YOvt8hCVGQsu5bq7RYQuZ2Lryctyw4Fr0HzRQYSoNNHuXcxaRDXbwdodnQhiqOPflDc1o5bhrWHlHQxZ50JAkLF/6ItsyU7hTyxKYZfzZgPc++g6Z6fkEpnbwD/TCM//8G0s+jmU5zhykp2Xi3aXfsf0K5UOCAiz5gSJ81nkYRbulTWt2oE1nRFNmNlyKsxUxlLC7fcDyD7kd+07SNwNn9QycdcBSwkRSXi81NVV5sZw4caJSak+EAbJJfXIpB5aSkqJUmBg3btxv9h+92mq3d3T7Z/vfR86fjHX8+PG/me/O/Ueux7x588jSiDjj1G9dnb+r/ae6h2qd/8tvVippJS3NBrSzOo2ZjKVzxEACRDvMu3o8Ai2t+PiFd1BfRtU4wZEEaAOCvfH0U/SU9PdDYGgAGhkaXrDwAZSX1HIvQQpLMt5993wEk5XzoshG1OOSj/mf5R/hxSXL2LY9yyt6YTCZRJcwX6qfnRHOkHCsnx+cmOvYRNatlaUbxefx8/98xvuVGIj5iCFzp8PFYIVvgI8iEnIi51ZAcFmWkY12VvVJHJ6MK2+9DT/lVePgxq3Q7dwMe1MbgiKDsHDhlSxJmcawuDuumjsbX674EumsjT6ICnARDdXRZL2dtaYD2AdX+lxKXfNSAjU2C3eyjE26On414+qrrkIrq/Ts2L0bMczT9GdffvrvShqPVwuZC1fmUE6dz3PlNbM2OUPT6bQ8ajfAl/M0ZNpE+EcF065JgwYyn60EpBkpZEtNRujJvF5x/dWIig7jeM08L+uaU1DTQjFQQX0d9hbUsKa5iR6ah6CpYtUenuyee27F7X++EVUVpQSUdaiuqWE+agG+JtCX/kCrweQpo7hWD7KqkYZsaxHSCCzfe+8HlJXWcD9D4EJYerhhNCvruAaHYl/qPrQ1tEOXkw23smyynqxM9Ctjefnls3n4qQmFd3U9d7X/6Putq+O72n90e31/n9wMdDXf8v4r789bt27t0fvvsd4fTrS9Y+GDrvp/crNz7jz7rAKWK1euxM0338w3wP+pHGUp/fgmsnTpUnq/GXHnnXcylFT/mxXu3D937tzfPK52e79p/Bz4o6v5M9E/UFSDR6+HN0HK8uXLGZL77XqoPWWff/75cc/fm/u3d+9exMTEdHtKBFgu+ffLaCZbKCbn7aEdwJLJjEgeFYnpo+LwzTsfIJchWxGDCGNpTxbu38/di4jQIPiSpfPnh7MXXlhKr8UvCRod4MDw+J1330zQFkfG0gWe9LIMDQ2jhZABV15xC5k4ghpiGgd3FwwcNRKR8TGKEbqbGJYTubY0tyA/6zC2ExzaOzhhwMghBF561hQvRjurwoQPjEdkUhw8fTwUAFxTWITcvemoLimFmZ6UGgcapltYcUcYVkIhO/4yiXW4x/DDYhtzSevI7jm7ONFsPVhRnLu4urIeuQZNfE4JhTL2BK9tRj1CaAgu15wDAZjU4a6rrUdZRRXaeH0G8ANOIysG1bEe+Y///YYYzkkBaVJyUuaIpXYoKLKHt683IvrFIJgg1N7DlTmQetTk5+PQOnkDtUPC4GT0G5KMnIOZqKI/5gha+sQksNKPM1XlZhMa9c0EjPXMZS1H+cEMtIvROtcpMDiAgpz/wI9+nxUElo2NTWQkK7Bnf5aSlqBraoWzmxPuvucmLCBgraIBfGUVxVh7DuEDqvEbmJsq/ZRqQm5kSpMvuxjlZU2oKRQbIhBYZsClNE9wJ4ElGcunHjllOZZq329qt9ftm6nvwN+dga7WQ5wM5P23oaHhN88/1vuv2u319vej30zKGf7HWQMshYUUputkthUrVihsmrTxySef0LbjhpNpjrle/2vvpBo6A5/c2+fv448/xo033nhSM3sq17er/vXUbkjqhD8nwFLXogBLc2A4nKIGEbw4w9PPA7NmD0EhAU3q+x9Bw8o5gjSEtbz99mswZmQSgZk/giiiqa1pxHXX34Eqhnc1rHIz57LpmDlznFIVx41K7AC/AAQRiH7y8Rf49/PvELiJByV15gwJe/n7wj8oiLmK7rTrMaOGdbSrShjiZvTdJywEEbHhcKT3Y15mDmpLyAxSje1OhtOXFWy8CbDcvFzJ5rWjmory0owchnJNSm6hLKL01dOLLOU1F7OSDS2U6N3YwDeyWgLCljodmu0tMDpbobeaUJxeillJoxE9tB8+JHtSnV2KsPFxNCF3gl2rFS4tGvi4esHHw1dhVexdaSvEMPLnLH1pZPha7Jj4nzyqRqmJHkSPyYh4iqHo1anj3LU0NaKe46phJR05MDQhGr6cO7OpHSYKcaoKShVQFxYZCR96agrj2EpPy6bqGlSxApCFoFmqi0vO50OP3IObCBgbG1glp6yMDGsb8llbPJWCoXVrU2nGbkVsYhjefeN55sL6o7yigsCxjLmu2/E5Kx6ZWVWHRRzpXekK/9nTEJo8FHm7szkOoxKOb87aD6eaUiXH0saFeOYfj+FUMJZdXc+yhl1tR95varfX1bn79h9/BtReD7XbUxsfHH82+vaeFcCygi+miYmJZGNEGHDim5eXF7KzGW5j6bekpCTV2gvim+m5tJWWlqoyf560m5H1CA4OVnX6zob+9RRYrvplDQUgS8gON8JGINPu4w/78GHMsXShHY4jhk6Ip/jGGWvf/AjmghzOdweynDB5OK67diYCCJqEvZOUkg8//IJtvUYmzJEgMgD33f8XKrytCKbIx8PDE1FRUQRCTSwp+Dw2btxJUEkPRaHHlI1Ah2BLMWNn6FWSMrVUamsp5nFgpR8BoBZWkjFS9WwhdBPrIwFyIh7Sst88HFaey0ARkuSDKq2K8ISekM7OjhgwJBHOQX7wjPJFFnMwtbVtWDB9Dn5K3wlbfy9aEmmR9vVOXH/F1dhTn0EGtAAtBXXoP28EPYqoyi4wYkhQHFZu3wQTWUktxTkOLQ6shx6GQyk7YWylkIh9kNxJSRnQkgnUUrzkwJKMQs9aCGjb26U2eQeTKuNxICtpI1iUzkp/bcIIM+4v8yAWSR3zIftFZiMiGgGtNowcTbPzpa+ybRtKBKgyDC4+pGJ6vn79dqQdOszn2uGexfPx51tuoNq8SjHAryJA/XntZqz+ZTubI0DlvNnHRSPq0kvYsD3KDuWxCpH0gyH4tJ1wbqjl8nSc+wX6WM6ePVPpk7JcKnxT+36TDyVqvD6fqtcXFabsjGpCrfU9Ve+/8lqjBj7ou166f1meFcBSwqa33HJL90d9nCM//PBDBVguXLjwOEd1f5e0d7LMWPfP1juOfO+995jrps78ffDBB7jppptUHZia18vp6l/PgKUNm2mA/vfHn6VBd7USGjV7eEMTNYw5jW6wtmsQ3i8U/cdEIPNgNko++xj2SplAO/jS8/Hxx/4Cb1ZrEeV3VHQUWch2/Gn+Yhyk1Q9xC0s13oB+9G8MYqUeCTd78QNBTEw0flmzHv946jW0Gcy49LILyS5aYKY4Rz64CRAUEKUl0JMvM5k3eUxAmQBLZaPSWZhC4i8CHwIuAjJiCm4ElFYBcRbFKLyVYE9yNTMzM+EV7I/hF0xGAHMsd2vKaPVjQOuuYjgGuyFiegLD+1pU7ClC2Z4qhI7rj9byFtTuz8CQv8xgVoAWJevSUbkjBzGzh8M51AXG/Bq4mRxRmlUDXX4lfEN86e85CJ4cZydzKRmpCi6TrgnqJBgWQCl2SlKbWzY5VpTbsr8TxCn7BGwqoJtAk4dqeczmzbtR31TPKj3/wOTxY9FY18FW1tY1MERfQ8ayFN+vXMea4c0IDfPDypUfwZnAXMLgNTW1OHw4F19+txpZ6cUdfXF2QMAlF8IncQgq0wvQxnC6lfNtbjPClLETjhRQyebA1Ic3X38BkyaOU/5W65va95tcP2q93p+K+1eteTtT2lFzfT/66CMlZU2t9ZX25HpZsGCBKtPZd710bxrPCmB59913syrI690bcRdHiR+YfCJ+9dVXuziye7vvvfdevPjii907+Cw5atGiRarN3+LFi/HSSy+pOjP33HMPXnvtNVXaPF396wmwlAova9dvUhjLarJZgtQsLI2I2MHQuvjSNFxMv50RMjSUPoost/jzarQdOkQvbZqCk2x88IFbERcXDk+Kc0Ip/BDPyh9/XM1KPq9RKd2KCApRbll4DS0cPZTSjR4UwQQGBjC/0RHPP/8qPv38Z+YAsiLMdZcrVXo6+LgO8CiMpDB28k/+S+BW2bhb2DjZZL9sCoAjgpNjhYUg1OS9aqHYRkfPyUZWpnkFB9PSED4sCS0uWniyko61uR2eei08wjzg4WcPJ7KidhY7NGbWoLKO1XwopgmKD4ddsKdy37e2UtBS2gybGy2ZtAZUHshj7qgrWmv1aMgsxlzWOn/04Tvh7uKmAMWOvivdU3oog5DuSl+JGOX7r5v89uvYlEf+N2ZCTRkkU1ttFDVsx8MPPcXUhAsUv05XgsKCgnyCxhrU0WaomKHyrIxCrFuTwtxKexaPuA+XkGFs4PjzCwtRS0ZT1O8ffPgV80JbOvoYH4moS+Yy/G1B3eEitLcaCSxtMOvrYMtPgyMBpmzePp547dXnMWok2VsVNzVfD+T1VF6fe/P9q+LUnRFNqbm+9913nwIE1Xr/lfbkennllVdUmctT8XqvSsd6WSNnBbCUF5uXX35ZlakVYGmhalStC1HaU8vkXZUB/gGNyM2n1vydCmCuJrCUF1W1rr3OpelO/7oLLIUME7D1wouvU9CxX3mRFcBmIzNmiUmA1iOc+EcAnD086HHoGe7DPEYyYz+sgh1BirBq06aPwZRpY1lOMAA+TBeJjY1hrl8znnvuLaz8bh35QzA3eQ6SaU/k5+uDAH9/5jt6Ipx5k3Vs4/HHl1Bsko4bbpyHGdMnMY9SxDsdIXEBZsJKClMnLJ/Qdhqq1mWTn8LuybHyUyNgkiyl/C7AUhhOE/MWW8hW6lm55o3X30M21dBXzb8R8cn9YSGAMpHNNBI46YWdM7dRVd6uMCLyd7uRbRHruZF9dHJiSoCwowx/m8mYitdnO0U5Roa6KzmG9C07yFiWYvbl03DzjZfDi0Il8eJUWEsCRhEOdfSZDSq/s68EiqK0FtxoVcYgQJOPKY8LvObGDij/OP7szHzWA38DQUHe/BDwGPonxqOSFkUiJCqvqKbNUBU9PfX4+utVqKfv5yVzpuCpJ//GvjuxnCZZWNaUWfT7AABAAElEQVSBryAjLdV2vlzBqj/sih3BfiDtlLRuwWitrEVTSRUsrJ0u7K+luRT2FXlwIMiUf04M6Ytf572L7lDso5QBqfBNTeDRByxVWBCVm1BzfdUGlvfff7/ymqfWa3QfsOzexXNWAEuhp+fPn9+9EXdxlCQNyycctdoTEct1113XxVnPrt1qr8f111+v6gS9//77qoVGTkWqQ3f6111gWc7w6F13P4CM9CzlA5NMpAIsCTpMzLN0ikomUJMHRSziBL8EsncOdqgjGDXs3QEt74Vghpdv/ctVzKH0h7ubO3ypoI5l6DuNbS5a9ASKCFZiY2Jw0YUMQdOWJyo6QlGJB/H4oOAQ1FTX0mPyKWSyZOP0mZOVvEkzP7zZFEaSHREmj2BMQKb0xe7XEHJnGFkYQMGcYoCj1ZgVICsf/gRwtrN/7QKSGNrdtJ4WYjzwokvmoKS4jCwfhTsEli20DTIwJC4qf3melSynnEjJ4JTTE9SxZaUKj5aqcXuymo40eHcl4HTw8IJrbDTamlqQt2kHYpgyMGRQIhlLF6rimR8qnWOfbQS5AnRlk/kl1CRA7Qj3K8CYjwu4FPZYxmghMDYrv0ttdq3iBbqdFmnV5RV4860XMHbMKNodNaGouAiVtY3MsaxEA0VIu3Ye4AeEvUhIjKLn5MMYMXyQkgteRCV9YXEJx9yAVT+uZ63wQtgx7O8xZTL9MQcrLGVjUQUthnRKGFwUU+1VucyvLFcYXLkEZBmcyDLPnjWD5SMfZM4qWW0Vtu5cz909jdqhTWnvZEWa3e372Xqcmusr75fi3rJgwQJVpuvTTz9VGFBxi1Fj67teujeLZwWwbGGOUEJCAior6cF3EpuIbHJzc5UW1GgvLCwMWVlZcCe7cS5taq+H2vPXxAoukswtwONkts7r5XT0r7vAcvW69bQEup+4jaBN8JPkMgoxSEBksXOE08gxBEWOBJMEOyYtyxSyPrdfMPPvWlG7bT3duosUJuvCiybRVqgfIsJZC5u+lqGhwbQgcqfy+Fs8/MgSVgp0wqTJozFyVDK8aA8UQwGPC8Pr0VHh8KJaO5eVZhYtepLsaS6BFQ3aCessYt2jIBrBeRYCHHJ47KN0U75IUSpqZVGz/LpL2SFsq5iCdzCvZA21jnycwK6dVYWYo+lAkGpHNlHLOL6Vx4q9kqA5MwGrwoAqJxEm0dJxLu63UUAErbCiysMd86WV/E5RhDOfk7mhVopg5HfJE1UEONKudFPyBRSYqnRPAarKXNOE0kogLApvJWQu3SAjygcJY+VEwmpaobXoYcf+uTG0vXTp85gwYSLfXPVUd5cqYpwymqHn5Jcxf7IJv6z8iX6cDrh78QL86cZrlP5LCLyQFkYVDJfXEIQufecTTitBLwFxyDTmjvIDQyuf25BXqXhkKmtvbIId/SsdDK3s9K/j+PWnAOHXXluC6VPPY/sd+5SBnuA3te63ztdT+XCgxv3b2Z7a9+8JTtMZ+7Tevr4ysX3v53/s5XVWAEuZMjFdvfLKK09q9r7//nvMmTNHaUON9lavXo3p06efVJ/O1CerMX9Hrofa86CG/cTp7F93geVPq9dg0b0PK0CJMAYegX7QN+pgMrJ6Dv9ZI2nlkzQQ7bTxkVxLidy6+oVD6+gBfXUZmnauhratBf36RePiORcgUGyHGBIX66HoqDCCMTOe/ddb+O8nKwkgvXDRRVMpKAlEWFgow+LeZDidqRIPY76lC3bs3IN//WspwWUWbNH9adTdnyypKMHZEwIuyfsTUY6NyuoO9lJAWEfoWHAYsZISmtdQSS1gSAhPjQBCG7+If5S2NCYakTfCTO9JyVmUJ1mJ8pT2BFET1Aq4tJg6zinsIX+DhqDRzoGsKdsWdpQHdgA/mAkiCYMtjnB09+K8iPr7V7DFH0rYnkCWXucEtmQo5TGeU4CdbNI9pSk5Dx+ysyd45S/2rpw6MsPteh1qdqTAz9SERYtvwZ9uvomsqoGeltUElRUEkw3IYNWhuroWlqTcheK8PMycNQnPMlTuxXSDBnryZuWwXjrrj5eV17B2eAoy0gpgpYVUwHkXwDkggqp1DRppcaQraeD8sqPso7m2DM5VhQpwd/ByE1yMdnqIyibA8vG/P4jrrr6Ch/46VmXPiX9T43478vVU7fZOfGR9z5QZUHs9ent7fat+/Bk4a4ClDPPZZ5/Fo48+evwRH2OvJIPfddddv9mrdnu/afwc+KO3z9+Z3L8eAcvFD3WAHWKEgbMnw96swb5fNpMlA4yOdnAdOhRaZ0+Cp47QrUbjAUePMDKBQGPefhgP7SBAdMGc2edj2ND+ileli6szYhjyltB3Y1MdBS1LsH7dNiT2j8fsiy5Q/B0FXPr6etGqyAshoSFkPrXYvmMvnmdVnp0M1TqGsFZ5EPM8aY7egV8IYwgYbUL3CZ75FYwpEWaCQgF+dgxVyz7Jx9RILiMpRhsZQBvHZGLeZ3P+dphq6I1pMnA/m5DjfgV5HY0S2BFFSfOUoyt3oYBLOZmAKAFVHQpugkMCXmEoxeDcQjshrbcvnAIS4egVxvPzuTzWahagSiZUgC+/kbglEJV+8b90QACw9EMZC4Pv9r8CTj7dYqpFc94eeLQ0YOFNl7HW9/UUCjkqJuglDIlXMLcyN68KJRW1KCwowP49BxAVHogXX/oHBib1pyLeSIV4HvIKGfZnNZ7Dhwvx88+blXxTDxqweycMZ1/sYGL7zeW1BLFtCrAVZteSlwlnsqI2ji2SlXbqsvLRSh9TpbMcymOPdwJLmRt1NrXvN7XbU2eU524raq9Hb2/v3F3prkd+VgFLGa6IRiTBtiebXMAPP/zw7z5F7fZ+9yRn8YO9ff7O1P51F1iuWrMG9yx6iNCK4IcgLGz6eIyYOBlb3/sMdQUl5OMYEvfzgXv/xA6wxCPFfsjelWUX3X0InNpQvWcTUFKAAQPiWVf7fHgw9zAkOBD+FOokDejPnEQbdu06QEP0N5nLmY3kYYMxefJEOJPdiyQjGhTkCx+G2EPIljo52yGHdbyf+9e7WLt5LxAUC7eY4URezjw/QRiBnITFZbOyRGK7QUeA603w6Uo20QJDQykshia4hSTBgSIgUm4KqBPw1lyWi/bD6zD30ovgHxZMCx5HMKuyIxxNZlVrdVK8Li20H/FmrmghGdkQfwJesqaNDfWsMBSGHOYq+njRj5NAurKsWKmoU0fBTAFzHH/+8ivYgvrDI+ECAjQR+kgfBTTSV7O+ElYjq+D4RrO/rPADPYFjE/vtTEDsqYxNS8NzrbOCYlkGshSG3D1wNdXjnrvm4/rr5tLSyYMWQg0ElNWoprVQbl4hCorrqfhuwaZ169knZzz6yF2YPuN8gl8HGqaXooCinfIKspUU7mxiDmhWVgEQHY7Yiy6G2ejI8zSihZV4xFdT2EoB44biXDjVVxM0A5G0TvK/8lrseetjsGC70k8B9I8//gCuu2Yerw5OrIqb2veb2u2pONRzsim116O3t3dOLnI3Bn3WAUsZ83PPPXdMoHj0nIhiW5Tbx9vUbu945zob9/X2+TsT+9ddYPkzQ+F3E1gyCEtQQQaO5Rdn3rKA7NRhpPz3SxioqAaVz5qoCLiy9KGWrKKomc0GCf0GEgg5kg1sRsWm1bBnRZnL5l7IsHgs/Olv6efjgwjaDyXER9N2qI6M5Ra8+soysmf1mDBxDP0eRxGjWBATG4HoiGACODsqxfmTbGcdgdNzz76Nb75dBaM7rYlip/HcngRsHcBLWLWmwhSCNgLfdiPcQ4cQSHox91PyBCthMWrhFT2JoWkRw5CTJAPYVJQJbXEqTcVfwWZbLrw1LgRpdbCjWKe2ZR/cHIOo5HaGvo4m6MP6Y/XGNbRKSmD5xUbs23AQDz94Jz7+YSU8yEz6BXli3eebkNQ/Adu25CnMqi51HawEwl5JswgWOWcSArdoYGwsp3VPCezd/NkXVjY3WdFSmUZxjz25UUfmrMbBPSiK4yMrSpq4pTwXxuzd8LAz4aVXHsS0qdPBqDj0XItyYSqp3i5gkYHsnGKKaTzw7RcrOV4jy4/eiHlXzaJPqD+klKOIdUp5fB7zK7NzCihe2oVmWzsZyKvh5O3H0LYJTcV57BPTA0RRz0RVU30NtKwPLvmiPqGBmHnfX7GL9c6zP/+aFXiKCNTlv4aM5QO4/hQAS3l9U/t+U7u9s/E1+I8ck9rr0dvb+yPn9kw511kJLGXyH3jgASxZsuS46/DMM8/gkUceOe4xnTvVbq+z3XPlZ2+fvzOtf90GlmvWElg+SFqNyIvA0sr8xwEEDMlBITj448/I3rhNEfVYWfLPLTmBgIlVYqxagjlhqtwILgPIupnJehWjce92+JBxu2UBQ7b0tJT8SV8/X8RSqBMWEojq6nIqktfi/fcIWNv0GDlmNBL6xSt2OGE0Fo+KCmEY3YdVbALJHDopauYPP/wan376NYob9NAGD4eTfzTsnVkDnADT3NYOB4JQm8UEY3M9XFj9R+tgQktFLtpYz9sj+nwFWApgtrSTI6xizeviFCx/91WsRxZ8bW4oL60lw2lFftUa1gMPoUJUi7ZqI4aNGYGN69YgKC6KJupNSN+UiVm3X4Y9a3bAg6H70IgApHzO0P7QOOzdVAjXyCFo2fEzrAEJcI+fBUdXIkGyq7K1VlKQZNXDLSiCwJEsIfvm4OYFRzc3joEHUPVt70wAbG5CS3E27BvyMKRfBO6/93aMHTeU0fyOGuUiJiurrEFuQTGK6EXZqDNg6+YUGMiYXsr81vnzr0BkdDQtk6AAyfzCAgL6Zj6nUqnEk19ZB//x4+HbL4n9Yb+qKrhujVx7hv4pTIJVh3aWy3TQG+HMHMzp86+DLaYfvnlrC8zlO+DcWKFcI7LyTzz5EK65cq4CMmWMam9q329qt6f2eM+19tRej97e3rm2vl2N96wFljJwybeUMPfvbU888QSefPLJ39t1zMfUbu+YJzpLd/T2+TuT+tddYJmSuh0Lbr2DV5SAIJZydGMY+6IZzNWLRSh/3/HVVyhn+FqxspR63LHRCiixWggujfYEmu5wIoi02QxoKshGa146BsZE0cB7CgL9POHsSlseWvMMH5zEEDKBXHkZQ7LbWSv8a1aP0WPQ4GQMGjII7h4utClyRSTV5IFBPkrupRfLP0pO47Ztu6gu/wEbUg+gyc4XjgRvzhQQ2WlpQs4wOw9i1wmMbEaGnAtpal4JR+9kAjdv7icTR8ZSLIQMZNw0RVuw7O1XsEGTBT+rO0qLqgjutMgu/Al+zPNsaWyHodqEwRNHYcfq9QhKjIHJ0IyMjek47y+zkblmL9xZ0zyYuYxbP9+KpOFx2L+lEC6xQ2DYvhqWwES4xZFhdO0I20v4vr21gQxlLlMC7OEeNoAgzkVhB+U2FlGQWd8CU2M+jLT3CXKy4LJLp+C6qy6hRVOUsiZS/lKUtUW0SMpnucaqWh0qqutxYPceNFDEI6HveVdciAFkT13pMCGpBEUlZagkEG0l+F63dhP2HsqGc+IA+A4YyvXyoj1SI4FlDcPxVL5z6W1WphWUFrLEZT0rDNljyjWXI2byZKxedwAFO8up/k+Fk54gVHpEoP7Ckn8yp3am0j/lwVPwTe37Te32TsGQz6km1V6P3t7eObW4XQz2rAaWMvY77rgDb7311m+mQfIpjwU4f3Pg7/yhdnu/c4qz+qHePn9nSv+6Cyxz8wuYFzlPkaYIsLRSsOI0Zhw8/EMxIDkRXnZm7PjiG1Rk5SgMnIYha9fwMIJKElwM89qsrFRj56qExC3GZrJx+TAVlGH4yAGYPXUsw7JezJt0ho+HK4YkxcPNxVmpa71+41Z8/c3PzAOsRWRsDMZPGEuVuDt8yIwGBVFZ7u9NoOkJL3piuro6MqewFmtXb8N7769AZgHLTnoFwimwv5KzKOIeDetlax3bYWpuIWvJW0Tjzv6JslqAp/zNEHNZIexKtuCdN1/GZjthLJlHmVtGcOWA7LxV8A0Pha7aAAND4f0nDMOBtakIGRAHM4U+6QRYk26bgaw1++HB/gUyTLz1v6lIHhGDA6klcIkZhLada8lYDoBrHMVJLjwl8yw7N4uJZRFtbbBnJSNx3OxQuLejrYZh7+ocOLU1YtrkEbjp+rkYMjSJFmSurIfehoaGRqUGeBW9PrOp/m5qNpL5rceeXfvR1qzDRXPOp7PEJOa39mMddndF+Z1JkU51dTXZVxO27zqI9RtTYfX3gXf/gaycFKIAQwNzRs1tpDaVyTHDVFkCbbXYsWkw+cqLMWz2DGzZX4i0zVmsyKOHJm8zjdI7cltlTP+3/C2MHTtKfj2lm9r3m9rtndLBnwONq70evb29c2BJuzXEsx5YyizcdtttWLZsmTIhjz32GMug/bNbk3Osg9Ru71jnOVsf7+3zdyb0b+TIkcp13dU10qJvxflTLmTYmbmUpK5sZKPM8QPg4h8GzxAfTBw7Ao4M0W764L8oSTtM9TOtcGLC4RIoymdp3cbqNWQutQxJM9xbn74XNjJwLixpOOX8MRg3aggcaSju4+0FLwpeRgxJhCtNtrOzD+MAbYW++HI1a4pnw8/PC+ddMAlhZCwlDB7BcLgfw7Fe7s58LAgengSKjMHWVjfgg4++wn+W/xetRlaIcaeJe9hwhpkTyFASyAlzKV/MAxVrIqtFBCnsJr+aSzqA5btvvIj1mnT4M5Sfn1FEVs8ehYXr4c8Sjw2lBtbKNiB+7GBkbtypAEsxNs9Yvx8Tbr4AmQSYnmRuA5kykLpiBwYOj8KhHcVwiR8IY+pGtPvTHD1+GlMEZGbkxLKRvfy1DwqgZJ8MBJSG4gNwpFI9MioID/ztVky9YCw83Fk6kvvraRNUXVsHHZXaZSUVKCutQoPOiHqWZty8cTMcyRjPvXImJp83hp6N8QSVnlR/FyPncDGBaC1MzDvNzSlUzNBbmDtpHxEI34HJBLQOZHXpTSl9I9i2IyDXV5ZBy5xNDdMLRrNm+9SrLseBgips+nEXleImgt8yuJakKxBUGGTZNq77nsb4wcrvp/qb2veb2u2d6vGf7e2rvR69vb2zfT27M75zAljKRIhARwnxUKyjxqZ2e2r06Uxqo7fPX2/v3/bt28koje1yyaUyzcJb78SOHbsJ3MR4RwODTxCcwhmypeIldGAEzp84GDWVVdi64hs0pFHYQa24NjqS1joEFswPZFyX5+HzaiuhT8+AH0FOk8EEZ3cPzJg9lWCyH8PRViq/veBLoDhiUH/FbqiMPoyZh/MJfjZh65bdBLUWjGHeZWJSIhXjdvBnKN3fy4MVfSiW8fWkAtsHYmMk/Soh2Fq+/BOsW7ddyTtsc/SEU8RwMpgxSt6lgF4JQwuwlFC5/N1CFbddSQreeX0JNpgPIkDrg7z0AujoWVmUuw2B8YGoLWlimNiAOKqhszbtRkj/WNKeQPravThvwQwc+mkPfMIZriew3LpiOwYOi0bajiK49BsIQ8oGAst+BJYMhbsRgHUgb2UNBFeKyMjYUIK20v1wMzUjJCiAbPFUXH/tHNZYD1SOMzC/sZaAUmp717EKTmZ2HivsUEFOIJmbV4oNGzYqQPuqKy7m+g5VhE+eHj5kfstwKCMLrS0UNTFsnpObiw2cmwaG0e0dWXqS7LJDfBwcfQP5OscByaA07TA3VsFaWMpKQs4YcME4TJ57Mdr44WHVT9tQl1dPcM4PDlk74GjUEYdyEjmX/Qf0x9crPlA8Q5VO/wHf1L7f1G7vD5iCs/oUaq9Hb2/vrF7MbgzunAGW3ZiLvkP6ZuCsmwGpqf3GG0vx5jv/URhB4aOsBBkIT4adqLAdNAgfEIPwxHA06RpRsHkr6vaSlWSYVRsaCld+0R9cnkUWrhya8hI8//TT+P6777GNnpRENZg8dRLGjxlGkY69YjHk4+GIpH79lFB3Fdm1QuYNrqdx9/r1W2jkXYuomEgks5Z3REQYQ8IuFNV4EniJ3yVzL3184ebuRkbUmSUSzcikfc7Pv2zA1pTdSCNb1+YWCufgRLiI8TfBqYhUhDsUU/VWMnN2VIW/88Zz2NC2H4EOfshLK4SeVGh+zk74xvihjibhBiqqY0cPxWECy2ACS8FTmWv3YMqfL8SB73fBNyKEwDIAW7/YikFD48lYFsG5XzJaU9bDEkCFd/yM/59jKcSgjf6fxqZqGMj6OenLMTw5DuefNxYX0yw+MjKU47DSc7INrTRtFzV8RUUNKmrqUFJaxn12tDrS4eD+TOTnFbFUYwIuu2wWhgzur1QtcnfzRH5hEYpLSmiWXotapgwU07cyJWUn22rEkCH9MemCidi4cS8OMKfSJUzmhevLDwdtLOfJ8lIE6y6InzYRSVMmAY5O2Jl6ELX0xzS1stZ6XRkcSqim5/oy2UA+P1Advxjzb7xOJrZv65uBvhnom4Eez0AfsOzxlPU9oW8GzqwZSN22E4vve4TG2x3iDDHFNvmGws4vhuyWA+xpMeQT7Q9P5ldKuby6zCzU7d4GC8O1Gl+KaaggF8BhpiDEUlLMHMYXCBzj8cbby/DlFz8QXLpg9LiRGDZyML0WnRAc4K34QMZGRiCC9kJS4jMnNx979h7CVvZFPC8d6DGZEJeAwUMGKipx8mbwokgonExhREQQf3eBC0VBLq5uBI0aAqtisnk78cln3+NwaR20If3hGTuM6nFW7mHfhLnUV5OxLNpBYPkvAst9BJa+yD1AsQ/HeJiMpTfHWF9Sj1aGiuMJhDM37EJoUgewTF+9E1P/OgcHvtulMJZBkUFI/YJ2Q4MTkLaLofB+g9C6db2iCneTUDiL1YgwR6rtNJdko70sE3GBblg4/zJMPn8sS18Gw4H5rM2s920w6NHMmuVVBH6lxTUKuG6lfVAj/SlzDhchL6+YF5S9Uvd71uzzKdKJQ1RkJMGoCVlciyoKeJqZb6nTNSMz4zB2M/9Sfp80eRzuvfcuxWvz1tsW42BVHdyiIrlUrOhTWwNrfSOV9L4YcekMBA9mdSWay6dty0D5oRKGzFna09IGa1EWHFuaOIcigrJDGPv9+afvs2xnwJl1kff1tm8G+mag18zAaQeWkoQu5f9SUlJY4UKLcePGYd68eQgM7AgddbW/18xkNzvS1Xi62n/0abo6vqv9p7q9o9vvbX93zk9qKgUQZJYmTpyolAYNYNlC2cQCRsqLHXl9SunQzv1Hj6er9jr3H9nekdf78dqTfeNpJ3O88x/9fPm7hiDjiX/8i2HlzQQdBEPMvTNTAWMLZ9UbNxknDdGdNQQhXnAPIeAkADG11KMyZSOMrOxiIYqy53ywSjYsrDk9i8Dp7deeRStzLV97czneeO0/ZCtdEJ0Yh4kXTGYI2A/+nqw57sxQO38f0J+hcYatc/PzsXPXXmQx/Lt2zWbUsi0XlnqMpbhnwsTR8KMau81ooI2RI5IHJFDg48FSkK4U+HixjrYL2ikuyWFe4WN/fwG7dqcBURPgHT+ErCtzLRVVOHMsi3bi3Tf/hY3GA/Bz8EbOPvo4st53ZpEwkf4KY6mvacaA8aNxYHUqwgbF0YnJikOrdmDq7XOwf+UeeDNfMTgyGNv/uxEDBscjcw/LH/YfDD2BpZmhcLf4C6i8lkpAGjTlH4SJRueXXzgeDzx4B8KC/WkLakd2spXlFhvQZjDQvLyK9kEVzKtshsHYjqbGJjKU6Sgg8yjVc/ol9iNInEg/0CjWWh+mGMlXV9XiUGYmxTrlaOcxZpq6Z2RkM6WAgJ8s7eQLeL77FiMuNhbrN2zAwtvuI5vqR2N7Jn+yDKQ9GVxPCn4ip02DH8GijtZFpYfyUJ9Xw/Vm/XKWlmyrLIYDzdPtpeIS0xQkfL6YFki3LLgZWiWczodU3jqvf7nfZDv6eu7p/aZy9xRRlLwfqdW/zvHK/W5He6reOt7j9U/mY+vWrf///bmnrz8ns0bdmb/O/tnb2yvpQX9k/05mbGfzc08rsPz8888V1bYksh+5eVMpunz5cphMpuPunzt37pFP6/W/qz3e3t5eb1+QlStX4uabb/7/TF5nf/38/LB06VIYySrdeeeditCic5/87Nx/9PXXVXs9vZ6P196uXbsQExNzZLeO87sNv6xeh6efeYFvnLWCIwm2bDAyJO5AtTPsSL8xEMriNjTxdoF7cBjDqS78AuqyD6KSbypEStznCC1fvL209nh36fMYT+GPhQDm+1Vr8PQTS2h/U4MAAtMps6cTUPpTzOMGb9YPD/T1YO3wQNYZD+BcNlL9nIN05nL+8vMGFFGQ0tZmZg6gI/on9cPAgRQWubBCjpMTC8gEIJKMZwAr9ijiIL4uOFAoJOHgv9z6ELall8IpcTJcGRYX43F9ZQHsSndgGRnLrciAh80D2RQOOWickVG0F75RgagpqiOzqUMSDdx3/7AR0cP7K7mfB37YhvNvnY0DP+2meMefwDIIu77cgX5DYwhOK+GUMBD61A2sUsQcy35TWfJSQxEQgeHB9bhk1ng89vDdrEYUTI/JFo6xDlWV1dC1GJCZmYe6xgYYaftjbrdi9850ZB/OgZmMoTOB95DhgzFj2nlIHjQQEZFRcKew6eCBg1TJ1zAXs5b5lKycQ0uhw+lZ2LP7AJwcHTDj0pm49+5bEBYYgrb2Niy85X5s2ryLyn0n2DE9wMGDinv6dAYMHsQ149qaDSjZmUNPS+ZRcu3tCKTNrXzNpXm6AwErtf/KtZOcnITn//UkwWp3r6vjXHK/s+t41/OJ3G+/c4qTekjt/h3r9bnz9aOnry8nNbjfeXJX/ZP0DXn9a2ho+M2zO/t/9Ovfbw5S4Y/e3j8VhnjWNnHagOXHH3+MG2+88aQmdsWKFQp7c1KN/EFPVnu8vb29P2haT/g0wkIKU3gy25HXn9rtffLJJ7jhhhuO2b3u2g11NmBoM+DNt5Zh2X8+EAxJMCU/qBCn7Y1DTAIRpRfBGY20mW9oT5Dn6Mm62AQoYlBupFik/vAhNOVkwFpXB8IXXHzZDDzx2CKKbvyZnQds2UKbn7few+7dBwFWtxk2ZiQGEqgEkYX09fGGG0s5ShQilIprEdHl5Rbg4KFMbNm8Hen00TSSyQvw94KR/QwgQOtPljOEYDSEYfUo5jwGBfoTpHqQ1fQnCHVAcXElrrvhHhQafeARN4b9dFSMyrU0+l76+nPY45QP13YX5Byk1Y+dMw6V7Yc/wWJVYRV0pQ0YzDBy6rdrETcmibWBzDj4fSom/Wk2Dq1mRZwAL1aaDMC+L/cjjsAy/2A1GctBaF63lj6WsQSWM5g+wJSB/asQ522Pl154FKNHDCZYNBO4V5EhrkZ2VhFKWJ9bR3uk+vom5kWWoJrstxuN0wuLCYjJ1I4cmYTzCHAHDR7MsQeQVWxBXn4un6ODnkxnu8mM8rJKpG7djaKCQto2ReOGm+fhSnpa+rh7kbm0Yi2rHd15x2Mwck7tAwPgHhcNr7iBcPJiOU5TO0titlAlXs3SjgalVKeGTKWZvptWluh05FzbccHJYSus8KJFt2Pe3EvhwPQCtbeurufunO/I+607x/fkGLX7p3Z7PRlLd47t6193ZqnvmBOdgdMCLEtpfZGUlKRU3jjRjsvzPBluy87O/sNsMU60r2qPV97A1Jw/tdv7o2xKTnQ9KqhWTkxMPOnrz4tsnFx/EkJXo73O67k769FTYClzVVdfi6eeXoJfVq1VgKXY+wjAtNAo3SEyGvbuvko+o0BOLcO8wnY5UZHs4ObOL8o7WNe6ct9+NO5JR7CXJ/7+2N2YdsEEhq7dyVzayMRl4euvfsB3365jNLaJ5RKjMIyAK4Y/iQVpQ+QCT293inq8GC62RxOP2b5jDzau30ZQ1YYFC69gjqcJK2iW3kh/x+iEGAylwXpiQjTiaCYu6nEfCnz8AnwU5u35Jcvx2gc/wT1pGpy9vNFangW78u1Y+ua/keZSBFeLO3Iz87k+7FtlJkIjw1GSV4DGwgYMorgm5Ys1iJ80kNY9bUj7cTsm3ngR0tcTWNIaKSjOBwe/y0LM0AgUprGizbixKPnsW1gDo+HZfxaMumqqqVdj5rRReP3FJ+HkoGXou55gspRK+EKWWpT63dU0OT/I0Hcjw9xxuObqy+BKH8+HH3mWQNsNF18yFRPGj2KI1BE1ZJLrKZ7S6ZoURrmxqQVZBNz79hxkCNIZEyaMwqWXTsN55w3nPBKAM5oj9cH/du9TOEDlu110NLwTBVAGkZFkjiUBpam5kSkNLUwT6LxTWNKxkaHwilLYk40iyUtQyQuA+ZU33XQN7vzrrZBrWulA51NU+KnW61/n/RYUFKRCr/7XhNr9aycLrMbr85ky3t6+Hmr3739XTt9vx5qB0wIsJcx9yy23HKtPPXr8gw8+4IviTT16zh99sNrjlRcuNedP7fZ6+3q8//77WLBggSqXwYcffqgwVWq1J9ezAMuFCxcet38nAiylwdy8XFxxxc3Qk60SUCnfhEE0udhDGxYO54AQgksSmAyDM2jKfVqKVKj29qYVkC/BW3UNqg8yr5AelRfPmUIwco0S5vb2DGbuphWVtVX0QNyGn39eg10794BWlIiM64fxrHQTHhwEe4Zhjcyj9CQYbWOqQXlZObZvO4gqArEHH/4rZsycrOQSvvnW+4pIxZt1uy+6aBriosIxiDZGfrQoCmKo2snZHt+t3IjbH3gFbgNnEFj60G4om6r1bbjr8T+jxquOPphG6JuMzFE0oZ7Veny9A1BZXAJdRQtCYuORR9AXMypRKT9ZvDsb/SYMQtHefIabXVhfXIPagiayd7RZ0lngFB2H1v37YRNgmXQhQexhoGQH/rboJtzzl5sUxbf4Sx5IS2P1nFpFkJOyKYWKeitmzppCdvwSDKaA5jDzTO+4/X4Ke+wwcdIoWjR5E8RTAU95u5F2Rc7Orkg7cIgCJwL4xmaC6iiltOLIkclIINB2pn+opA6UMzfys89YDvPjH6Dn2N0ShnB9JF+W4LGFIisCT0u7IEqy0GQlxVbISL9Kh5pKaPn68Wv0W2AlrGSqX3/lecyaMZ1/qb+99957XV7P3T2r3G8nG+k6+lxq909eT7u6f4/uw7H+7u3j/eijj44bWTnWuI73uJrrcSr6d7y+9+3rmIHTAizvuecevPbaa6qsweLFi/HSSy+p0tapamTRokV49dVXVWn+3nvvVZS7arYnQOZcWg+Zw5dfflmV9RA/NWEs1WpP+ibtvfLKK8ft34kASwmH3/nXvyGFymxqgglmJBhO0MEzaSgsEAbTzFreLhHhZCudKfDQcocYkdvIegkEYYjc3YlMWBPqGMJ2d9Ti0Qf+SuEJSza6eRAkUbhCOxt9WwsOHcpgCDcVqdv2MuSdRfyqRRwtiMaNG66YdmsoGNE3txKQtaGIdkSHmYs4feb5uJRhXnsC3WxaC638ZhVzFHMwbfp5GDtiGBJpi+RPU/VQVsVxpcDn7Xe/wNNvfAH3AVPh7OMDXUEGbOWpSLgqnvmFfgpAtooHJ2P14nnpSCGQ9EMeEpsiDb+JoELGKHMum8ZMYZOBpSNrW1G0pQw1hxr4GMFZaCSsxUXQBIbDO/lC1ivPhyU/hfW+b8ai229W8nArae+TeTgHOfnVWLt2C+qYczqRoe4Lpo1nDmWSIj5avz4Fb72+HMEUNY1mHqQ959hGsY8LgXYZQfZGippaGnVUhYdj6ozxmD51Aks/xipiMS3RvoH+oWI/VFZdgZdfWEpVOSvqMOXAwZNMpb2F60TDeIJWq4nj4sAF2MLahjZ6fDo01UMriyzjFLaS86xsBPsT6In67+f/wZC8f8djKn5X+/XvxRdfVLF3gLyHdHW/dfeE8nogr6dqvj6rPV4110PG+4JK3tCdc9zb+9fZz76fx56BMx5YykWo1pv6safp5PaoeaPIi6C8Car1wiXticWMWsDyTFgPeTFU68PIfffdp6yHWu11F6j2FFgKi/LBR5/hxRdfVwClVFiRdbdR8BESnwgdBTF6CkU0pBhNLg7QMqfRgSFrrXheEoVYCFSE+RL1cBtVzcZSelrS8iaSPpf333cTYqNC4E9Q4ufHUoxODorwqaKqgjWtS5DBcpFrVm1l/mCJwpQGUtgTzFxLV+ZytjGPsJ3ArTi3CO4sD3nZlXPg6eWCRvo97t2VgT0MBV9CscqgpASKSiIpAPImQxqMajJvt93+JLLqHajSHkMxjSsV2ocY5t2F5CuHIHJUCGt3OxJcij8jATQdJyRELCha4LTyuKDLzk2OU77MMBLsGmpbUJ1Wi5I9zE+s1sNzxDjUUMTk4B8Cr4EXob1Fh9b0nzB2WBReeeHv8PP2ULwmq6vrsOfQYfzy0yaGxutwKSvdxMVHkml0QUlZKQU4adi0bqtifB6fIIp0DepqGplzWgQdGcpQViEakhyPWTPHM/eyH8tfBsPd1Y9CRjMqaTtUQLFTA3Mw161Jwc88RzvZZAeymvY0rdfKeAkcrRYZJzNHW/U0SOeaMsfSngym2Ex5ck1DwoNRV9uAOirVlRxLAkx3eofeffdtuP6aqwh21c2xVBO4yQcvtYGW2h805b5SC6ieivGquR7y+rdkyZLOu0iVn729f6oM8ixv5LQAS7VDkWqHRtRec7XHK5+I1Qq9qh3KPRWhG7XXQ/ooanA1NkmCl/VQqz0RZUl78+fPP273egosK2l5c/tdf0MGfREVlpJg0Wxuh55h6SkLb0EsrWnys7KRuWMfGggGzSwFybgsNB5kLpnLbOfkTkbMkeBSGD0TTAx5a2jsraH3zeDkBFzN8oNhoX6K/2JgYBBBoxMZUAsMegONvRtwgPY6Bw9mMhRfgAJWmKmm2bcwps70qrQj6DNRvGNg3l/CgDh6WyYRrJvJYuYTdOlwySUzkNgvUhH+hJGtdHPV4qGHnsPaXbnQhI2GS1AMBUd2aMo7BKe6/Xjon4sxagwV0SRcReAirKX0W8knFFDJfxJ6FiCp5JkKe8ffBXJa+FOEM7UU4GTSnid140Hk0GTdacBoVG/eAHsBlklzOBc0Nj+8DW5Nh3EdK+vcSdaymfmR5cx7zKYv5bbUfRQmbWWO6VDaKYURrDkyRF6CnZxfk6GdKnfPjjzT5maypvaIiYoikExE/8RIzmcM5zGEYqUAVjByY45mK9K5bgUM47eZjPw9F2t+IrPJNbJj/XC7EIJo5q4KsLRQsGMgaLSymo8d7aDs6LPpzpzRcFpB9R/YHwOpvLc6uuL/XnwDlTl57IOId2idxDmYPmMKnnz8IbLCfse99nq6U9I7urqeu9um3B/XX399dw/v1nFq968792+3OsaDevt4P/30U1x77bXdHU63jlNzPU5F/7o1iHP8oNMCLKUkmYgdxLPsZDZJys1laTN3d3q39eJN7fHKJ2I150/t9nr7eohhd0JCAiorWZnkJLawsDBkZWUpLajRXuf1LA121V5PgWUeAd3dix9k7l8Bw8LMm3Swh435irX0lPRg3e5B1zJXMi4OVoaBy8qrUMocyrrMbJjryhUAqHFwgoasmx3FJ3YMybaTtdQyd5EJf0zF1GDkMHoxThxB9TbrbPv7IToilGbbIcxXJMAkemukZUkdGbxaVoupJPgqKCykn2U+CgvKqJZuIKTTUEU+EIfSGM5m3qc7DdKNrP4THRmNsaOHMT8xAf4+Hohmve/PP/0Gb7/zBVoD+7HSzHBFEW5H5k9XmA6XuoNY9vZLmDB6JFskWCSgVBhLKr8FSEr4V9haAZpiCK7EhCWXlHMuj8s/8dIsKCnCL5tTsGnTfuSw+o8tdhBqU9bB3jeC/pAXEcjaM5exHa2HV8HPvhVP/+NBnH/+aORmHaYyvJ7lF3PxAeuve1PpLqKjyooGBZjHxIYjZeM2pdZ6FMfSj5V2opg/GkRBUiS9M4ODaRVEIZIna6draJOUnVWIgyyjWUfm0USvzuycfGzZuIMeohTfMBXB3tMDVir3LWSTrQTxVPWAB/JDgRu8eI2HjxpMIUk/xIQEUXFvRlp+MfZ99xMqd6cwJ5PCLK63husjwHLM2JF49p+P06Q+TLmm1fqm1v3WeX+o/fqidv9k3rq6f7szt719vJ2vf711PU5V/7qzduf6MacFWMqkq2HP8v3332POnDlnxBqqPd7e3l5vXxQ15m/16tWYPr1D8KBGe0dez2L6K0a/x9p6Cixz8vKxaPFD/CCWT2BI7s7VFdaQYJZuBJozDsBtyFB4JsTC0dVbEeoAbkqI3yICmNoiNPEDXFt5BUELbWtYl9pGb0TFqZvMIjEaw99OGEGByYjhybSu8YYPmTR35mNGsmxjQnQ8HOiPKcCunYKSRqqfi4rzUUwGLz0jB4fSc1kLuwqvvfKcIij6+BMxpN8JXUMLzp8ygeUNEzF4UKxiXeTu4UZ7nUeRVlgHx4EXMhdUmDp2gNCwuSQD2qq9mHvvZQhi+UY3moU7cazQcj+FRbJJPWzJqxRQKeykwlxKLqLSAodnsqKpVoea4loUiQdlUQNKc8vplzkcTbu2QeMVDveEmQSWBHX8MtSWwZi1EdMmDcWbrz+Dkvw82g3VIqeglF683yh5k5ITesG0Sbh83oVMYrXivvv+gTBWORo2dIDiGRnM/WKpJJWHxKdTWNYaso7bU2kzVFrZAYY5vgz2Z/OWVJjJSsqIbWQ6Jeqt5U+bM+eBeaauYaHwjOwHD1o2OXnRmJRjbKuvQRNTFyxkO020P6rdvJGhc0e4+QXARr9MO+aVyhqOHj2cwPLvrBqkLrCUee/qepZjutqOvD+6Oran+9Xun9rt9XQ8XR2vRv+OfP3r6nw93d/b+9fT8Zxrx582YCkT/eyzz+LRRx89oTmXnMC77rrrhJ57up6k9nh7e3una567e97ePn/H619PgWUugeU9BJYdjCUBFkPQGjJpVMGgraiUgM9CdXUSnP3pf2gRRo9m6E6uFOuw6g6PtbGmtZQvJEWJdn0j2hrqFEsbUR+bW/RsoxjODDkPHzaE7GUyhTweBJYUy0i4m+HWYOYK+pPJFHZDQt9SgrGxqZms5WFs2LSVQHIbrpx3BeZeeRmFO7msfLIP369cg4njR7DNJIZwE+Dn40ngZ2TFmWeRbWb7UaMV0RH1OOyvBbriXOZY7kDURZHwiqVFEnM9ibmYX0lSVX4KGlPYSQJLAcfyd0cEXAG0EgoXoVJbkx46GqnXZhCQFeqJNpmfGRAFS3khbF5hVGDP4LwQzBG02awW+nvuQqC5Emt/+ZT5mc1kJytwKCuPqvXNVLhn4vLLZ1K0NILMZBD278+h2OFNTGF99akU9cRGU2XOObYRTDZTzNRIC6YaeoXWU8DTTvaxhcykrtWgAPD0jDyYeJzZ3ZnWUF5woDWQR1gQraB84UALIhvFVVYR6/A3jR1zLNuauU5NbJsspjI2E5qzmD5A8ZUr+2Jj+gFj/oCs6ykGluxAr3+9P979Jv0/3vZ770dqt3e885/Ivr7+ncis9T2nOzNwWoGldFCSnCVZtyeb3BAPP/xwT57Sa45Ve7y9vb1eM/HH6Ehvn79j9a+nwPLIULhMhYZqZDCMquWXhVV1jJX1sPl701YnhvmUngRqHahLI2yYjVV4CNKk6o4dv6RGtoMLzdUZMhafRBHztNDY20YrIrETimW+4ADW4A4LD4WPlzsr8BDkUQ/iwNKLEnI2spKM+DA2N7ehgYIh8RXNyixQwrtXXj2XPpX+SGdI+cfv1mI8Admo4YNYkSdByUu0mE342+LnkK1h+cnwoQRQHAtD8aRPCSzp51iSirFzxyB8KJXtLnYwWMi4kmXV08pHKh8ZCdIEIJspUrK0E0gyvCygqgN48RcCS1OzCfqqZuhKWDGn3qyANeeweJhKCmD2CYNHwlSWTuSAlOeR8S1ibmfNIWxZ/wUZSTPN24uQns08SJqt7923F9NmTFL8OP05v2+/83+oI9gbNYq5lxT1uDg6wpX2RiKMMhNsyyZCKwH67exLMfNd0xlWzy+qhEXmn7mU9gFkI+kv6khW2CsyEBaOxVDPvNfWdqrCjWyBYyMAZ9Sf6yV2UZxzAariX8l0BAfJmXWjxRHTGDRcPxtZVBmKMJb/ImMZfgoYSxmXbMe6njv2/v73P/L1Xu3+qd3e78/QiT/a178Tn7u+Zx57Bk47sJSuPffcc90GimJtIMrZM3lTe7y9vb3evla9ff5+r389BZb1rFt9+18XY9+hNIWzU6xmqBK2Y81wC8GQfImvpZUhbRtDpI5BgUpZR6H52vUC3IhOCHSkOg9jyXyesHVmsmKsEEMRSXs1Q7YMcSv5fWTyXCjeCWZeX0JiFKKiI+FGpbkHwYwjSxLqebw9kaaeOYGtVC7X1tRT9FKNvJxiaRqDRwwn0NFgz/YDGEmD9TFjhjJnLZKiEm/4+/qyzOvj2M5QuNcgqYBDKpKbMKPNBJaOtBta8sKTCkPYYm1EYWs1chqpTtdVoLG1Ca00Djczd7ODrfyfzZAwlRqGwU0Eu+0GM1qoBNcVN6I+tw6mpjaETZ6Big3rYPWLokE6gaUT50OQm8aExuxdiHNrw8ov/oM2Cmby8/NZ5zsXq1fvVMozJg9KhC/7XVZexn1FiEuIY/nGEMUo3otG824ujkxT1VKlb6WdUBtaOCclzHOVYys4L/oWphsI++rqBE4sw9hkK6lC19gTkFIVLl6jFvadhPGv69PhTSo13220GtKXVkFL1b8TQScf4drxOcyxlUmw8ZwiohLGdOKkcXj6qUeV0pTKpJ6ib793PR/rVKfj9V7t/qnd3rHm6kQf7+vfic5c3/OONQO9AlhK5x544IEubQueeeYZPPLII8cayxn1uNrj7e3t9fbF6e3zd3T/egosZf5X/bwaf3vgcbJaopIWsMhNcUnv+FXhrQiwaAAEK1lJK83JnSjksGnIcJEVtBKESOxYEf9Q7SHhbDMV1GajHhZW9bGx8gxYE1tDhCPATVhPNqeAPjeya75k7PwDWPfb15XiFdoYcRMgVVvbiGoCqPraerJvBDkCeEVgxP2D6f84m7XHhw5JZBjdmaHjSPxn+Rd49bX3YIsfCbfQAYKm+N+CFgpuHMq3YvmyVzBx3Cg0GGtQRGCZ30Jw2VSMGh1N0016Vtohq6d0jH3jP2WTvwnOzK1m6Bv1aK5oRiPzK5tokq6vaUHw+Cmo3LjhV2ApgJb94zlNOto0ZW7AfX+5Fn/9882oKCthXmQZ0g8X4ZMPv1HySJU55oTI/DkQYPvTaknyLn1oOO9IgC2Pm8hS1tXVo54q+KqqaiUMLj2z2ehzydQBjQh1CCw1FPVomWdqL2pwVuQReyEJ71uFdeTySGies0pxlY5WQw1wICNpx3MzG4H+oAzpc90UhpepDgKMBZCLeM+X/qUP3X8PTe8vVOZemZNT+O3o6/n3TnU6X+/V7p/a7f3efJ3MY339O5nZ63vu0TPQa4CldEzyLSXs8XvbE088gSeffPL3dp2xj6k93t7eXm9fqN4+f0f270SApdju/LxqHcs6/osWNs0KIOsAL/xOcYsIR9wI3owMozYTmFgIVtrJUNpolWNPj0l6CBHgiD0QWU2iGDHjFiAjSnIzPRY1JtoFxceS8QpUymUKaDRwn4liE7FgsQh4I0gS0Cjn0vJ3LX8Xk3BP2hoFEHT6U6nsTnZv/4E0ZFOZTtTDKiY3ID4hmqKSYETQw9LB0R4P3v801qQegNk/Ho4+LEfJPFBjXRm0Fdvw3rsvMzdzFCpay1FkqEZRWy0KdWWo1TegxdDEcRH4KqmIgsTkqiTDRzGPlWpqM5Xe+lqyleUUueRXke3To7W2CZ4jJ6FpSwqsvgyFJ17AZ5DZbK2FpSwDU8cMwBOP3EuwGEAroHQamJdhz95Mlrf8meexYSAtlELJ3rbROL6GNks65lKaCMAF0MmXgEdB0SJSZ7CbwM+ORvOOcHbiFy2f3JiuUEHQLfXCbSwdqaEQyo7CKC0N3yWlwUx1frteDyuZThtzMjVsm5wk59vCCj9arqkTa5S70PqJ+3m+jg8VzHPl2IUZdiJgffTBe3HF5Zcqa/JH3adHXs9Hn7M3vN6r3T+12zt6zk72777+newM9j2/cwZ6FbCUTt1xxx146623Ovun/JR8ymMBzt8ceAb+ofZ4e3t7vX2Jevv8dfbvRIClzL0Awquv/RMOHEjnH0QzkqPIkGlYRBBtaQYoFkEVVH+v+m4VAZwLJk0Zi4a6ZuxLy0GbxFoZRlVYMppoy9Mlx1Gp9kJPTDM9GUcNGYB/PP0oAny9oGO968YmnQIy2wg6pQ64EKUCJAVUioeiA0GrM0VCfn6+SlvVNXUM12exJOQG5ipWoIGG48OGJOOyKy4lYPVFVHigAuDaCKZef/N9/PDDJlS3sVFXilfIRroYq7HsnZdpfTQKlYYa5LaUodBQicKmUuiMrcy3bO0I+1OgJLBKEJ2wq/KrzUS2tpk5mXV6NBTXo0FhLBuZn6iH75iJqNuwFVZnGpH7+DE/sRE+HMdFsybh5puuVkovivflPs7rYfpYbt2yDwf2pVPE5KP4U44aNQj9EqIUAZJBz3Mwv9FEcY6RqntJM9ByDUStL3msjrRocqWoyptg3pPlGnUUBD3/4ttYt3oLxfoElPSrJKznfDL/UxhKLoTkjdpr7DFmxBAE+TJMTnC6ZdN2loXUYdSEMRg5eggK6VuZyVSIWlYEEnBpJZKVSkTBQQFYu3ol16IjrYAd+sO2zuv5yBP2ptd7tfundntHzpsav/f1T41Z7Guj1wFLWZLbbrsNy5YtU1bnsccewz//+c+zeqXUHm9vb6+3L2Zvnz/p38iRI5X75ETmcsrUi1Cm2NiQpaMVz5ARA3HhnGnM9XNj/qEFP/3wA9IPZWLhrfOpaJ6B4rJ63Pvy+6ihl6KVAFGqtbCUDOyYp6cRKx+C1XYyoEa2SaqT5QsTce+9tyIilBY67p60H/KiHZEIVDp9JPkUPqcD0DGHk+csq6yiR2MOcguKUFhchlK2VVlRh7LCEgW4Tp1xPgUvoxWfx5iIEApMAhWWLz3tMLZt24+9B9Nw6GAWWUE93n33JUw+byxKdFUobCtHgb4CJawV3sga2kaKeZR8UuYUdmyCjvlFoGltE+EOWda6VoLKWtTl1zO8LuKkNngOG4OmlF3w9HGh3+NQDB86BGPHjEI8BThuZHKlylApLX0OZhzGYeaKblizlX0xMZcyAtExYYiPCSUoDkE0KxSJP6FUKXJxYWibKQaSX6n8lHQDTko7c0B1rGrUSFFUU2sbPv38e/z4wwYYOWeu/ABgE7ESmV6F8STLKkyw/G5n54xLLp+FB66ZyTKU7fj227VYxrSB0NgI3Hr7fDKbRuaz1mDj2vXI2JtGUMkPCZwEJ1ZA2rNzC8PyfzywlDVQ+37rWFf1vqvdP7XbU2+kHS319U/tGT332uuVwFKWQQQ68qla7TqkvXWJ1R5vb2+vt65DZ796+/xt374dY1nf+US2SefNoDk8bWaErXPQYPHjixDq74tqekl+980PyM/NxY3zr2Y1mYVkFu3w8GdfYdOuLBh1zKXUsdoOQ+Sk1AiCBJxJbh+/GD631jHMzLw+JgiySo4frr/xckQzfG3iPlc3V3iQhXNieJcYiKFxloaUkDtZzha2W1RWQSDWhlYqxu1oxl7C0oXbt+1CO//28fZDM0sojhk3FslDBxKkhWH8iGQCInt2g36MblSxs59PPPEKPv7sayx950Wcd94YFLVUIKe5HMXmGpTUl8BAIUtbO5lTemlaJQ4sX8pGoMZcRQtDyCZaDbVWt9JuSEdgWY2mkia0N7ezpOMY1G/dhtG0Pvrgg9fJPLIWOf81NFJ0RJN3CX+nEVQKSP3mi58VgZDe0MrxumFQcj8CSinNaEcBkj/760wNjgvTAbTwYJhbwt32ZAuNHL+uOTNtwAAAILpJREFUycCxNpNF5hS7e+DTj77HLgJmDcP/Tr6ecGBuJaX31MCzv0wvkPC9lefUuvuQyWQJTu579YFrMS4hQvG7fO7f7+O773/BlFmTMWbiWMXzUkcW+Y3nX+kQ+8g1wLzLdau/PyX+lb9OcJc/1L7fujxhDw9Qu39qt9fD4XR5eF//upyivgOOMwO9Flgep899u/pmoG8GTmIGJp03k8CS4VD+s6NtziPPPoqyvBKsXPEVaiX0PLI/Xnr5n/Akg/nut+vx/vq9CmtopaLaUlJA7xoDNLQQgrsLGU+KQAjqbGLarWuFtYWlIAmQiKwotnHB2AkjkJQYTXaOtjqiOCcQFUArZRMFDJoIjvRk5erJeOoJIsvLa3CYHpBEfqzEMwBRMZH0gsxm9Rt6ODJsHJfYD/35eEJcBGLCg+Dl6aaoqj1pBv7aax/hh1WbsfTdJZg8eRTymiuR00pFuKECdcy1bGSOpQBL8ekUqk4YUxGvSH8knGxppWUPgZ2+lmUoc+lhWdwEXSlFMC0m+Iweh9otqUjuH0sXiwfoPenBEpStZClZ+jGnELoWA8oqapCyeQenxQXJLMsYSpFOGstClpLxdWUt8yiCy8hwX6XeuTuBpYS9BVSKDZMjcyoFbNfX6WBgiLyCuZgb1u9gFR9WJeJx9p4ucORY7Xic9Lmd4XSL5FPyOZKzavUNYHnHEA7LHZEx7njpjsvQL9ADTToDbvnzP1BQkAMvHy/MvuIShEWG4/VnX6KC3cjnSjjchh++W8FQffxJXFV9T+2bgb4Z6JuBjhnoA5Z9V0LfDJxjM9DJWAqwtLHG9n1PPYRdLDOYsnqjElJ9+vkHceHMKTiQfhiL3vqGrBwZSYaQ7eryYd9EppPAxspwrEUADedOxCdKrW2CQSXfkowk47MKOLTYzCzP6IyQEH/a69Bah4ybG03SRdBjIvhsp6G3nqKTaiqiqxn6diNgHcdQ88UXX8hyhzHYs+8gtmzdgSyag5eSFdTTc9OL+Ztx/fvRwscbHmwvMMgXAayH/eP36xgOz8ayd1/A+EkjcbixDLkElqXGKlTxp85IL0eG8q3sp4IlzQRVHItgS2EwbW30jtQZ0VLRgvrCepqjNygiHiND4b6jx6OWLHFYgC/mXTlLERBJ3qgAQT1D3nk5JchmZRxv2gfFxUURWEZj2KAEjiEWB9MKsDllDz0tmdfKLTDQG95Udos4RyoWOZA1FvaztaWNivBaBaw2NRGgMwFWwt7KP7KzUsLRZmEuK/03NQTCdHwSqY+Sm0mVDsy+wfQmjVWqHM2cFIP7Lx8DH1cXrNm4D48/sUQZ46DRgzHr8oux7MV3qECvVaJCwlj+KMAyvg9YKgvU961vBvpm4KRm4LQDy+rqaqXcV2pqqvKCP3HiRKWUXUBAgDIwqScu5fJSUlKUhP9x48b9Zv/Ro+9s78jj582bxxdz5mRxO9H21O7fsdrrqv9Hj1ftvzvPL/2Tbfz48b+Z7879x5rfo/vTefwf1d7Ztr5dzd/R893V31JOcfqMy5X8PQEsZqq+h4wZgbLDhWhiPW93MmvfrPwAzvT/XrbiF/zfuhwCGebx6UrhVF0ALUGjl58bplxwPiJioymMMeLHrekwUBVurqlijqWOgIc5mEqRRGEDWTqROYMmfollkQhPHPhFOMr7XVTRkmtpowWPHy655CJMvWASkvrF8zEL9h7Yh0zWMpd80BIyg3t37VFU5Hwqw8UtcKJlkTOV0Y70zHQjo6drpEcltTDL3nmeXpgDUEyroazmUobDi1BnqkWrAizJrIoISaCchTmGgio5DxLOtxgIdhsJLCt1BJaNaCSwbC6ngrvBAI/Bw2CorIY9cxSDaBWkpfBIQvrixWli7qKZwLSN5us+rA40jor0hIRgxEWGIjY2ijmWsWhn+kBufj7WrNuGb75dzbnWUWwj+ZWinuJcsBtS7lKZD5k12Se5lPzJKVREU1afYDiHBCA8JgKjIwKgaW1B9qEMZGbmKB8I6GIPcxDBoXMIAkJd8chVwzB+QBRV6O244+4nUFpSBXvaHSWPHIb0vYdgIKCX5uX83371GZL6J/KPU7t1dT339P49tb09+dY7xyuvl8IOH/16errH253+SXnFrVu39vj991jj7WxP0j8knUdK13a+3x894z3pX0/aO/L992TwwdH97fu7YwZOK7BcuXIlbr75Zr7J0Vj5iM3Pzw9Lly5VFJN33nkn6sUf74itc//cuXOPeBT4/PPPFVX50cd7s3bx8uXLe9ye2v3rqj2pDCKqvGP1/+jx/mbwKvyhdv/+6PZEYduT66Wr/qndXk/X93j927VrF2JiYnq06gIqF952F1m9DMFVyibASnIlJZ9ZwMyMWRPIbj2IoqJ8LPlo1f8j70qgoyrP9jOZmew7gewhIRuBCCEoAlZwQ6osVdEqCoJIlWMFwYWy/Fo4FQoWC4I9eqy4gKBiCy0IIq1UEIGAAbKQTJLJZJns22QyWWZJMv/zXZpT2mMrIV+aodzjMDLMvPN9371z73Pf932eB6cvstxKZcvuijPwZhl5dFoCFRrWIJQAp4O9lLoaE147nIPqsmpqWrbAXFyMLj40NCEXbjLulLkZN+lmWCjQ3khQZiQZx0G9SLBnUE00FRUbgYXzHsa0e6ey35B9myzt6gpJgCksgpnWg2b2PDY2NmPvvkNkmgfhDgLP8+fyUEuQ18IexnZRelcSkJdAWPCQULyw4jncefdNaHOzIZ/6lXlmA5o6GskItzBTar3UE6rMnhlAkb1UgCXXgcDS1tRBF5sOmAgsLZWtaCxqhM1EYXFKIEVNuhXlbBfQECCIXkZv2io6mHUNYJ9kFEk53gS4J4+fQxTdcO6iXWMy+xy9WfIO4fksPCIUkbRf1JAFrysuweZt7+HEVxkKaFegLddKy+yir5+fIjvUyJ5TsU/Eo4uMeY/oVGh9I+AzOAAr5k3G6FB/+DGDSUyI7zIv4Dcbt6GmijqgFKDvHjZBAfAP3BqFeZMSqLnpgze2fYyjX50kSaibAIcgVuhjXjoEuN+dmDb1bqxds4oZYL+/vyr/6T8dz1dzvpc/QrkR/931qOf61dvzi9zR/fvrZc/4RM+zOJ+aeMN5+dbz7/96Pfqh+Q50vOvt+Lt8n/23/3/AgKXIQoo7hb5se/bsUe52RIyPPvoIc+fO7Us4XB5v165dmDNnjrR4sufbp4F9z4dlz9fV48neH7Lj/dD69U5uiGVWlpBXrX6VMj5/UcCKKL2K/5gvVLJ2oqQqkmerfvkMJtw0HhnfZeGDv55FQamGBBE6txgvYNSoRLzxxhqlXL334F+w/+BXFACvY9Vbi04SbLT0AxfgyNbShPaL2VB3UF6Imb1FP5/L7KQNVbUmAq8M1JDkoxkUhuQgD6xbtwpp7Jm0d7SjtLSU/YgVqKE1ZBsvalXVtTCW19E3PBMR1K9c8dIS9jW24OTpc3y9RgGcZYZSvkbiEI9pFbOfEydNwPiJt6CiuR5u0X60XwyA3Ze6lJQhsjmo9UjJI2cXJyo+IFKBYhkEwuKjk+PtIohspZ2jmb2VDcVkhVe0KsCSVX9EznwAxs8PwY29pgpo9vRBTGIcQnjjmhAfRXB8C3JzDXjrrY+YxWxn5nIsxo69AdFkcgdR2NyfVopCpzOIYuTCrnHdht/hjx8fUL47mK5C8UnD4E2P9UpjPYpydeytZCk8PAzeUaP5Hg/uB5by60oR4GZFENsJkhNicd/0O+lONBLfnsjAxg1vo97UBEf0aJJ9hmDMcA88c3s8AgeH4+AXp/DJ7j9z3GKhaB1JgXQxbWXji1oywh99dBaWPLNI8XPv+SdZzz90PF/J91x+fr6S9w/ke1x9vrLH5+rxZJ+fB/LYuha+e0CApfAGTk5OVhihfVmkgIAAFBQUsITkoAbfCJeNJ3q6ZMxXXJjEfMPC2EslcauoqJCyfj3jE2LYMvaH7Hg9x4us/SE7Xm/m2ztgCWYA2S+5bCWKi0tFgo4PFSJiIpGSkoxatqPkUa6ni7+jrW+/Ch/3AHzHfsB9GXkoqfOBoyEXXpZKSggtwKOzp1M/chcOHzuPTpaibRTX7iRodVIiyOZkFjI2Dh4hYbA2MkOoz4eGotw/W/RTTBw3Eu7sJ9yx40/44ugZdA9OgFejnk4vU3ELS8dqNYXJ+V4hzF5aZmTZ2IhifRnqG0wYM2YUfrV2OX2vncjKvYjqmkYUFhioyVjAEnklukOGKAzoYNbB16xdhQdm/hjmrjZkmgw4XZmD+tYGygy1wk5Hmks2h+LHwwyt0HFU0BWfiTQFsLRTasjaYEN1VjW6qikXxPKzN0lMTFFC12Qh4aULJl0Wur2pFcl5x8QOxU1sJRieNBTpo+LJ/o7BsWPfYdu2d5US/uDBQUgdNZzrHI+oyHAywwkQeT4w0mnoAHtCi3SlUDNjOOXuW9hbOg52Csf/9ctvcPbkWXRH8LtjRnCoGlhryoCqEnj4esObckVUbmJPqB1aAuVFCx/BTWOTsGnj7/HtqfNwhMWQUh6PuLAuPHN3IoFlFDIz8/H+ux/DN8AHN41Lh4MEprw8HUwUXhctEWIZ4hPisGXTeiQnJYoFkrbJOr/0/N6EXJMrb64+X9njc/Xrr6jKiOtvCxUt+rJdK8dfX+Yo67MDAixFWXrhwoVS5rBjxw6Wt+xS44kfypNPPumS4/vwww/x+OOPSxlbT5D33ntP2nzF+ASwlLV+suOJ40WMb8GCBT3T79Oz7HhXOt/eAsuLefl4/oXVKKVOJHkf8CcJ5dkXn8VtZG2fzC3A7za/heqLfH7n12izdENHpvOX2UUorfFEZ0MWWPjG8lVPExwNwZr122H38oOd5WCHN5nNQcHwIZCsZCbRQeFzmoPTyzoarfTuVlUV47bJN7LcTemhuCh8czwTr7z6JhyRY2Cvr4bWUk3XHV9hga30XAp3mFYLtSPpg60mmIsN88dvXvs/jByRSP9tHQoKS3HsryeRnZ1Plnc7tHGxFGIMQUfOOYymrM/2dzYjcJCv4rhzzsLxt5ShibaLNjt7ITvZB0kmtVp4czMb2AOohOuOKIkLYNlS1oTqbyswLmo47r/nXhKNvMj2rkNJeRUOfck+OWpzGkgmsgVGMcMrWgSMCGU/+JibUymWPgnpqSMU7c7PKfD+6rrNaFeTOU/2uB/7yXwpt6RmKVr0m1oISm2KptAg+FHI/amnZ2NMWhrq2Pf44faPkcv11wy7AWrPINjrCuFWU05mvRf8RqYSFNIlyeagBSUzrGSQx5Jpvvip2fjDJ5/jCMdoHUStS78kRAU78MjESIQT7F/MKsTODz7DTygjtXjBHOhMjfj0jweRue8gbOwN5WJw30Zg65bXkDqSNpkSN5nnF/F762tlSuLUvjeUq89X5vh27typXH9lne/7I5443z/xxBPfu696++K1cPz1dk798f4BAZZLlizhHf02KfMRelviwHnjjTekxRNiw1u2bJEWT/TSvPnmm1LiLVu2DL/97W+lxOoJImLKmu/zzz+vZGRcNZ44XkTGaPPmzT3T79Oz7HhXun69BZZ5F/Ox7IVVLDeXU/fQDd7DojB9/iyk3TAcG9mfV0/GNSrq6ZrzC4jsXAm1GU8WlkNXoaL4uR6DrGY8Nv9+BXxse2cPOglMbXyftaYS4yaOoVyOJ7L2H0Eb+yHtHvT6HjaGYMULVv0FhAd6Yt2rzyGBPt929jHe99Az6AhLgHdYGmzmKupENpI40873k9xDMo4n+xk9CDYbszMR49mGOY/fh3p6kZ//7iL0xWVkhpNkw95Fv5RxLL1Hw5R/HKraEvxq3SuYO3sm6m1NyLUw49leDqPZiGZrHcFcB8vgbmR9q2AyNMMvgnqS4YH8TkHkIailHqSlthWGT3Ox+KGHMWvmVLKtNSgtN6KiuoEM+Xwy1PNhpO6mlqxsvbEagam3K2NvKcyBV4cFntTqTBmdiAkTxvK7VLSW3In2oETiXhJqupspEUQbTQEI6bCjJSvc3X8IWiurMKzbiHXrl9NLfRDyiyuwcd0W1FE03T1yOBzU4oS+EFoiv4ikeESmp6OENwkOgmB3P382S9oxlH2XD94/BX85eJSg+1t0DImkFFQcEiLpxBPljhGj0vDdqUz8ad9hRMz4MVsaRqKK/ux69mbaCwvgRiAvtqio/gGWS5culXZ+Fr+P119/XRmvq/7h6vOVeb5/8cUXleuvrPN9f8QT13NZ5/tr4fhzhd/FgABLsXNk7ej+AJYygYfsH0p/HNiy94fM9ZMN3MT+EOOTBc5lx7vS+fYeWOoILFeihMDSSfZGJ4GNdlgMWtij6Ea5GQ+WSLsNNbyz/ykSU4az5aIUuQRP58opb0N/bXVZDqZOux23Tp7APkIdBdOzYGfGLUjTjakPzYDBUI7jew6wv5JkGmYD7f4U7A5PhbXOCM/mCoqXL8GNaSmIjY7GPTPmQ9/cicBR9xBLXmJmO5mFE1kzUe5WrA1JHG/My4aj9BITXFgUCtZJN4GnJiQJvlGpzBhq2AOph6P4OEaPjsenu39PlrsVJW2VKLBSHN1UQoJPM1rtZIuTZNNNEXQVmyXVdKhpyjejLqcK/kMHwTcyQHGvKdx5BmsXPU2po7sUInYr5X/0JQZUVNUin2X5C8z6lVVVwY/i6FkZJDOlPAgtwaTTSe3LGgM66wqgJtBjE6dybndS49MjYRw8ApNJ2BavMTMqngig+R8F2d3QojuE21LCeTyuhbGuCacv6LBlA296YuKgCRgE64Vv4c6MqujpHBIbjSmzpqOZDPxzx84St4sMqIps+jtJJPLGwU8P4iKzz86kJLLEgzFhRBACnWal5/TIgSM4/c0ZuI1IQidT1h21Nco+1zQ0QkOQKrb+ApYygUx/nP+UyUv8w9XnK/N8/9JLLynAUtb1vD/iCWAp63x/LRx/Eg/lqw41IMBSlPvmz59/1YO+/IOCtCNK4bJKmyKeyIDKGp9oahaldVnxxPgee+yxy5egz/8ve3/IXL/+2B9ifEKNQMYm9q/MeFc6394CS52OPZbMWBoIJJ1ENaKnrjt0EEk0gVBTa9LKjKWaDjhjmX2cdt8M9t8Vo8Fkxt/0FnYfamEvyURUoBemP/BjxMUNRX1dMxppOxgUGoQutRrfHP4aOSSQEKMSPzE+hbwdQygb5OYNVUUO5s29FzOn3UkpoST8ZtNbeOeTr+CZNJmZyZB/7AaCLZWbQF4a5bUuWzsc1J90kiku7AfdSVjRsDTM2rcCQG3MtFkKvkZMQCfeZQk8MTEK5czw5bcaoePDZG2ChUQbBz21BbAUmwCWbm7M/6nInrZ2o/o851lIhjlJOhPjRuLdrZsIbGmR2M0MJrUkq9gPXmKsxKmMXBQwW1peXQm/4BBczDgPj+H3E1j6UOid5X9RWFfR/9vSRLF4kzIPrd8geIXQAccm5sPJcdWdQleIPV9OgrtO9ki2Z/8BT7FN4PnnFuFsXhF2fbqfLjhHWQYfzt5VShKVsgxOL3EBLFXUgLpj5j0YlhjLTKkFbS1mBIdHKH2XOlpwnjj0NUxcPm38KMpCqXBXWhjaTfVIHz8W+97fgwqCYwdJOu4pwxRSlYPuS2oyftXM5IrdFkWrzK2bN2Kk5FK47POL7PMfpy51c/X5yhzf7t27leuvrOtbf8QT52dZ7WP9cf2VevC5SLABAZat1KBLTEyk+we9hfuwiSZuPe3nxB2JaM4VmmB92XriiRgyxhcZGQmdTqcMSUa8nvH58gIrc5O9P8TYZM5XVjzZ+0N2vJ79eyXz7S2wNFHu58VfvIJj1KNzU3QmiW9E1oxSQyJb6EawI+SGfIN8sfDZp8jOJtubN2x/PlOITm/aMjaUQU0dyyFhIfTsTkMciR5qD2b+2BCfk5mFvAz2V1LTUsjjiHSfAFv2wRFQB8WiQ38eE0YPxeKfL8DokUlkkldgxiPLgPDR8IlIUT4jAJfwy1a7i6yiCAB0NNRA4+3L1/yVHkhnJ720mXUUwI/JSpJoTsHdUoiXV/4c8x99CHUdtchrKUdhRyUqrY0wtTYqoF/c2F3KiDIoAZobQar4AuFX3sVsnc1Css6FarhfsODA3l0ULdfwZtBO15oWeoDXkPBkRAbJL9k5OjRZLVyjwcg7eR7a4dMo5ROk9GuKeGo66LhR7FwsgHi2WxoIhjl2J0VBidyE1A/xKsvk/CsTtNYGPbTVJPps+RUJSiNxOrcI69duRA31OD0TU2ErKYA7eyEFqBSfF0x+X4rMp5PsFJ8UxyylD7U57SjkuHLOnEOzuRXdUVxPT8obBQA3xvpDTetNL75vP/s2HewvFSQlLqHiekSoqqy1cpvBtRckqlfXvIwI9pHK3GSfX2Sf/2TOVcRy9fnKGp/s85+rx+s5P7v68Sf7eL6aeAMCLMVAhUiqEEbty3bgwAFMnz5dCSFDTuDyeDLGd+TIEUyZMkUZn4x4l4+vL+v2fZ+VPT5XjHf5/pBxvMiOd/n+/aH16y2wFMxIvaEEC596FtUVtQKnEF0IEMR2vMGBCI+PRHVROdqbWjD+jh9hZPoo1FGYXM9ey/P1AoiQ/d1QCq2pEh4k7bj7kABD8GijLaAQ2nby5u7vkErJWAq7RkdICLRhyWgt0yNa68CSZQtxy/g0RNIpZ8r0n7FUrYVP7HiCMwIvMSKiLSEH5E6nHg37NKvPZcDDP5Lghw4/zDh6BkUTvDHjyEdrDb3Ldccx855bseaXyxEY7IecpgLorGUwttWjrr2JZB0rbctJcCFwFsBVCDYraJrxCE85Zjt7GK3obO+GudICw/4CvLfx1xh/8xiFod7SakZ5JcvqBQacPJNFlno5WjiOAMoq5Z04D03CdILeAGZRCdE4Xzeui8hGqt3F352oP7sfwaNv5zr5MDspCDJeCpBzMpvINCza9F8h0tuGQwd3o5Fs+MOM+for6+EMDYFXTDLsbAVwa6fgvAIsBTIlsOYaacgc1xD8ulGzspMORl3tdpa3mWUNj4VbYAwzpp30Cveiu48ngiKjcf5kBgxnsxFM4lUMLSkrdHrU0BdeiLMTT3JMKsU6c93a1Rg7ZjTXSWRg5W4/dDxfybdd/vu4kvcP5Htcfb4yxnf5+c/V4+3duxezZs3q0yFxLR1/fZqohA8PGLAUY1+/fj1Wr159VdPYunUrFi9e/E+fvd7i/dPkJfzlelu/a3m+vQWWlw4PJ959/yO8tuEfxLTghCgseXkZuphhO/H1aRzbsZeONj54cN6DtPxrhjuzm4dpR2imm4tSvjWXwLOJhBIB1ggmtQR5PgQwaoIRm60LbfQAv5R9ZJ9lUDAJKCloZ9bPj/2Os+c8hGn33IlRKbEk772PzR98AU30JHjRolHNEq2jowmdlnr2adYibNwUVJ2l73Z4KAGbBu115QSsFCEPiUG3wwxT5mdIobj6+vUryKYeAWNrOXJbS2Fop74l/91CJrZokekiyLpUfhYIiqsgHiwtC4DpJKnO0WaFtcUBq4k+5ecqMTN5HFauWEwDIZb6qQlpNFYgl1aNuXkGZF7IBVXa4a7yRhXBpjpmBkEkez69mPHlGJ2UODIbc6Fx94MvM7GmvC8waNS9aKsro/wSXYtYxvcKupmAkKV5CrZ3lx7FvEfvxerlzyLboMeHH+3H57s/g1tCMjS+g+EozIWW8xCAUtg5Cqki4StupW5nG8v0QjJIrDsIwp1hQwkqhyrv9W+vxe2T0+kGpIKVc/x6z59IFPLElNn3I33SeDhJPtr5+lsoJbNecf4hmWjBE3Ow4sWllw6TfvpT9u+tn4YpLayrz1f2+K63eNIOlP/BQAMKLMV6CjaZaHbuzSYO4JUrV37vR663eN+7CH148Xpbv2t1vlcLLLd/sAsbf/13RjwBS+j4UUgam0btSg0K6htJmClAO4HU0Lg43DFtKt1cqqh1aMaZXD0smkFQs7Tb2VIHVZMRg+nvOH36bXzcAX8Ke1dU1ePQF19j394vWbKm4DhJLh7RIwjayDrWZ+COu2/Dww/PwK03p6FQZ8C8RSth9h9BdnaykjXjJwguL7Gng+JugLm8jFlKakgyS9fGNhd3X1oOqhywlByFe0cF1v7fUjz80E9QRaKOoZ2+4C1GVLU1otlmJvnahi7Rm0nwpdg2irq/2DhnJvco1SPK4MxotlE8Xoii17Wgo7EDwWYNNr68nNqVHtTTLCPZqQw5eXqyw6uRW1CM2IkTUHoqC1b4QTN4klIG13qzK5Re3iRyc64mfkcXwXI4TEXfYAgzllbaN7ZR2Fy8wd2XupQcgK0xGx4tOTjwh+0Io93s8fM5eHPz2yjMzYH7SLLKnXQhMmRDQ5mkQNpEzvzJXbibbj6h7Ist0Bvx8a79FEU/gy6fQKgIttWBIdQhtcGnswWTU4eSmENheNpIfvvl32BlP2b4mAQkMxOrIqhsouZoAwXmy1hCF9lQ4Uf+5IK5+MULz4kV6tdN9u+tXwcrIbirz1f2+K63eBIOkf/JEAMOLMWqbtiw4d8CxX9d9U2bNkEwZ//Tdr3F+09rcTX/dr2t37U436sDlsD2D3YSWPZkLNkXGB4Mv7gYdLDsraJsTXRKNCyUvKnOLEJyaiqFuyezLNzKMnAxLuQUo76TxBefYJpk1+Gxyal4funTzHB6IKfGiCxm8aLJBn97y7u4cJ7OMUPC4RWZBGszs4d5JzB8eALmzv8pfnTLjQhi79+K1Rtx+FwxfBMo7aNhWdfawPeSRR40lABsCJpLshXWtdqd3+cMYAnckyzzc+isOItH5tyLNcuXwk4WeH6LAUXMVJZTE7OZwLSD1pNdJOyI3mul9C2ApHiIJ6FZScDZRQ1MR0cXs6PMsjZY2c/ZBkudGY7adjzzyGykp4+ArqAIhhKy4y8WQV9agy6Wp90szEqSKa6OSodKyzI92wG0XhSGZ2la9Je2VOjgPTia5W8NzEWn4B8/kuMORmu1gUQlvu4eyHnSzcd4HJPHRGLn7zfDUFWNz744ik+370BzE7PEBJZOls07i7OYsWzFNBKmfrniWfh5eyKffae5VQ1o0Fdi33ufoFQVjG43rg+1MEN9VRiREEoP96Gwsd/11FcneGNQg+BRCdyvsXRCcqAym/JCbAlormlib2kbGwIItJmx/BmB5Uv/BWAp9oHs35uI6cqbq89X9viut3iufOwN1Nj+HwAA//9RzkQsAABAAElEQVTsXQdgFFXXPekJaaT3kF6BQAgQeu8ldEHpIF26IIKCBURRqQLSRDoI0hQEpPfeSQKBBBLSey+bvP+8Qb7fz08NZZEgGR12szPz5r07b2bP3nvPuRqCC8rAMmnSJMyZM+dvezJz5ky8//77f7vP442vW3uPx62u19fNfq/aeL/99lsMGTLkqS/3mjUb8Omsr4Df7nqVlgZ09PUhVMUQGoCeuYGyLSs6DZpaWnCoZI8uPTpwHz0kxSfi7u27uHn3AQrT0zBj2ljYublCw7oitl86iVN7TsFeUxNe/lWwbv530HRxgb5lJeQmJ0F18ywqGBqi14BeaNKwJoID/bFx48+YPfdbFLs2ga6RAzQ0SjgeFTS0tFGYDeQkXIWWrgn0TP3YJ00U5T1AXuR+HuuKlUsWwqCCBu5kRiI0Mxp3c6KRlp+B3MJcFBWpUFJSAiGbk4sc2G+LKC5BcW4RVDmFyM0sQEF6Ic+Th+zEDOQkZrGvuQjw8kTnDs3xMD4eYbdu4879WGi5V0F8ZByK7kdB09oBuhaVUVxoCC0dLWhX0OarJrT1wc+K2X+BwqwMZIadhr6DJ/TNfAB2QUNDF4KdKsyMQXH0MSz9+kO0bNoYJ65ex9p1P+LYngMoUhVAu3IgdAwtkBt2CdpZ6Xjvg3Ho1L4Z9A20sDk8DFt+OQnLhHQUJafh1IUIGBjooaqfCxzcHGHr6oi05Ayc+OlXpMbGQ9NIHzo2ZhD5+RAZ+SgpKoQmr1FJoYoW0ZDdQgn/njB2OIYNGfiblV78i7rvtxff4+c7Q1kfr7r797q193yz4993tEZZAZbStFOnTsWsWbP+1MrTp0/HjBkz/nTbX334urX3V3Z41s9fN/u9SuN9VmB5924UOnd9E/n5BZwWGsSXEmFKeCGRD6BFUKRJsKTS0CBI04RmfjEBoSYaNW8EN18v6OjooESlwv6dexAS0gyHbsQiNCkNWgZFSL50Fab2Nqjapi1OL10LrUqe0DWpiOwH4SjJTIYG26pfqyp69e2O2tV9kByXgvemfoZryTxHpZYKkIXGI8SrqQ0U8JjCrBKCLEeCsiJkR+yEtWE2ln7zBQID/BGdFYNraZGIzItDUlEqsrIzUFhcxP4RJLMZ8RhQ/vYqJNgsKEZxjgr5BJXZqbkKkMxPzkFmbKYCLFXZRdDksQ0b10ZGVj4yCU4tfX0QceEqkq6HQsumEvTtfQhazQgkdaGprU0gqaMATGho0oQl0NDm+YsFUm8ehYFdI+ga6nIfrUf9EcXIeXASNRw08c28T6FvWBE7j57AhuXrcPvOHQhdHWhYOELfygX5ifeh9eA2ho0ZAm2Cx4jMTNzMTMW9fafg62wPLQLVrORUNG7VECaWFohOysad6zdx5/xFlBQXo0RbC7rsnx6NUVRciGKCak1eaW0t+a+89o+uvIWNBTat/w7Ojg785J9b1H2//XM9f7YzlfXxqrt/r1t7zzYr/p1HlSlgKU08cuRILF68+L+sPWXKlL8EnP+145/88bq19ycmeK6PXjf7vSrjfVZgmZubi6HDx+LM2QvKvBC/AUpjQ314+XqjXv1aCKhTDbcKsrHpl0N4eDkchQ/ioUWQZWFuDkd3V1gSiIRev4XaNXxh5+GBTRt2IzY2BtoVTeHTozUSr0ch5dY96Dv5QFNXIPP6eejaOaKIHkAzeiTHvjcaAZU94Ofqiq/nLsXqTbug4d1C8VpKMEhMS8SjSfCmQkGGClp6hihIuwU8PIZBg3pizJBByNRMx42UCETkxyOhMAU5+fQ2FuQqoLeYAJL4TjbyaJUIiuBKFBFUEjjmZRYSWNJLmURA+TCdgDIb2QnZBJwEX/kE1hUqwMbBEdWDAvGQwC2MQK0gKwda1vYwsPZmW4ZsWh96JvoKCNci2BYlBGrKeR6dV77PS46jN9ORXld6YQnp5NhUeWkovr8Pk0f0Rb8+PXE9Khp7fzmCH1atRV4FPWg5WiLrXgKM3QJlQ8i8cQZBAbwuTRtj+9afERsdC2MLU1RtWAP3L91ARWNjepWdkRiXhAd3opCVkoRiowrQtrOBcSUntGhVD3Wt7HHv6g2cPnkat2+GoaiwkKBSi2OQ9gFCOrXHjA/ehWEFI+Xvf/Ifdd9v/2Tfn+VcZX286u7f69bes8yJf+MxZQ5YSiPLEN/y5csVe0+bNg2ffPLJc9n+dWvvuYz1Jwe/bvZ7FcYbFBT0DKFwgeUrV2P+/KUoKCwiuJDAQsDS2hy93+qOFi2bIVW/BKcjQ3H8/DWEn7qB7JhkQAIRCcwIREoYZubB0MgrgoWFMRq1rA9jG3tc4H4ZOtyUnorE41eh7+4OHRMLgqsEFCbHwsDeAwVRt6BNr1uj1k3w5ltdEOjjjrjYBAwcMhkJGkYwdGtKD6Au+yQ9ahKlaTO0XMJzFiAr7Ef4uFngy0+nwc3LCVfSb+Nudixi8hOQXZhJUJkN1W/eypLi3w7niwSXEtTRhUdQSU9lej5y0nKQS+9edjK9lnFZDIOno4DeyxKGsXUsrFDB2RUlKenQzy1EYjLDyYZG0LV2YpqAAwEkwZfQJ9g1gE4FHfZXSwl9y1C9EnqXdpJ2ldi2+BGw1aALVL6XrxkRp+BnVYCvP/sQNvaOOEEP48YVa3GZoE9YVoRFw9qIPngG+tbOMLR1Ql5qAorvhSOoXk3A1ArJ6RnQN9aHKjEeDy5epYeWYW0OTzAUr6Epx8qzE+hqEqTqmFaEY01fNGgYjIa2jrDW0MPh/Qfx3cr1yM0tUPaX9tHR1sSU9ybgzV5dGSanq/gfXtR9v/3D3X/q05X18aq7f69be089If6FB5RJYCntPGHCBP6g1sCXX36pFrO/bu2pxWi/a+R1s19ZH++ZM2cQHBz8uytU+ts05kW2aB2CjHQmMEqQSOymo6+D2Z99gOq1AnE46hrOR4Xhwi/nkXD1AYp19WHo7ABDO4Z9CaIkcFERkOSlMX8w4iFETCL0CaxMrS1QQCSVlZuHAoa7dWzdYWBjSe8cQdv9+zB0ciVgoafw+hXoMExtYFyBeYMTUL2KDzyZE/jFF99gJfMttT3qQ9/C/XcDIWgqAkFgBEoeHMfbb/fEyGF9EJufjNCCaIQmRyK9kKCwKAcqVTbHQ1BHUCmItCTEUryU8pUgrzi/CPmp7B+9lTky9B2TRYDJ8PfDHOSn8dhcFbSdbGHi7MMQ9l0Up6VAMPysZ21HgGZBr6O58jzS1DGFjoEhbaHHlWakTZTwPb2RMtT+yAvIfkjjikegU0jwp2KOaG40CsMOYXCfjsxpfAeXIu7jPNMHln/xFQqZmiB0dGHVqTlS7yQg8949mLj7w4DeyZz4OKii79PWBN3MddUigC7MyJTDgqadNfM4LZkuUIHDlUBXnqcARdnZyL0XCU1VEUzc7BHcrg7q+1RGc68AnD15FjOmf8FrVcgWaCkiYj8/H3z15cdwc3NTPvvdRfhH3qr7fvtHOv0cJynr41V3/1639p5javwrDi2zwPJfYd3yQZRboAxZ4MSpM+g/aMQjHCQ9ggSXo98fib7du2HXzVM4GnYF13++gMQrD6Dj7Qxzfy+CFBJRCFIK0tNRnEFAWsDcTObqMWEPGplZSni5SHrk6OkSpubQs3KmB0+XQCoPuYlR0De3g4mTPTLuXIWIZLic/wktFZq1aoxevbsjwM+NQEkDzdq+hURYwNijIfMV9STeYTsSEAJpYQdgpErAlo1LYWJviuvZ9xGWeQ+J2YnILcqCqoQAiR5JhYfI3EaJ+Hi4AvQkKamEXS5IzyMgLkIuwWU2vZUZsWkElQSaGTncXoQK7KOxX3XE/HKUB2pAz8EaBgwha2gSRHI8Gpok3pQYQrcCw98yD1J69uil5D8Ec4+IQsS1yrHykivv6Smlidk1bme/kq/vg4NuDn7YuBgVmHt66noEVn2zBGGXrjzyFEqCkpMzjN19kRkVgaL0JJhXrUF7SHvmIic6EiUMeWtLEMt2tWQ/jPRQyDEyiZJ2JbA0NoMBvZPmXlbQN9VBJPMxRVQcrKo6IqBdVVRz9UKfGiFYtmw5Vi1bzzEpEBzmFuaYNm0i2rRqLrtfvpRboNwC5RZ4ZguUA8tnNl35geUWeLUssHrNOnzy2VcEOxIQAdZOVvhhyxrcSX2A9Sf34c6ZW4g+chvabg6wa1QdqnwVCTnhKLhNEglD55ChVomUeDhpPQQ3mlBVNIKmrQPBliHD1tr0UhLIFWeQdZ1Kb5s5GdFWyImLherOLRD2/HYcYG5mgoEjBqJu7QD4ujvhh+37MX32EsC5JkPO9JpJbx8Ba2FOJjKv/QRjPYE3B3SHlpkO0ozykaWbBS1jLZTo0NNHYop0S0qPoYZEXISVQkWwSy+l7E9BdjHyCSDzM0gAYj5lTmIOsuIzIUk7ch9de3t6Zj2QcJwAr4Iuc0NdSLgxZTMk5miaKF5d+R4aBgSRzKcsJuKVnj5NeV4tAj++15YeS+mlfAQ2uYHgUtqLe2rSmxtzDwV3T2HauP7oP+BNXA5/gENHTmL1/G9Qwp20JBjm/sUSpFfyh66ZLdnq91GUGg8jF1cy4+kpJftcVZDPkD7RNpn2OgyLSyJVEYG1BK4SzEoPqtDSh4ajLSyD/FDByhT3955gjmwa/Fr7wbaKDVp6N4SbpiVmTJ2NO+GRsqcKKWv06KEYNLCvAspl/8uXcguUW6DcAs9igZcOLBMTE7F161acOnVKkQipX78+unfvDisrK2U8CQkJ2LZtG06c4MORzMo6der81/ZnGfS/6Zjf20+Oq27duv9ln3+b/dQ93t+3JyVqnnf+ldbe4+2/n8/dunWDtbX1n07Lx/vL++PPru+fHvQXH85ftAQLFn9LcEeGMsFMbeZHjp84EpvP/4JwMpLv/XKDYeJcWHeoBwMzIySdvYWCm/egQcAkQZPMHZSgVHoSJTu8kLmXKhJ2tOhlKy5kaL2A+ZcERiCD24ihcJkjmR11n2HsB9Am8JGSPJqUNxLEqLK1uo2D0aVbe9Sm9JAEVZPJEP/1RjQMKT+kqVlBAbB5KTHIC9uHOkFV0JQyRXmUE0qm9zQ6IwExeYkw8jCBTWU7MrQlgmPuJ8PgMhxenEfAlUNAmV1AZjnD8Cn0VMrcypRs5CXxfVwqw/pF0LG2JQO7EtJvEmDpasGwkivDypTnEbqKp1CL6QAy77OkWPsRa522K1HJVYLFczAiQ1zf1ITAUgJK9oHj+I+Cm4L0KKCUl4n0WydRv7I1li36nCkDBTh64SbWLVuFCOZYSs+jlGJSFTHEzfzVIi09FDPHUtfCmceS7JOfTpvTdvRcautXgJZknSfFQzs5nXaifBGZ7nLu8mGuXHkNKSdEW2uROW7XtBbHnoOkgydJtKoIj3beMDExRS2bqjiw/ldcOHyOx/FYdn34sMEYNWKI8v4vptD/fPy0z5fS5vO/rb3/MVj5By/VAr+ff4+f979//j7t/HupgynDJ3+pwHLXrl3o168f0vlF8fvFwsKCoZpljLoVYNSoUUhNTf39ZpIGHm3v0qXLf33+uv3xutlP3eP9p9uTQEyyJP84nytWrIiVK1fij/P57/p3/vx5uLq6PtWUn7dwMRYtJSmO3kC5VAtpCNvqDkjMSUHK7Tg8OBAKVDSHdaMA5FIKKOMUPXjUPdTV01M8f4pHjlqTjZvUQa83uuLXA0ewbcc+ZFLSRt/JBkbMUSTkJBDTImknA3n3CCip56ilUUwNRgMEBHjB2tYCYaFRuHk5jKcyQ59BvRFcuzqq+3vgyLEz+PCThUjQsoeRYxDBG5nVKXdRdO8Ipn/4Dob27coIPMPZuflITUujPE8Etu/dj0vxd+HTxR/a5hxaAcP0hdLTWYwiAt3ctFwFWGYlZCkAKys+Tcm1LGJoXIMEF1PfQKSG3ice1IKRmydBmylBJL2QutoEmEYEWZLMIleCcRk2ltiR9stPI2kobA9MqrSAgbkjx8wNUodT8VhydwJn5X+i3Mz7N2CUEYGV38xCQJXKOHXtFnb/dAD7t+1EYV4+/MiuD+neEXkEnCeOn8W1izeRm1OAYjPmdlq60fNLgUwhvaNE5NS1LIwm25yeyhaN66Jb1w44euI01q/5gWiau0m5JuawKkCTRCuzBtVg5OmG6H3noZeTDP+3AlHBugI0inUQffQ+Yk/c5vvfgOXwQU8FLO/evYtatWr9z3z+q+fz383nZ3nel/X25CwoX8qOBdQ9X8rOyMpeT14asJReSPlL4XmWLVu2KN6552njVT12/fr16N2793N1/1Wyn7rHq+75p+72Shvvs8gNPQaWGgRKEgM5t/JnDp8dAZEG4i9HkY0cCn0/d2pK2iHj8h1oMr/SwtsdeoV5iLl4TQk1m5oaoXvPNnizZxdYW1lj8dJ1mLdgNWBiCOMAN0UgPCeCguKpyfTkGTJP0ZLApRjeLvZQZWXhdvhd6mNKAfFc4i5N+Ff3R9+3+ym5ls6UyPn8y8X4bsNOaLk0ha4xtRxTI6CKPIrZsyehb7e27Osjr5wCnAhYC4vy8fMvxzB+ygwEjW7I8+mz7XwUytxQvuZnFNBLyTA42eD5UrcyKYt5lXkUUS+CQ+MmSLoZg6LMbJj4VSU4NGP/JajUpfSRBMjMBxUElQSSMqwtSTgyrC0IHtPvnEZRwk1Y1g2hF9GGJmS/2B8l91LelfQeyv0K6FnNvLIXY4a+gbEj3kZodDQOHruIHRvWI/ZeDLQ0tRTJIlMLI9SpXxON27bEfgLs0z8fp/c4SfEsqyxtYVDJkeFwA+TeuQfdtHR06doG494ZAj1dA2zYsglbN2xHFGWK5G8GY0o5eQTXRMS+w0hlRMimfQuk3ogEoqPg17MGZYhMFNAeczoGiSfuQoveVzkHhg8f+FTAUoLBoUOH/uUz6PfPl9Lm81828rsNr1J7v+t2+dsyYAF1P5/LwJDKdBdeCrCMi4uDt7c3svhF8zyLKfOOwsPDYWNj8zzNvHLHxsTEkMXp99rYT93jlaBEnfNPXe2ZmJgo81lFb1Rp1/dZgOX8hUuoEbtMAUp0vsE62BUOjTw5/zUQdy4SsYduQc+bDG6Liii6E4OK7n7wpCcxOywcV44eh56+Npo1rcMfhCHIo66jv783bB0t8PNPRzB37nJExyUSfJUo5BJJcDFxdYA+Q+W6BJaZD2LIQs4nk70mHJ0ccfPmLVy9HMrPCtCR4fDWHVqjqpcrj1dh3Lsf4+SVOzD2b0z9SHru7h7Fe5PfxqjB/dhXJY5O/pDM5VQRWBZQ7D0PF6jp+P6cr2Hd0ImA1gB56bnIz8ojoCSYTMghcYdgMzOXrHDy1wkSjVkdSFWghezb92Dg5kFNSobzVWRc69BTyTxLHUOZO6nFaj8yxM3wOq9JCdMBNBmmlrmcaaHHeP4cWNdoyT4TzRGYST6PkoNKez4ConlIvvwrGlWxx6wZk2HIkPmBE5exe9dunDt8lELlWvDx8SJxxgRx8Qztk9xkxhQCx9q18IDVftJCb0PkZTPczVA8uyGYRmBirItuXTpg6JDByMsrRGj4LdjbGGLD2h/w089nkM8UAH1LU9Tu2REPWXnn5o49MA6qykpJzCeNjoF312owdrHgeDQQcyISKeejlFQH6YkdRo/lO08RCi8NWD5+PksQX9p8fpKH8KvS3uv2ffQk1+5l7hNP/Vz5vM+k1NnzLI/nX/n1Ld2KLwVYyrDf4MGDS+/dE+yxZs0a9OnT5wn2/PfssmrVKgwaNEgtA3oV7Kfu8UrgNnDgQLXZT53tff/995TOUZV6fZ8FWC75dgXmzmPxASVcq0HRciP49QomJ0ULcecj8fDXUJJGzKBhRf1JghwjCzNUpBbiw7A7xHMF8PCuhEmThzGXspAAxxRGRkZw93Ri+FgTR4+cxjeLvseNmxEKuJRePyNXFxhUNEbuw3iSZpLQ9q1OGDH4LQh6AsPDbmPNss04f/wMDJk32JdEntoUZpfgMioyGiNHT0N0LvMKCfhEzDW0b1sX33z9CQGbSgmHS7AiQWkBySxZ2ST48Etj64/78NOVk7Cu7EA2O1ngBJI5yQyBJ+fTW6piOJ8kF5JbTH39GDXWR/rVUJY7dEMFamxqMKdTQ1OHAJO5lMwfVWSECBBLiggS6dArYJUfWQ5R28CBZJ4K9ITeJ5CsgAqWZtSaTCEAFTC0oueS+Y0SZBYzFzQ97BwctNPx5ZxprBRUFRduhjPcfw6bv/seuVnZqELAN2/uJ3QxAmeu38C3s1chLiwKFav4QsvUjNqd4VBlsKqRDMWzTXtnS5JruqFzSBcy4TUQERHJ66NDclIK4hPi8M03W2j/GOJgTZizFKfUs0yMiOJ1cKD3ljqfOTnwDAlgXqgZQ/CFuH/gNtMVkjhKNk+7/L/HUn5S+lIasJQtyOeLvFbqfF6V9fZet++j0mfKy91j9erVGDBggFo68Sp8X6ploM/ZyEsBlu+88w4WLVr0nF1/dPj48ePx1VesffwaLWPHjqXI9Xy1jPhVsN+4ceMwb948tYxX6qlJD+PcuXPLZHvyehTTw1fa9X0WYLlj10+YxJAxI7Yy/U8Jmzo184V1UCWkhMYxD+8mvVcEVsztK6DEUBHzIzWKmH/H/0zNKmDAoG7w9qgEL7dKMDYxgKER5XcoFC5BjyyjeCs0gnZdgpMM9Wqy3reWmTmBJXUY4xJQQvZ4w3ED4WJujGvHT+P+jbtMWzRG/JlzSp1yRzdn9BvWH0FVfeDH9wcPncbkD2YjXZNM7Ows2DBUvGPLSuW8OTlZipeymIBFlqaUudhpzLm8ExGBb9dsQ64utTJN9FhdJ58lGwmo6MUrIUtcjsOAwFXH2Byp529QqseMMkO1lVxKAwuZR6rJ92R9E7Q9WqWVaCfOl/z0KIJFEnkk41qrhLaJYu6jFcP1xki7G0owagvTSgSozNWUntSMe5eB+OuY99kUtGnTHHcexOHC9Vv4dt4SJEQ/VABoyzdC0KFXO4SyLGVyXDz2bz6K5PBoVGS7hva2yL57DyU52cxR1YBfZS8MH9kPDesHc/7S00rxdkP+IMjPS4eKhdXj42Kwh+Hz9RuPUL9ekqg4WobZNeiB1beqSM3OFIJiHbi3qkqmviHS7yYi+nAYETPD9xyjDj3Mo1k6cvAA6RV+suVJgKW83+R8Vuf9q+725A+50u63J7MI8Co8T590LP+W/eQ1Udfzvvz6PtmseCnAUp1A4XW80Oq0n3zwq0uE/smm3NPvpc4Hw8SJExVg+fXXXz99R/7kCHW396RfxM8CLBOYb9esZXuFRawMRSIKXQ14d6vHKjn6uLfrEoooxVNsSBcaAVJBFkW4C1nKkCHbFs0boE2LWvDy9IQ5waKVNT2bZIhLiLpx60/o2K49DAy0STrJJtFmFn7afYRNUI+SXjOWh6E+oy2s6wQTzBxDQVICTJnLKbJJSMlm/iMJLLoUKa/dsC5JLCEIDvSEPT2BS1dswcKl9Hjxi1+PXrgJ7w5Ht86tIUNbhRJU5uWQmU4xcHoSM5lW8zAmFtt3/Ipr4fd4buYuMidSk2x0mf5YxBroerbW9N65Ifn0BYaWdWFWvT29jsYUPC9hJR36BQmSVflStkiOiyOT3lHmg0ovZDGJV0W5jxC5nglD4jokNRGEZkTH0kNL8GbmzFxL5mQyXJ6bGIn8Oyfx3tjeGD60H2LiU3DiSjhWLGS6AFN3YGasiLmb0Y4mdRvj3sFfUUKvo029qhRqZ2WgC3ehS69oSX6OAvoa1q+OqR9MhKMjZZ3Iut9/5CxSKJv0RrdW7GM+gXU2khJjkE+wuXjpDuzfd0YJm2tJcG9AUXU9bXpYM2HmaQOnuj4EvhoI23kcJakFxJ8En7yGNjbW+PSTaVRFqKOM/Un+eVJgWZZ/yD3p/fYk9pD7vI7fR09qm5e1n7zG6nrel1/fJ7uKLwVYynBf//79n6yHpey1bt06vPXWW6Xs9e/arE77yaT6N998s0wbSN3jlR4KqUagjkXaT53tyfks2yvt/ngWYEmFRCz5dhVDpssVsCY9eKSlUFTSCE71mbObmo3UixThZhqjhr4BiukJLCGg8vRyQZ8328LN2Qk2tmZwdrJj+FsCEm3kMSw+cuxHMKDHa/zYoXBytCPgZOlISumsW78LyZT3kQLhhZIQ41WZQIflECkoXpDCUo+UODLwcqPkjxXSj1+CMfdp0bEtZYVqoUFt5kDSDnNJDNq1+4ACWL18PTFlyihU0NclkEpGOkPQ2QzvFrAPmQS0qSlpuMi8zRsMcWsw3E5YqehDarJajZ6LLUPATtSqvEDQpQvzmq3pnbRlHiWleySZm2agvjj7KuWKfpNXIkiUzHSZN8mUTkXXU4hcyhTFojDlPvRsHBkK91Y8gxJQSjmlfOpO5t09i+6tgjBj2jhks29HL93E7h9+wrkjp1BESSPjIF+mB7Cm990oCtH7UFbIHlr6AqaOxojddYQe2nzmX+rAnNelfUgDjBk1AoasrFPMc1xkW4OHvgt/H298Pnsa7W3JH0qshpSbiRv0Aiey/vk333yP6IcJCrjW0mOonNdQ01APtsE+MDLWw4NDVwjuM5UfBnIOSOTdmfXCP5r+HvT0yEB/wuVJgOWTzucnPCVehfZet++jJ712L2u/tWvXom/fvmo5/euIN57FcC8FWGYzzOZJz4f0PDzPIpNoIxj+krler9OiLvs5ODggLCyszNtP3eOVc0Ud8++x/dTV3uP5/CTtPQuwlO3mk0AzZdrH2LefXjLpzSP4kh4lQbKKrj1D4Jl5KGFlmhLmYWrSU2dLT1b/vh1JELGAOfP+fHxYGYYMcE2GWSUJZtuPe/HuezNhRCD69pA+6NunJ8won5SXn4EDvx7FylWbceM6SSiEsCX0XgpZuYbSORo5udA2ZiidYNHA1pY1tKOQy0o0VgwDd3ujI+rUrIqq/u7IzcvDmnU/Yv3azQSxKtRgzez2ndqQIKTCw6hI5gpSIJ2oMDEpmQCzSAnH3w6LoOg4a/wQgOqyJKOepQVD2ALpF68z/M3cUK9GFA73omfxGoXdK8DYwZUgizXJGS6XAJGKRgSX0loSWEoWuAZLJKaxnjjzLEsoU0SHpo6xBb2UjgqDXGJzqc9ZmJOI7PAzaBnkjWlT3iFZpwJJSGE4dPg0Du3cQxCcC4PK7rCo6kUJoljkXLoFLQq0l5A9r2VCDyXZ6ZokF2kTtPv6u/EHcwg6dmxFeU092rMAe/cfwacfzydpJx81KdHUuUt7tG3dANqaKmV7CkH8zVvhSExMxbLlWyjJlKHYRoNlO/UcLPhjQRcF9+MAEnmkR1piSgkqff288dUXn8LdzVUO+omX0oDl08znJznpq9Le6/Z99CTX7mXuo67vj8fzr/z6ln41XwqwlN2SouhSCP15lt27d6N9+/bP08Qre6w67Ld//360aNHilbCBuserDvmJ39tPHe39fj6XNt5nBZbyYkdRtHzOV/NZ+eWEAi7lZ9I7qGIunAwhKwvBppGJMVo2Z3i6QwsYVjDmDxB9ODtbkx3OEDdByaVLoRg/4SPcuXefhJK2eHfCGDjY2+Hqtavw9fWALlnVYSTpLF+2Fnv3HlW8gsRgMv0POsy1tG1WEypqRUrQqWJIO+HMDRTejYE98wvf6tsTVSmb48+cSOJb6nyuw8oVm1m5sBh2rs7wC6oOby8PlmhMRlJMNDJI4MmndzCJ4Or2A0odOblAV+ZZJiUhn4xrpKSihJ5BY/d6ioxREb2OWVe2Q8PEEuYBLcgkNyOIpPeSIFUBmATd0tMqPZZEk3yfR/JLOj2LkjHOakPa+vyMsFziM4LWwqwEpF87gzokDn328WRYMK/xQtg9nDxzDbvWb6Y3NRWG1TxhU9Ofx+sTvKooyk7ppVNXFXtIgCcr8GgwfN22TWN6rHvC39sDOvS8ZlA2acPGH7Fi+UaSj0rw8UfvoVpAFegRqJuZyRxX6XUViKa+pQ5F1O/z+h47cRFbftirgFkt1nmnUBKKc3MV/XoZIi/mueRFDKjqh48+nELWtrfyN/954qU0YPk08/lJTvoqtfck4ynf55+zwI8//oiuXbs+1wl/P/+eq6HX4OCXBiylbWfNmoWpU6c+k5kXLFgASQJ6nZfXzX7qHu+r3N7zAEsJnqJjHtJz+RHOnbtIeMEsO3roJClCVsSROYWaRH9Nm9ZG/z49mMeYB3cPT1YHqkhvWjESEtMwberniCBzPDQsSmGL/7BpDezo3ZRh5W49e8PH2w1TJ08gwUeXHrY8fL9mM5YsXodsVsKRIt6aBnowCvSFkbsz9RnpAdUWyIpNRez+cyxXmE4ZIxsMGjIInu72qEmWNLuIhQtX4LvVm1BAUCa9qVoEuG6+3qhRK5D5hyzLSDLRqVPncfjSbeQksYxkciI1GilLRI+frlsNmHLV0JClJ0uQdH4NtDMpj0RwpudVD2YerMlN0o8EixJYSk+lXDVJ1JFEHsl00tBS3JhKX5R/mIupwX4X5cQh7eo5BDhXxPfff00xeH0Sde7i4o0wfLdwKbIyMhiKt4c97WloY8w2tegtTUf8wQvQfJiohKSlsKgB81zHjBuKriHtYWRAljo9pVmM7oyb+AH27z/FvNJCfD13Jrp3bU0PJT2d9KyamBLkU4JJAcSSvZ5fiIjbt5HJNIEly7fhPGWY5PZH4fwiXj96crmWCB0FTM78dBp8fXye6TH6d8Dyz57Pr/L9VpqB/my8pR1Tvv2ftYC6598/2/tX62wvFVhKU0m2oCSjPM0iJ8iUKVOe5pB/7b6vm/3UPd5Xtb3nAZaPbwapJ/vu5A9x5vwFBcRIUCjDurJ8YNUAH3Rq34SeSh3Url0bFpYVmX+nwyzNIubvJbPiy3Dcv58AA2Md7Ny5EVV8fUgKKsDGzdupOTkDFagF2eutLhg9cjABqRVBayFOnjqDxUvW4BpD4/kEQDyRUv3GwKcSzMl61mPoOO1uHJLIKtcgGcevcmWEdOsEb1dbBFXzIyjNYRL+MlatOYQctke4pBCDBAEXISFDwjKrkjCZILCEopKCFYO0LR0oCB4AHSN75oxKKSENipYnIv3satY/L6D7lADVxR+W1Zor1XYUgF1EgE2PpVJ/nCBcqUEuPXz8nwcoRpJv5R6FWXGU7LmMhlU8MPeLKfTmauL8rQc4e+UWtqxYg9QEyvnYVYRD0yDqS5rTO8mQ/O0oZF64DS0JsukNrUDSU/UafniHtbqrBfizVSBHln08fgoJCfFo0awJZs6ajz17DjHvsiJ++GEVMkjGWfztRkwYN4T5ls48QgJgAmJexPTUNK7JOHPuOr6llzcuJo7AUvaW9qF3VZKxfP0q48MPJtFjWUUBnfKcT7v8FbD8u+fzq3q//Z1t/m68f3dc+bZ/3gLqnn///AhejTO+dGApzTR79uwnBoqSwSxZXuXL/1vgdbOfusf7KranDmBZQEC26JtlBHsrJBxTQtWaTCC0ZgWcTsxjrF7Vk15IUzKGrWDG8otS6zCX4dRZny3GcjK2dVn1RYds6tFjRqAXSxKepnTQh9M/QwJDz23bNsVICm6r6P0roHetfsNABVTFUXrox+278BPBYURENIqJ5IiHCL6sYMF64EY8dyaleZIJLrVIzAmsXRMtKdfj6W6H6n5eBEzplBdbil37TrJ0kA+0CRhLWIu7uIjFFooIApkbqmVgCO0KZtCraEmwyFA7yxdKWFWQmcW8Sx2u+kg4tgLa2cmKpqZR9cYsIRnI7SnEugSjioQSPbcEkzIcLgGbDHlLYCk/I9bkZ8UK+7sk9hY6Nw7C6FH9YEbwfZ46nmdIsNmzdReiIyKhZWXG6jxVYOrCcUUnIevGPRTHJEKTx0vPsCs1JjuFNEUIyTO2NnbyBGS3x2Hdxq3YsGkHgeNI9KX+5y2KpU+ll/jc2auoR3JTJaYD/LhtH+o2qI8Viz+Gvp4GPcMFSui8hEmi8XGxyMzOxa+HL2DLxp1IIhNfVvmR7cvX9h3bYOKEUbBRatQriPn/HyhP+O7PgOWTPJ9fxfvtr0zyJOP9q2PLP385FlD3/Hs5oyjbZy0TwFKaaNKkSZgzZ87fWmvmzJl4//33/3af13Xj62Y/dY/3VWvveYFlAb11m37Yhvnzvv1dRQoN5uyZo3e/N+BOwGNNUFTJ0QoVzUygzdrZKmparli2AbPnfEM5HAP07vMGUpPSsH3XHjRsWI85fjG4RTJYIL1vi+Z+AQ/XSti6fQ+++nIpRo7qQ+ZxO3pA9ZiyqMJVajru2rEXu376lRqUJAsR0AqGso1Y6cfC1w1pLAuZxjKSuhQ6969eGT1I6PFydoCvpyvSGFpetGAtNuw5AC0H1sJ2qEywyFxD+i1VFCqXYXWZs/jIu0hykkobWQ+voiCG2pXarA/uU4/VeG5DRUkgWFjDpmEIUm+GoTAmkjmXlADyCqb31IzHE3BJFKksj141SNJR5eci+8EtiIQ7GDGgGwb26arIFV27ex8Xr4VhO/Mho0lG0iCr26pOIAwsjZB2KxJ5tx9Ai+BPNmtGLcm2bZuQnNMSlf18CdL1kEox9wfxcbCxtMInM+di58/7sXTRHHRs25j+yGIcpszQkLffVXQ79WjH9u1ao237NmhSvwZ1KIFffj0FF2dHeNLDm5ubg2SmFNwMf4ide/bh6vlLyEghE1zqWxJcGhpVQLu2LfHOqCHPXLnsj8DyaZ7Pr9r99tsk+K+Xpxnvfx1Y/sdLt4C6599LH1BZ6wBzc8rMQtAon95/uk6fPr3M9LOsduR1s5+6x/sqtUdg+czTkLl6YuPmraJWcFPh4VlduHlUE2589fKrIeZ8/ZXYd2C3uHjprLgXGSryChJEQVGSSEi5LxYvWyL8/AOFrbOXeGfyeyIlI1mkZ6WIDz79XJhbuwpLW28R3LiVuBcbKYpKMkVqVpzo8/ZgYePoLVzcq4j+bw8Xt++GCZXI4ZolsnLixfGTv4qOIZ2Es4uvcHTxF/YeVYVjnWai8tCxwq1zP2HrHyScXLxFo5Ztxcp1a8Wx00dEStpDkZYRLxYsXChcvKsLy+pthHv3L4V338XCp/8C4TdwkfDl6jd4IddFwvPN+cLUsaowt3IRZtaVhKlLLeHW9SNhauko7Op3FM6t3xbGlj6iYkUPYWrjLWwbjBCevb4RPv0W/mf1HbiAbS8UHm98JqxrdRbu1RqIH3ZsE5nZ6eJ+3H3x46GD4vNVa4RfzQbC3slHOFarK3z7vS2qjR4l3Js1Fc7ulUUlV3/h6l1VvNW/jzh19gCPfShUJWmiUJUuLl09Jzp37Sk++fxzka/K5nWYL+wq+YnNO3ZyH9qrJEskJccL38qBwtrWXbh4BIi1W34Q+cVy26N18crVYtjoSSKvKI3XLUlE3AsV5y6cE3cehItpn80WXr4ct0d14c7VwyuQ17KmmDhpqigqKnimuSTn4OPn9bM8n1+l++3xOB+/Pst4n8nI5Qe9MAuoe/69sI6+gg3zB3nZWkaMGPGfh9Xjm5j5lGWrk2W4N6+b/dQ93lelvWcFlpQWErv37BW16jQhuCCglKCSq3/V2mL8pLHi4pUDBDmHxfWbpwjg7okCVaJITosUk6ZNER6+gcLO2Vd0HzRQJKbFiSKRx30SRONWHYQFgaWTWxXx/kefEIimifzCVLF24xrhXbmmsHP1E03bhhBcVhNBdVqKbTx/bMIDAqo0AsxUkZMXT9A6X9Rv2Ey4Elg6VPIXtlWChWunfsKlzRvC0b2qcCIoq9eopfhy3nzxy8G9Ii45UmTnJBAgbxF16jcXNj61hHO7ccLrrXkEgwsILBcK3wESYH7DzxYKU/sqoqKTL9scKWzq9RCVOr4vTJwqC9v63YVdw+7Cf/Bo4dq5tzC281WApccbi4RP398BywHzhFuXD4Vt1eaiVcgb4sTp4wRwmSLsfrhYvf1HMXn2HOFOEGzn6COcKgcJ7+7dhXv7TsLBp5pwdvMmIKwh2nUMEZu2fS+y8mJpuwwFLCYmR4tjJw6KTp17CCcCSU//ANr/olj87XLh7FpFLPn+e0biC7nmi7v3wsSR4wfE20PfEXYErzX4w+DqresiPTNJfLd2nfClzRzcaohfCHJVJemisCidPw5uitlzZovP530uQrq9Kbx9aghX9wAFXHoSXHr5BIrJkz6kLbOf+qn2GFg+z/P5VbnfHn8XydfnGe9TG7n8gBdqAXXPvxfa2Veo8TITCucN+59lyJAhWL58ufL3tGnT8Mknn/xnW/mb0i3wutlP3eN9FdoLCgqC7OfTLjdu3MLQYeOQkERGtHKwBkwoI9S+Q330erMTrKn5SGI0iTBaDFtXUIS65X7pzE/ctHEvNm3bhQ1rv4GjrSPLCubiizkL8c3i1cwPtMTwEf3RrGl9FOTl4urVm5S7+Ykh7zAScELwybQJZGxfoGj6dpy5cBHT3htBqbBmrBOuC2NjAyXiHEHB8B937MGxo+dxO/w+ChmG1iB7XJBVLqvoMIJLgXZLNG/dBDVrVYW3uyuc7Bxw80Y4llGO6MiZq8g3rQR9ax/oMMdSHiCrA0nR86wHF1CcFwePkMGsoJOKpJs3kXbjKPQsbGDk5A3b6gHMsRS499M6mHo2YM1wKyWkrkF5n6LcDOTGR0Cbouhd2tfD4P7dYWtni3vR8Th/NQxXLl3FqYMHkca0AElI0qKcEEsFUZcyl+kE5qhazRstmzZEq1ZNULEiZY1IkkpMTsPt29FYs34TPp4xkWkGRZg0cQaO0Ubt2zZHVZJqFsxfhi49QvDpjHeZO0nSkBKWLyZpSpKuPsbJ0xepZ1kDfiRObdq0lcx4a4SEtKKEWCNUZT5qkaoQ9+5HknSlCX1WWEqIz8TuXcfw896DSE7MYK4lbSoJT2x60rtj0a9vL4Vt/6RzSobCo6Ojn/v5/Crcb+XfR086K169/dQ9/149C6i/x2USWMphSoKOzAUq6+UG1X9J1NPi62Y/dY+3rLd35swZBAcHP9Vk4Q9eDB0+jrl6xx4lnPBomTP49sBu6EryTVpOIaWEUpBLCZ6HWUXwsDFHfT8HVNB9BGpymR947Xo4agRWI/EmDocOHceixSsIOrNJBBmG4YN7w9jImDmXP7O03QwUkrRTyd0JW7asgQMF1iVAvXHzNhbOX4xFiz7D9Zu3cITVaN7q1YVAzYpbVUr+YETEXZw5fZUEn4MU/L5DmR3WKycpRyHT8JlgbGqKIOYuNm1SDz6u9vDz8SRxpZDauLuwZtMuRGWooGMZQPKO26OcQnZf6oEXF2YROOmw7vdtssNNkXJhG+toW0LbxIblDqkLaeqL9Mg7BKX8jOxuwVzQvNQIFDy8A297Y7zdpyNatWS+I+WHrt25h/DIhzi87yBuXLiCbJa/5FmU/3T0teDt4466deugNgFwlco+BOxkhBOsF1DqKCsrD6fPX8Znny+mjXJYW307gSNw+uRl9BswBqYs9ehfxRsnT15gpRxDdO7cVgGbAZX9qA3K8pKUhTp99jLeJ5nnzu17ZKLrsB55QwwY0B0BZJVLOaFCkqYeJKUgOSOd5yiEAUXULahLWpHr6dOX8fmsJayKlK7YVOZdBhJYL5z/BSwszDmOJ1ueZQ7+Vctl/X5Td//+yg7ln78cC5RfX/XavcwCS/UOs7y1cguUW0AKiNcMbsQa2ySQUCORDkA0aRqIye9NpCzNehw4cEQpjyhYTrDY0BwGjl6oRBHy0d3roL4Pyw6yTrWUJJJs8oWL1mPFik1ITc+g8HBLzJk9A6YkhBQWFKNn7+H0Tl6lbncRAZwWutMTJr1qTepUgauLC5IooSM9jzt27se0D2bDlCSXkcMGoNcbIYocjpTOUVF/MokewJMnL+L71Vtx6+Y9BZhKbypVwknC0YJfVR90aNcC7k7WqFmzMgxI4AkLu8O+rcKBI+ehsnBBBftgeh7NFFa3lt6j6jpgfe2inCQknd4MEymj5EAPp1VNEnBMyCCnPiTlKlW5SSTonIdBUQa6dWqKIf26oRLJQw/jEhF67wHCKAr/w/ebkfDgIYGe1P4kg5xexebNG7H8ZXd4e3rg2Olz8PFyQTV/b4X9HhZ+B/MWrCQLvB0JUZYYPGwKWfcVcGDvJpaelGNW4YPpc7F+3TbosUJRLks7FvMzHcomWdIj3LVrW4wd3p8eXiMCxyLMmfstli/ZQFDfF2++1RGmBNyStJTEHwWLdp7G5avhKEmgtFFsHArIsNcjc7xGNR9MnDictdwPKqUfpaqSnAkuLs74as5M+Ps9m6Zl+d1VboFyC5Rb4LEFyoHlY0uUv5Zb4F9ugcysbATVbqiASuJKerY0sHnzUmynbM2KFRuVWtSKCQiQZAhZLoI1qg0pHv5G99YY2joAthVZdYaVcmRZwRXfbcayVWtw4tBuVDQ1QhE9i0uWrsJns5fCksDxnTGDWM4xChs37ELvXs1YjnAShb/1FYH0xKRUTJz8GfZSm7FrlzZYOG8mq8bwvIoipVBAlia1KKU0jgSZFy9fZWnHH3D27HWkp+Uhj6x2KS3kSEAU0rk13Fkzuxq1N51Zq1ybOo17fz6ML+cxVMvylEXm1Mg091NkhjQ5Nm39fILHHMQd2sRyj3YwcQ+i2Lod29MnqzwVuXGh0Ey7B2d7U0x/fwwak/Gey/D+hVuhiKWU0u3wSPzMlIBkalTq6erSq2hEHcqqTDHoTf1OM2zctA2urKv+6cefol2HdhR2n421a7bg01mLWB1IhTFj+qJty+boPWCs4p08tG8rUw9Yl52yRp9//i3LMX6HItrfwcEGo1gnfN2ajbgTGkH75sOadh046C3UrFEDFy9eJnB1ROPGtSU6JNhU4XJkIqYu3IaIMyehwXrsUtlTAnWJyiWAlF7TaoFe1A4eRB3LOYiLTVMAuxPZ5LNnTyfwDFCue/k/5RYot0C5BZ7VAi8dWCYmJirlHU+cOKEI99apUwfdunWjqLK1MqbStj/rwJ/0uNLOX9r2Jz1PWdmvtPGUtv2P4yht/9K2v+j2/tj+v/nv3wNLGVa2tLXAru2rWY6xPyKjHhLwEXooeXfUOiQ4k1V4SihEriIK1bF2RHPmCA7s2hQ1GObVYQhdVsDZtWsvJXPaIjwsih6yW8wLXMlwehL69n+DlXfeQVJGLj6cMRMLv5hGEGVCh5pAPr1tPxP4jRn/Ib1shszZXMKcQB+CWQl+5FnBspDXEReXzHB/EExMjNivEsVLdzfiHkP5p3H23FU8iE5BbGwidPUqoHbjWpTZcYKLoy1qBFRBJYIyCV43btmBIyfO42ZUPFQGTgx727FOOL2UrFgTd+4UjOzdlZrf+empKEiOgmZ6FLxdrNG6VUO89UZnlk3Uwq3bEbhCT6gsrXj9ylXcvHQNFSmN5MRqOjUordSwXh1WsaHXU1efsmkfYeP6DfCgp9eKskGffTELHm5OiiD8pzMXYPnK9ahenV7DccMwhcCumC7gs8f3EKAS/jHEfYltH2SKwfqNuzjeQoasP0S9usHYvuMn7OB65UooAacVer7ZFl1C2qBSJXtaSwPx6Vn46fgFtv8j4sNCoU0wrsOUBhkWl27mokJZm5ICTMwJ0DfQpWd0OHUwf8HVK3cIqAX+KWBZ2v1e2nZlEC/wn9LOX9r2P3attP1L2/6y20tISFC+n0+ePPmf72dZitnKSqau/O9S2njKSnunTp3iD7kS1K9fXykt/Xg8pfX/f0dc/smfWuBlEo02btwozM3N5ffIf60VK1YUrL0sStv+ovte2vlL2/6i+6fu9ksbT2nb/9if0vYvbfuLbu+P7f/b/87IzBKevpQV8q5BNnANSvi0EcnpMaJGUENK+lQVbpTuqVKjvqhRp5Go27ilCG7UQgTWaki2cU3h5O4v3CrXFs279hYrN60TKVkPyWxOEwXFqSK3MF6s/2GDaNisvbBx8BdelCSSbGVVcQFZ5QUiKuauKKZcTjElhvIL08SnlNSp26SNsHL2Ex9+Nktk5SYo20q4vYT7lYhscZHyO9VqNhRDRowWq9d9Jx5ER5DpLJnUqaKoOIVs9Ehx/vIJsX7TWjF5ylTRqHlbUatBW9G685ti2LjJYsXqteLy9SsiNTNR3LxzU6xYs1Z0fKO/cAxoIuzrdBKuIWPIEJ8hXDp+Kuzq9RZ2lRuKZu27iXlLlomroTdFUkaKOHLyuJgxi2zqngNE8459RMuOvcTbI8eKZatWiVPnjoqU9AeUVUpjfzIVhncRZX9uht4Qk96bQlu0Ei3bdxXDx08RP/16SOQW5Ir7sdFkxTcXDq4BYirZ81UCGwpblyriy0XfivDICIVlX1ySJyRTfPLUGcLVK0gE0P6Hjh3l8Xlkop8SjZu2Fjt+2ko7Jiq2yKc9Dt+8JAZ+/LHwrttMOJHh712llqhVt4lo0qKdaBvSTbRo01EEBTch8z9YeJI971+1vli9cZno1buv8PWrJby5Nm/VWVy4fOWF3gKl3e+lbX+hnWPjpZ2/tO1/7F9p+5e2/WW3t379emFmZvZf383yu9rCwkL5fn7a/r3s9nbu3ElJsYp/OZ6nvR5/HH/53/9vAflr9aUsa9eu/Z8L/EeAWdrfW7ZseWF9L+v9U/fA1T3est6euu33KrT3R2AZULMewc5d0bV7H+FbtYFo1jpEtOvUVXR78y3RZ+Bg0X/wcNFnwCDR483eol6DlsLTL0hU8gwU/jUbi/HTPxYRMeGikMBGrhnZMeLXw3tEUwI8W0d30bPPQHHpxhWCrnxuz6feIkGhyCQQzeI53qDmpZ/wD6wrDh77lQApRwGTxQSUElRKALl0xTJh7ehLDUwf4eIZIOo1bC127d3NtjIIQiXApFQRQWiRKoOalrHUbLwmvvtuhejQsZOoXaepaNKyi+jVb4iYSRB76do5kZOfLqKio8Q6PjPa8PxOPrUpHdRE2Po1EvVahojVBJ6RD+4SiCaLk+dOi2FjxhOsthMBNRuJdpTpWbriW3Ej9CxBXxTllFIIlDMJKjNEUmqc2PzjNnE/5g77lSuOnjghatZqIoLrthBtOvQQptYeIrB+K/HL4cMiv6RQbOD5rRz8RHCDVoqsUkUrL+HoWYPAtYfYq8gE5dNmOeL+gwjxZu9Bws6lmqjTqJVYvmqliEu8J+5GXlV0RVUlKSI5L1F8tmWTCGzXTdhTNsjNt4ao36St6PZGLzF46DAxYvQYMXr8eDFo2HDRrVdvXt/2lChqIWpSamrr7g2idduOBJY1qV9aUzRt/WKBpbqfB+q+39Tdv/L2/ttZVNp3udz+++9zddtv69atZRpvqHs+v+z2XkooPCYmhqEjP7IjWYbtORYTExOEh4fD1tb2OVr530PLev/+t8fP94m6xytJCOq8vupuT93z5fms/88dnZ2Tq+RYChkVZdxZkHDyyScTkRiXim07D8Df300pDaijxZraDIXrsJyLNkkyWZmZrM6TgxiWGnwYm4AMhl1LGDL3qeyLdycOQ50alRkylkHsYqSkZmLalNnYt+8IQ+12aNcpBBlpaWhQx59lIlsy5B6HNq37MNewgLmCPTF5wgjWymbVHJJXHi8U7EbjJt0QFZWIoSN6Iy+/AN8t36zUL1+0aCa8PByV0pJr1/3INjspTGcdMtdlDmEGWdB7fzmIH1kNKCs9l/mW2vBg6L4Dq9fUrh3IcxkxhF+CI4ePMhdyJ2WLAtCzR2dYmluwPncmfibLe+8vJxHGEor6FbSZN9kD7Vo3haGeMcPxrEFOtktBQRHD7GkMsZ9m/uhPSv/nfjUFlZyc0DGkN+2Ti6/nf4qAatUxavS72PrDTrRp2wpffT6doW+B7m8MwYPIKKiK89GVUkyHD51mmD1LCTVOnjwKA97qzlxNHVy8dAM93hqN4CBvTJ/+Dtw9KtFOmlAxFzP0Xhy+XrYOHCUGGAAAQABJREFUh3b8Ag2mFliSde7r7Ub2uRmsWE9cU4u102UYnEuRqoR2yabEUSoimBLQuEkQXN1cMP+L5SQHFbNPgFMlJ8z5bAaqM41A3Yu6ny/qvn/V3T91P6/KanuSLCa/f4solaWO5/2Lak+GvL29vcss3lD3/VYW2nspwHLlypUYPHiwWsb//fffo2/fvmpp63EjZb1/j/uprld1j1c+aNR5fdXdnrrni7quw4tup5gP2BatOyLmQSwhmNTg0YCXtysmvDsKa8lENmTeoBXLDxrqaaMCSTsyD1ObAFKTayZLBKanZyIpMRUP7sfiwcNk0AMKXUNjdO/VGW92JYGG7GwdAtFiAtddu37BypUbEX43hmSVQRj2dg/mNKkw56sVWLx4I1w8HLBq+dfwohalBIQyv1IQ8aYStB48eIz1xz+Crb0NvvriA+YwBqNzj6G4eTOULPIx6N+7Iwk9JejbbzSioh8SHNZAYFAgcyzdYEP5IH1KBZmZV8A1ammePHkWDx4kwtbRnoC2Aby9nGCgp88z6jCpUZKU2N+SQkTHx2DfwVMIY9nFiszprFndH3WDA2FiTEBJ8ktCQgoOnbiIxPhUHD96Grcj7iCHYDubzO22HZsSlE2lHmgFVK7SkOUuK+CruTOpXdkU9+5FolffYdSejEGvt7qgA2t0nz5xhnmYPyIjOxML5s2CG4k+S5evweHDp5GVm01JoyZ4o0dHWLCU5vHjpzFoQGfmmVZQXEAPCWh/PnoOa7/bhrjbkaigpwN7Jzt4Mo/T2dmaOavGMOJ11JNEKBo1Pz9PkWpKSk+jrZKQkpGJt4f2w4K5y3Dr6h3mXFJWiePz9fXGIsoNOTjInE31Lup+vqj7/lV3/9T9vCrL7dGzqEiEqet5/yLak/YbOHCgWib1i8AbaulYGWvkpQDLMWPGYMGCBWoxxbhx4/D111+rpa3HjZT1/j3up7pex44di/nz56ulufHjxys6e+psT/5iL8vzRS2G+0caEZg3fwkWL1lBsPQIWBJXYODgXnCjB2vfL4dRq2ZVGBnqcTUgMKGMDldNLU3qLxZSq5Fer8RkxJJUczcyFlFc09Kz6fnUQo26NdCdcjjNG9aGuSJ4Tq8amcxHWN9aeialwPep0xeovfgF7t59iClT38GIYX0IXIko2ReGbhSP5/ET5zBt2he4c+8h6jWogUVffwobEvm6vzkcJwnIRo3qi3fHvc2+5KJ5ix709OUQzPkjJvYhPXnacHJyQU8SjHr1bE0PIPUcycKOJviMpCxQchq9gnTiBZI97mRvzXPrkOWdhAMEsiepC5nIWt01Aqugip8nqlauDHcXR4Jq2T+h1FN/m/JAN29G0fMZgDq1q+O77zZAirr3H9gLH304jmPURqPGIYiMjMF4gvWRQwfSPlkYNOI9nD5zkdqUHti74ztkZaRg+rSv8Mv+I3Cu5Ig1a5YQyBuQJLETX339HewdLDFkYA8KqtcnidGc16AEqVkFOHQhFDu278Z5AksVvc/GxhXgUskOTg62cHNxYs1vC1iSmGTI66fHHwNaFMfMySErnh7NeP4guHw9EnUa18EFMut3btujSEdJ8MkToEf3EHz4/iRoS0FNNS9l/Xla1p9/UrdUnc9TdbY3ceJExWOprv69iPbk98e8efPUMqtfBN5QS8fKWCOvPLCUD4W5c+eq1azqfBC+iP6pdbBsTJ0PVnnjydCDuh40sj35IFQXsHwVroe6r+//t1dCbcgkdO7aj57HZAVQSN1DaxtrjBo7AIW5+ThF8Ca9Zbp6WooYtxbZ3xJ4FBFY5mTTa8lQc8yDeIRGPEA4vXsPo5MJXvIALQETCytUo3C5BH9BDNvy4UKPWQH1E3VZ7eUwH+4rcZvC4kZGRvh+zTLUDPSmx4zSQkUCZ86dJQO8Bg78egLjJ3yEzJwC9OjRDh9/yC8uxmpr1+1AD2Emxo0djDGjBlA8fQ9GjJpOsOaLmZ++B1NjU1y/EYYfduzH6BFvoH6dGuw2VdEF2e1kRZ8+d56C5IsYXn8IRycbjB/XD/XokZR/fzb7Wxw9foWgSpdeRyPFXKYmxujWtQ2GDO0NPXphZZj/+7U/wJxjDCawBD2ewbVb0NupgSnTxmLowJ4KWB80eDz2sLKNBQHe+++NRpcunbB67Y+YNWcx9Ay0cPzXzbA0M6J38hSr3XyM1NQc9HwrBO9OGMPwty5mzZxLwFwXdYKrMxVBnrcEx8NisXLtTlw6fAzpcTFK/4wMDGFHdrinhzM8CCodyYKX1Y8szI3pZTVQUgBA3VEVNUdlyP3w8WswZ5WiOHpcVy5di6J8ph7Q9uw0DAhqt2xcDU93t/+fKmp8p87n6Yv4Ylfn8+9F/LBWJxBUd/9eBBCUHkZ1fX+8++67inSZujDCi5h/arzVyk5TLyPJcxVZlbSAWtY1a9aofQhlvX/qHrC6x1vW21O3/V619tas3SC8SPTw8mFNa65uJH6069pTnLt6WqzfvEZMmDhR3Lh1ToSHcw07K+5GnBehN0+IC+d+EQf2bRaLl3wpxowbKUK6dBOVq9UVzqzl7cC61nK1Y71wu8Am4iPWuI7NjBUFJclkO6eQxRwnTp4+Itq176LUFbd19BLjprwvtu/eJdq0CxFzF3yl1A6f9cVnwsGlsvAgA/3spQv8LEu8N32qsGJdb3vXamLJyu/IkM4Unbp3E9YO3mL4mHEiOTWBbHIVSS0FYj8Z1OF3bynEnhKSaYpUuSTmrGF97CrC3aeKqFW/CUkzXgo7/uKtUyJPlSy27d7GmuasTc7a6Su+Xy1GjZ/I+t4cj3MV1jtfq5CJJFknnSQhFYk1xSJHnDxzRtjYews/Mq1/ObRHIRRdvnJW1KjdSFjzcye36uLclfP8vECE3gkXzTv0FOZOAWLBiuX8LIvtZIp5C+az5rc/7eYlRk94RySlPOS5SApSsc4317v8e/i3K4VjcAhrtPuxDrmXsHXwIoO/svCrUofkoK5i9NjRYtGi+WLXrg3i/Jk9IvreGZEQc0mkJF4RaclXlfX7NYvEtp/W09ZbRDCJTd7evO68/t4kY8l17cZtJE29uEWdzwNJ6lD3ou7+vU7tSaa3Oser7vY2bNggGL5WC9aQmOVFzD91z+ey0N5L8VhmZGQoybRS0+p5FhsbG5aWi1A8IM/Tzh+PLev9+2N/n/dvdY9X/sKWydLqur7qbk96zF7XJYNev28WL8e6dVvoCX5EmJH6lfJ3nqxp/e644fSipeNuxF00axYMBztrxQNdTC9CFnMCY0neCY+4T29lpOKxjHyQgGIZLma5GltXB0SFxSCXuZdSmNG/ZnUM6N0FDYL8YG1mrHgnc3ML6dE7wtrWOyiefgcpKRn0TLbB3HkfIZX1s8eN/whHj15ArXoB2LJhOc9dhAmTPlFE3O2dbTFu9GB6SR+ygs1yhui1qUHXgfmbfbkfFE+drS1LJ7I7MgzODFGWhAzH2PHTWUoyHCtXL0Ct6lUxcdJUHNh3HO1CmuCbhZ/j2PGzGDvmE+aK5WIt66C7uLgwb3sErl25Te9hEJYt/Zx5m4aPpgxF2UtEMcPgW6jP+SU8PV2xZu18OP+WmygJTmPGfYgTpy+h6xvtsOCLT5RKR2Oob/nzL8dYbacHPmGYXMahfz10AitWbUL/fiFo2Kg2cz91OQ5dRLPU4u6TV7B6/W48vHYWeiQL6bNUpgXPkcIqOroyzM3xOTvbw9eLHkuWzfQkocnB3hKWFqYwoAg94/yIfZjI9IFLJFE58NrlYvGi1Yh7mKIQs2QpTyUMzlEFB9fE9A8mM6zu/J/P1Hl/qOv54uDgwMpKYWX2ef+4f+p6XpW393z44LH95Fz29PREfHz8c03rx+29zt8fT2zAl4Vu1UH/37179wvrflnvn7oHru7xlvX21G2/V6G9xKQkMZUyQf6V6wgf35r0WnGl1IzUMfSivqEnvZdNW3YUGylhs//QXrFwyUJx/spxkZ37QGRlRInYmGvi1MmfxffrFol3p4wXrdp1EkGNWwnfoDqi19DBolmX7sLRI1DYuVYVtkGNhU1gfeFO6Z0+E94Xa37eK6JToikXRI8cPXZJqdFiy45tovfgUeJ25G2RkZNEvcq1onJAsHDi8bv37RGFRVli996fhE9AXWHjXFlM/+xzkUNv5e49PwsrRz9FD9I3oJ5o3rar6P5mf3oGr9Ljl654GEvoVSwuLhTbKAXkU7mWsHX1F7EpyUKlKhRTaAP7Sr6iabt2lD/KFKcunBRV2U8370CxiftLeaShI8dTEslXtOrYRcQn3qFHj+1RY7K4JFukpsdThmmwsKQU0oBhI5R+Fpfk0gtJrcqYCLF2w1rhTo+gi2+Q2M7+b/95twhu3FY4+tcSR8+dVDyWhapUcf7ScZGo2CRZ8eze5nmW7v5RdB0zQVSq3VRY0bNoU72BsHevRptUEdWbthNt+g9hXxuKoLrNResO3cR4epeXLP5aHDqwVYTeOC6SE6+JzIxb4uChH8TK7xaK/b/uErO/nC1q1KwrXN2oRepZldc5UPFYy+sv54GUHBoy7B0RGhpGz++L8V2q43mwf//+F3abqbt/5e09fUTy99e3rNvvhU3Ef0nDL03HUtpv5syZz+yiZs7dC78EZb1/6jaAusdb1ttTt/3Kcnupaali8rQZFDuvJXwIJOXqx/BvFYayh48eLRYvXyJGjhsn3L1riaDarcTncxeIY2eOiikzporv168QCSl3RczDa+Lihf1iw9YVYvjEd0TrHm+K6g1aiIFjRoueQ4cKV/9gYU9g6di4vXDvPlg4Uszb2ruasCKo86Z+Yo8xU8Wag8dERmEqgVQ6tS1TRVT8HQqsp4gDR/eITt3eEPbOPkqod9rHM8WXCxaKxs07MLRcVQQ1aK4A0CICuOWrVjAM7iPqNesgtlL0uGeft8X6jZup/yg1LqXAei7XfBEbHyP6DhjySAuTYCo5M4Nh5kLx6ZyvhaOLv6jdqLHIyE0Tl29eEYHsn6t3TbGEbd+5d5tgtZOwoNbmAI4rlwLuUl+zROQpa1JKvGgf0kPpw8KlS/lZAc+bJ5LSEwjGF4uY+CgxcswkalAGispBTYV/rcbCwStQfDx3nsgvSuP+sp/pBNjU4uQam/lQLN+7V3QcMkK41Ggo7DyrC2tpy8adhVObPsKufg9hT5DpxDbaUpuz25B3RF2CzLZMX3h71CixYvlCcezwdhEeelSEhR8X8+bPIvj+Uew7/LMY8PYwAskaomZwQ/HJZ5+Ib79bIkaNG6sATV+/QILKIEUkvQrB+/CR4yhE/+CFTWN1Pw/U3VF196+8vScHl3/2fV7W7afu+fdvau+lAktpSCbVPjW4nDVr1j92Dcp6/9RtCHWPt6y3p277lcX2VMUqsZIC4FVr1ldy6mS1FT96z4LrNRS/HNhBYJdAT2CMSMu+L7759hvh4REkPLxqi+HvTBRhkTfE1wvmiJ59+9OjuEqcOLVHrN6wQnTt01/Ub9NBjJnxoZjEqi8+BKh2BGZOzXoJt64fiEodRgq7Bu2EXXAjYRNQU1gzZ9FG5i0G1Bf1h08Sa06cIcBk7iWFvh9V8EkSSayms2rNKuYpNhBmNm7C0t5LWNn7iI7derJ6TyQ9icyZZI7j4CHDCDZ9Rb9ho9n3LJGQGivyC1IVsPYIWOYrYC88IpTAtC2BpbewcPAUX8z7WqRlJokR4ycIeycf5mz6iY8/my0+/WI2QWUQ11oUVR8s6lK83IrtV6WAfGjYFXrxMtgeKwcpHstcERp+QzRqKtv1FMfPnKSnMo9e0lyxeduPYsLk99jHTPYrVWzdvk30emug6NNvqPh5/88ipzCJfczk+kjgPZtC62uOnxfBgycLW396ZStVFTbMBbWqXI+26ygcWvYUTm0HszrQSOHQbADBZS16VXldpn8k+lL8vC6F0/u+PUIs+D/2vgNAqup6/2xnYfuyBZbem6KChQUF7Bo1iQGN3aiYiJEmmD9IAiYBUlAiv8QUAekklCRILEFRMLuAiEqT3lnYQlvYZfvO+3/nLbMus2XamZk7M/fpsjOvfO+c79x337fntj++bvxr9Vzj569NMH70/DPGzsPbjL8j83nLrfcZHSH0r0E2di2Ee1HpSaO0kmOdZ3yW/SH6tt5n9ERmlcuD+dP7euN3v5uNTG+lx4qxdH0gbai0fRrPvrhs6n2uOn/S5S9Q8HwuLJnIGTNmOCwuZ86c6XXuVbdPmhBpf1XHk+ZPNbwdO3cZ30GGzRys0RsZKizROOT2u43/fvQvDHhBM2zlaaOkLMcoupSDlWUOGgsX/9kYmDnY6Nq5rzEIWce/LFpsrPhwjfHz384wnvjxC8ZDTz1hjJzwivEmsnu/nPUGBsTcarRB9rPzd58yrnrhNaPzQ+ONDt97CT/PG22xokubW24zWl070Ejreo3RutPVaCrHgJX+dxpDfzLZeOs/Hxnbjx4wzpflQWCeg0A7ZxSXnzY2bFxv/H3VMmPrTqyaU47MHg+agXg7fvKIMQTLQaZh9Zo/zZ0D23nVHjRDYyWewqITRml5AYRbzfKRJWVn0Qz8upGOgT8D7/4eBuoUm8J0xqw3zeb2Hzz2FDKWZ40T+ceNAUPvx4Cbfkbf/kONBx58BFnNGUZ+wTFTCBrILlp/qpFh/PCjNca1WPoyo1Mv48ud241P/rfeeHXqL43OWILxweE/gg2Fl8UjC8iaHxbPlRDRZ4tOGdl7dhi/eOfvRv9HxxipfW42Utt2x08vI7Xzdeg+MMRIH3Sf0WrwQ0a7e5832t/3gtHmzmcg1F+CaH/GaN11oHHtwHuM8RDEv3jzTeO5MS8bz/x0tDFh6hRj3j+WGO9uWGc8P+4VDEbKxGpKmfiD4Cnji+1oci88iEFPJzGIKh+cFZi/1//vfeMec/WdG42evW80ekBY9u0/yPh865ceLcLS9YG0sdL2abzGxaUj73PV+ZMuf4GA55PBOw11AH3llVfo97//fUOHavchNU6TJk2q/e7ND6rbJ82FtL+q40nzpwoeT4r++qz/w2CTJfxHJMwKoZjYZvTU09+nJx4fjiltojElUBmmzanCnI0YU4IBPeXlxRhAk01/+/M/MGfleQqPjKJuvTpT126dKDYxHtPyRJhTDOXn5tKur/dRbsEFCunQk1q06YTrMb1NeQVZMM0NUQVVll6gUEspWarKyYI5FS2YCzOkAvfCBOdGKAbYxCdSRpdudDPmrBzU/yq6rltrSk/AQBlMhRNCYZjhElMG8Zw42HhQ0bz5KzGYZjHmryymWzAn4+23DqRr+vbEPJBRtGXzF/T9799DSUmJ5vkWI4TmzVtBv5r2R+p+bS/6YAXm7wTUpF/8lpZi1Z7Hn/o+/WrqBMzRWUnDhr1Ie3fvpYcfvZcm/uwlimkehUFAYbiz5fLdmTsyV6lZsHA5pjh6iyrAWa/efegw5rJsEd0cg2g6UPce3TAQ6ClM+8MDxHhuTou52s5J2P7F3gOY1mgHZW38kk4fOkwg0ZzxpxrTGVl40nasQBSZnIbBQRGwM5zCsQ/JQyo8mEUt0jtTbJveOP8Sle/dQenxzajXVd0oo30GVv5pjtWJyujkyVP0zVd76Fz+acQ4mm69ayA9NOw+DMBKwio8EZjPEtNGYaWdMKyqFBUZiQFJEfT+f9bRjBlvmSsKsbVcRHr37k4L3/kLpj/CikiXvWffJTfp+kDSNsaStk/j1Y+QM+9z1fmr711w71FGWHIYXn31VUJavMGITJkyhaZOndrgMW/tVN0+aR6k/VUdT5o/FfAqsQzOT0aOw+jgTTCnZjWW/td3pZdffpEOHMjB/JE76MyZMxAeIZTeKo2+98CdWAmmFV0qxehxjCJ+99+fYaQyT5RuoVCMNI6E+AkPj8T8iFVUUlpC5RAiRpurqVnLToT5xiEsS6kao5hDMK+lYUBIVpZiAHQ1FBnEa9klCi0vpUqMUOYFGKuLcay6soamyBhKbp2BZQvb0c2YX/LuwdeZdkRh0nFzMnecdQmTgu/ZdwiTlB+irP99QVs+34p9lygNS7ryZODPPTOcHnv0exBONUKUgT/8IJt+9upvyMAKNZ++v8wc9TzuZ6/RJx9voJ9NGkkvPPs4/AulJ595mTZ+tom+94M7aCaWXuQVh1gY8kKVLC75swUjuVmEzpz5Nv35rYXUAgL9+uuvw6ToA6nP1d2oDUZlx8TEU4vmzc3J0ktw7tdYGvJ/mz6nL7/cTfv2HKKzBQUQ1uAHvIWFgbDICLLExmEyyTgKgYDnyebDIrDqUVg0+Cqms3uyISo7UlR8a4qMTaDETljOEnORlu7cQs0rirHsJE9kH44lMkupAnONhmDeTl7J6Lrru9PI0T+i1ohpNObD3LxpO733/no6jxk5eCWllNSW1B9zjt484Hr6E0bYf7w22+SG//jA8B1a999/Xl6Fh3nwzCZdH0hbKW2fxvs2Qq68z1Xn71vv9CelhCWH48UXX8SSb29dEZmJEyc2KjivONELX1S3T5oCaX9Vx5Pmz9d4LCx//MIY2oilDXl6GRYVD0I87d65xxSWZdB8vP51CCb6tkA8/mzSj2k4xCVPqbMG64e/gZVgKpCB5A0JQMgrbJdXo6mACArt2JOapfL60pBgyOBVQ9xUV2Cd6qgSLGtdQeGY+abkTAEEJCb7hri04LhhVFAopi+qxPrYhCURkUYDbjUZ4VGmKIrEFEORLeLoOqzjPey799Ktt/TDMovRZjaNRSZ0Llb7qMIa5qW0bdsOev/9j2nlv96jL7d+grWyL08LxHYCraiolF79xeu06p8fU99rIf7atMLk5FnUFuL5H0v/isnKY3HvUEy8/issQ/k+lry8hf7vDzNqlkRkQWn6XM2/zO3M2bO0eNG/sPRlMt1592Bz6ptwCG5enYjFchmm2tq9/yS9/9+PaN1Hn1I+ls+sqsJE5Vj9g4Uf82fGgbOxzWPIEhNJYZh0vaqK12eH0IRI5N+hkYngMJ7yd7xP8Rk9IH4tVFl4mIoLcqjXI6Pp4tH9VL1nK4Xjfhw73pADNoPEtgwe0p9GjRmBpSB5SUqD5s9binXNVyOWELUoByEoB2HIlLbp2J6e+9Ez9PrMN7A85SVwDGGJe3304SqsYtQGqJ4TlmyzdH3AmJKbtH0aj8id97nq/EmWPX/GUk5YMpnPP/88vf322yavkydPpl/96ldKcay6fdJkSfurOp40f77EqxWWGyEs8R8LS3PaSSzzx7m4amS4WD1xs3N0XDP69a/H0VU9OmG1nAisb32Sfjbht3QyJw8ZtDoCAwAWNKdWpneh6DbXIJMJkRQOQYJm2ypuVq+0UFhkKYQR4fsl7MfK3NFoCi/F8oKlVVSOzGMI1ue2VJYRRt1AeVahGTiSojt2oArMkxl6GvPNsfiBkmUBFA/xNxBzLd52+83Uo0dnrKGNrGCLFlgd6Nts5v4DB6lbl47wzyoBmXX+HIo1zYtp+m//RJ+s22QKwBsHXEU/Gz+SMpDphEylQojPceN+Sbv37MOqPK1owrgXqH+/vuCJhSU3ELOwtIo3yDfO4MIuJDCp+FIZBO4lykXz8+YvtiND+gkd3HeQ0CkU94bQw3nVuLQ6OZkqDWR6sWZ3OC+mDjEaFRdHVRCXIVHNwVcUugvgCsyTGRYRg+xvM3CKY6HRVHrmCF08sQVZyyRK6tKbLhzcRkl9BlBpzmEKPXGQInArtpIzjWxnBJq5H3/ye/TQw/fhczhsMejDDz+hxQtX0NkzhbXnscjlXCxzFop4sj8sOllYrv1gpVeEJW4fdPW96vWftk8tvcHPiL9tSgpLJvHll182Kzl07lWSU9XtkyZN2l/V8aT58xVeJZqaJ/zsF1gHfJ2ZcQxjsWbKCVP2QFhyphLNsjAwOqYFPfTD++j6a/tQcnIC+uBFUtZnX9KCd/5BuWh+DWWxh/MMNDVXJbelyA79IIjiIX5YaGE/mrwtyMxVlUIwIuMZFgnxCrXEzdSVlzDZMYRPRQmWf8Sa3qWFZymqObJpOBaCNvTQkGqqOnOamlcWU1xaEpSYhS6cOoMsZzVWJmQJBNEDAZSalkg9unWmzp07UftOWMqwdStKw7rf6Vgnu1lUFHErOJ8OU/mKyz/o7Qm8fXsPwx4LdenSFv0SkUq9nI07ffYc7d93hFrENEO/wmaUktySEuPjcZiv52wqAPl/AF/E8pUFp89Qbm4B1krPoT17j9GBvQexZvgxdA0oA48s7nh9ddwdxkRguUQ2o6gY/U3jsO5382QchYLjLC3EZ0RMcyLwzM3ZhgVX4x5h4WgKh6AMCWsBkY7+l7wsY+lh8AhuL51HHC0U06ozNUtKows7vqTIMyegfy9zBIvbYcL0V38+GjFMBKZB5wov0odr1qJ5e4PZn5aXuOSN+6ByttakCd/NTCaIi0Af2g/fW07p6WnYW+cPCr7IQ5t0fSBtprR9Gs+9CKnOn3ve+f/VygpL/6dWe6AZ8D0DLFSyNm6m3818kw5inW5urmU5UZOrgr6BuGBhwRqKs3AJiQnUB+tv33jjtRBgHSkhIY6279hFf/nTfPQPPGOeV96yFUW2u4HCW2CVGxZQuJbXpWZhyYN/qtGH0IJBPNx/MiQU2b6wS1RRjD6aUJ+VJUVUhtV/WqS2g1KD4CzKI8uZkxRefomaIfOZ2DaVYiFqL+Wfowt5Z7E6EAQYxCUbyRm5aoiiEIglFkzNIQSTk5IpPimeUlMTzAxbZ4iq9u3bmp8TEyCOkXnlLC37yFvNLxZ/1m+mbLQeNpnhI5xULC65RDknT1IOVvo5ciyHTqBZO/dUAZ09d5HOn7+IvqnnqQrN2yy44ajJLWc4zaZuzgLCn0hkYsMwSKaksITKIEqrIaQtMQkYtJRG4XFpEJEQ6RUl8AcCOwQCMxxUIntoqYqAyIyGqIxA5jeCmiWGUUXRMfB1kuI734jb8Z8CGIyD5uuivZsoHBxy70re171nV3p25FMQpdVY2egsVhDaQbu+3EGFEJjcX5bLBItL1qJcEkxxiX/ZjajoKHrxhefoycd+SJHo/2llDB/0phnQDGgGHGJAC0uHaNInaQb8lwELBF8W+lj+6a25GFl9DtKDRYSBpfz60wk0c2/atIl1kSlLTGWD0dCRkWgah8hIgGjj7djh4xA71VSRkE5RPTMhmuLwg2ugRliosM5hscIZSxaCPAqcl4Fk5cLishLZvOryi8jgxaAJuC2Vnj1Kl/Zvp8gSHkwSAlEZiebyaDTBI3MHUVpdjqZzxgN2CIxDohH9ECFcOcuGzzX7GZ7VUU0zMI92jsDo53CIt3AM+mGRFJ8QQ4kQnyktEykeWcgWsc2pebMoisYPC07OglYBvBL9SMvLy6gQgjEPo92PHz9J57C0Yhn6i/ISfdXoOsB9JS0QziFoxg6PiaYI2MIDlTCnELKInKENB28Yyc39KeEvD9Dhe4ThfLa/GqIOa5qbtvMgHaNZDIV360WR8W2pvLAIAhyj5SOwrCNGb1eVcaYSWUuQ3CwhjMKjuR8nR+IijqEPakxLnFdG5ReOIg7JdOnIToqCuAxBUzrzyYI2FAZwDwbu82o23yNWuLvJ521DbqZoDPz5dEMWBmIxrwYyleH04588TY89/DD8QHD1phnQDGgGXGDA58KyAKMksXwTbdy4EZWuhQYNGoT1f4dTSkqK6Q6vN71q1SrKysoyp8kYMGDAFcdd8NmpS6Tts4dnPV7X32HDhiEjk+qU3a6ebL0/x4O3zMzMK/i2HlfVPl+XF1d599V1Zejj+Mork7Be9v8wIIYHdqBPIAQQt5sj5wazeLqcSvQTDKWqJDR/t0emMioGzbI4Xiss0ZSOzBuLExafBs43xSEyl1XlaOIuw7kYyBMVGwWRU04XD+yg8IKjaLbGQBWoJR5EEo61r8Pxm5vpLZA/qenJGEgzlAbeOpgSUlpSBcRawekCrP29hzas20CHdx+BvQYl3QRhFtecLuadJoLgKjtTRJWY/shUclgrnFVoiIE+nOwS+kpyHWNgFDgLLZgLf3l0NsQrBKCB/qbVaGYOQSbVgCIzM4+4kDOtYYlRGPkeQxHIpsZg9Hfp+WIqzN5DiRgc0y/zGrphcCZ1wHrEvKZ3FM4/m3uSsj7+lNZiANS50+fBIzjAfuhL3Bs24Dsni3lMfHVKZ4rET3RSc3DFfVQjMCKcB/Aggwm7omLDIVphz+XsMAv46opSE+/i8S3oXhBC8W17UMmR7RR+LhfTO6GPK+7Fvpn+1ShSjDiHrxghPhh17Ixf/9wceFSTvQQRlzczu2v94sBvVeqDxuojZ+2zd76947aU2Tvf3nFbPOnv9u7P9Sm/n7Ozs336/m0svs7aZ/W3Mb1hPd7Y/aT5D1Q8nwrLd999l5566ik00RRewW8yOrr/7W9/QwahnH7605+aWZa6J1iPP/jgg3V3i3+Wts8eHo8a5VFvnFWquyWgSW/u3Lnka39Vt8/X5aVuzPzns2EOWnn11Sm0F30FeWNdybKSRQkLywqIm8rkDhSZfjVEZSwyZDgGMcZ6hTN+5s/lzo2maIKQY0Fn4UxfOWRiOfoGlhRS+ZnjVJV3kBKRSeR5FcswiIfPZ8EVBmHJmb3QMAumwelHjz3/IzqNvodf5RylPLzcSouLzOxffMskc/DOqf2HaNu7G6gUbdZt7shEU3ELDIy5SIW7D1HlaQwIwuAeA2Ksugp9Gy8W4b6FFFJSAnc4o4qxMxCxrdq1oeOYgxIu4L44FwNmKBn+xcbDRx5MA5GMuTfp4gWK7ZJC7W/uRmGw/cLJQsr5dCdd27MP9b99MF1qGUv7cvPo+DdHmTBKbNeSMtpl0M3Aj8kvoCV/Xko7t3/DVDKx2DhziV8QegZILsNgpyoW6y27UFTLNphWqDmyoOCCp1pigYtMbFgk28hiGOIU2dOinD3oOIqmeJxXWVJGUQmJuC6NKvLRFzP/KIVfxuc4hpkKs+ZeXbt2prf+bya1yWht2nHZIDbK6e3QoUN0ww03+Ky++vvf/95kfelsfaU6ntMBsnOBPX95flt+/54/z38Yfbt56/0rbZ/q799vGfb/Tz4TlpyF5EycO9vy5cvNbJo7GI1du2TJEnr88ccbO+zQ/rr2BZu/DhHkxEnS8XDi1gF5amlpKR09eoy2frWdspGd3rFtJwQCMn2mpKxxmfNqFWiatqT1ocikjhB+GGhiipTLotIUlhA8piBkxVTTd48FFA/eYfFZDVF54cheqsw9SrHhVXT7UIzuvvUWc4LuY0dzMH/ietq1c68pmFhYdrm6M435xQTaVHSB1mNeyYKdB6js1GmylGEUOWcP41pQbPs21H5gDyrC5O1H30cmBZOjd7n/Fjq6dgu1RsYwBfNgnikrQRMv+j9G1GRdy5FhPLf7KFUeOIE0YTnd+Z1MGjh4MC14ewUd2nMQ0xuh2blnJ4ppkwq70b+xGhlaTNLJIrr60kW68NU2Su/ektJu6EmHPv6GOnXsRplP/ICyv9xEx77aTZdyzlDl2WJ0NUVfUjRDRybHU3KP7pTZ72rqCl6WvrWActFHMxR9UaOiw6h//750AwR0TGwsnThZgBHlO+ir7YcwpXxzimrfBXNXdjDtMOmGsDe7HYBPTnNa0PReeakImc1iOr39E4rA/JbV5SUU1647BHYHKsk5Tkb+PorEPs624n9z4wxsIgb0XHt1H7pl8EAaOOBGzHPZyhTsNWc49y//8f/jH/+40Yvq1n+NnuTigcWLF9MTTzzh4tU1l9W1T3U8txxt4GJpfxu4hVu7pO1T/f3rFlkKXuwTYZmLPkzdu3fHHHOYx86NjftM7du3j9LSePSi3JaTg7nievUSs4+b3yT8jcP0JOxvOqZJkdyk/FXdPk+VF8lYeBqrrKyUZr35Fn3++RYM7DiHuQvLMFIYE5VDEJltpTDAEsqfLVQWk0Lhra5DH8BkU2Bx/0YLMmRmxq8Zi8gaMcnTL7KAMwUM2pd5NDSPBrcgW1i492uqPHmEWqNp+/HHv0N3D7mRUlOwEkwY5qxEJq7oYpU5Dc6cOYvMCcIfGfcklUI4bsz+gk5+iO4vEIToIkpl6INpZteQReSsX/M+Haj1DX2QtDtH+Ws3UQRGi4cjO3rXqOfo8Lk82vf+Z1SFTGVUKgb3dG1P8R1awacqOvzvbMpAJvX/Zk/CKPAEWrTiI1rxzgoqwZRGLW+82hTExRB6JTwivaKaWrRtS8m9u1Dp6bN0/v33KaY9uqREJFCnR+4nLIdJe1eup4r9BdDS6B/ZHCvmcBqytJygR/G9OaX3709PPHw3fbn6A8r66DNMnh5Ko8f8mO66926KgZi1hFaiZaaKTp8/Sxs2bqM//WYhncGk72HtulFCV0x5xOSy2DcHR3GTfU0/T4OH8kNnFh7+EvuQGYZYrsKk9i17DaUI9J0sPZtPJYe2U9RFTH7P/QDMoUWwzfzMCd3mlBCfQH379qaf/ORH1LVzF5zj3GZPWKpeH1jt4zlGJep7T+GpWt97qj6Veh9Z7VP9/evcU+cfZ/tEWHKz7nPPPSfC0MKFC93+y9XWkHnz5tGzzz5ru9ul72wfN8lI+btgwQJ68sknXbKlsYsk/VXdPk+Ul8Z4VWk/96U7e+4s5qX8BWV/sQWmcZ9I/AsNiU/4r0ZYmv3+0ARrSeuIfn9YQjAMWUqcx02x5mo6pqCpGURTDeFl9kOMwMAPZOlYWJqYEC+W6hK6sG8XWXL2U9sOyfTzV35C0Thh88avzMEv1/W/mjp360DJLVMoOioBq/wsoHlL/kG9H3+ATpy5RCc++C9FFGG+y7QkSryxD7VolWpm1krOXqC8Lfuo8ugpirmmE2UMuJpykKks3rWHWt11N7Ufcj19s/KfVLXtALQUDEe2rxoDYkIykim1/zUY9BJHme1SadIP7kVztEH/2fA1rVzyb9qL/pphWMax5OA+gsozL+V+nwb6JEb26knJ1/WlXAyACj96hKIHDoTgbElH//s/Ci04SzHXdaU4TGEUA3Ebiub3YmRS8zfuwhyTBRioFE0PPP1DzEOZQ1nvfkSjxz1Fj2DE9SU0M57KP0P/y/qcvtryNQYTRdBd9wxGn82W9ItXX6f9R08Ste1EcRgBHh7FohqCGsHhTDB3H+C+q4gKPiO7aimi8/s/o7gO16APZSXlbl1P7Yc+hf1lyF6iCf7UEYrA9EbmtE2XhWXtSHno09jYGPrj7N8jk3m12Y/O0XJrT1gyjifqA8n3B9vHfYsl62dpPOn6XpK/RYsWud2yZ1vepO3jeDzzzDO2t3HpuyfKs0uGKH6RT4TlSy+9RH/84x9FqBk3bhy9/vrrIlhWkLFjx9If/vAH61e3fvN8W9z3T8pftu2NN95wyybbi8eMGUNvvvmm7W6XvqtunyfKi0tEefUigy5gKb9p039P//nPR+agEb49i01TCeJzNURYFZZVtMS2pPCW6E8Z0xp6Em3dOAXKE+uF41c4ixq+EKPDi86Y/SfDmydgH4QlRntzs3Goma0sowsHviTLsUOUikzgn/4yhXpinfHsjV/TsmVrIKQweCesmgbfNpCGPfQ96tatJ1bksdCYcVPoIEY/l2Ad8LJtuykcojIFSzvyXJvn9x7HKOkqaoZsZwyabwsP51IRsvcpaJpmN/Le20Adn34K0++cobMf/4/CsdwkC13OWjRvEUtFFy7RafTpjO5zFfW+52aa9oNbqRVGQf9r3Rf0+aav6DPYVnL2FGVguiVeR/vChWKsv43md/AShvk9E++6FVlBCxV8tIHirr+eLmGwUNmOPZR82zWU1CODik+epRJMkcT9SZthHkxuTr/4zT4Kw5yXfW6E4ANHCeg/+of/m0anz16kzVt30LLFK2nfzv2UmIABQNdfRddc25OGYHnI/ftz6LWpb1A++oxasJxjQo8bIBjR5xOZVp5Xk/t+VpVi5SJkNkOx/GM4RpeXnjsCfopM4VyF9dnjMceoOTAHIrS8sICqCg5QeNFZLKmJ9cmBgqFS+Bcx5S8IcqfOHegXU1+hfn2v4b280+7miLD0h/qAR/1L1X9cv3AGdPbs2Xb5c+QET/A3evRoMfv4/SY917Tk+2j8+PFmPKTe556IhyPlwN/O8Ymw5OBIBdoTQoExZ82aJRJL6YLtCX9Vj4ekfZ6oCEUKiodBDh85QmPGTqT9Bw6Zd+LMpIFhxlUQUdXRmFcxOpnCYlMx52JLCESIjhrFgV9QbfjMGUsew1x+4QwG4eSTUVJAkWldKSoxwxQwYcgK8jmcUTu3eyuFnYKQgQq9+94hNPN3EykH65FvP3qCDp88QccwwOa/yz7EsokRdMutmfTkUw9Th3ZtaMXy9+mtVVh2ENm8MIjLZtf2oKi0lpS3eS9EIqbhwco9luJiatGtC7W55TrK//IbqsjLoeYdO9KpDZuox5OPU/7WL6jqG4hSaOJBtwxEX8LrqS2WcSzF6j6ffLKV1nySTc2u7kkPPnoPPde3Gy2DIP3sw88o9/Ahevrp71Pv3j0w/VA1HT58kj7asIX27NyH1uMQanHzjWSAp7Nbt1GLju2ocNdeisbo8Iybe9GZnYeo8EsMpuF1u5uheRtLUiZ27wz9bVDJ199QHLK56KpKv/nlWOoBYbsheystWbiSDu/Hqjng+tmfPka33TEA0xudp51f7acbkM198w8LMVPG1+Zk9NSpF8V26As87mJQk7GsrqiistMnyDhzlIzY1mh2T8Z8mBcguttBhCYiZpxNRuYY/THNtDSW0eTJ1auLMHr+Yj5FYJqnMJ46CaKSQxyBuTJfeul5+hE4dHTTwrI+U1pY1ufE2T2SwnLChAmmsJR6n2th6Vg0fSIsOZ389NNPO2ahnbO4k+9jjz1m5yznDkvax4NOOBUfLP76QzweffRR5wpEAJx9+MgxGj32Z1gf/JA5j2IlBo2EpCE7FY7sGkaGhDfDVD8YgcyDVrgfn1VYmh0cQ8qp/PwJqjp3nCIwaCQUwqkqNpGieOWdZok4H30ATfGJlWmO7aLqA18TGp/N/5760TB68kcP0+YDB2j/oZO05bONmMC7E+3I2kGHdu+nZmh+HjP2Bbrqqs7mqPTZby2mYmTZuD9kdK9O6MeIHF1pFHW972aI1kt04J9rqQKiLx2Db6ISU+jE++shiBOo6HQ+dbrrNsrL+owwKomG3HMH3XHXYErCVERxsc0orWVLzF8ZS6v+/RnNXvQPSsexX//wNvr7sv/SFx+tp6mTXqJBN19LJzBQKLfgHJXgmc1DH9QP1nxKB7ZjIMzV3dHftA2d3XUYXGFEe14utb3rJkz7U0a5qz+lMMz32f5792FqoFis772XypAljIyNpovISIZhkvIOGSk05+2ZlI8BUqvXrKN3V75nZiAT01LoqVEj6BucV3T2NB3dd5Qe/uEd9PXW/bRubRY4JCpvDmHa9QZkQtvVCEVOG0M4csayeuc6pJsxuj48miohLsOS26NPbHv8cdAcP1xwkXGNxDRLSHZyjGr60uK6UkzLlHOAoi7kmdnUcMxb+dJPn6dnnn7C4dLuiLD0RFPpO++8I9a0yfZJNpV6As/dQaS2AZXkj99v0vWppH1Lly4148uzz0hsnijPEnaphuETYVmMrENXzPmWl4c1gd3YeNDOwYMHzfnY3ICpd6mUfRkZGXhZ7jXxg8Fff4lHTExMvZgH+o4jEJajxkBYHjzEaUVzUvCq6FgyEtpQOAZxhKBJlSzNapq6QzAlj6UEeqWQqi/mUXjxOYpE8ytPC8Q/3O+wPKUDRaX3M7Ob3OQaHgXM8kIq3vkZRRUXmtP38LlDbxtAjzz6EL386m+pMDcfo7vLqd896KMYGU0bP1xvitI77r2Dvn//HdCDOTTvnWV0HiPWMVM6RWSkUjWWPKwowtRBUEbJXSNxnyjK+edGCk2No07fvYOOrd1IYYXnMNAogZIwlU7hN19RBOqVp1/+MSVigEoksrKpaGrm9cVjIfpiY+Jp+q/foi1oln5q2F306eI1dFXbdBr94pMQvocpB/0eS9GcXcYTtENoH8RI7g3vrqPythkUkdoB63TvJ7qEwTlJzSjjlr6U98U3VLL5a4odeANFpbSnktOFEHLNqBwrCoVFYl30o7kUgenDrurdiab9GplbCNe58/9B27duR0eDEGrZsS26BNxG/3h7EZVgSqWwSIN+Ov552vjpV7T9693oIoq5NSEky7F8Yxw3iXN3BZ6QncU3+sUW799ILc6ewGcW8hjEAyFZhX4LlS2SKaQF+qW2wB8OmMw+PIpXAsIfDJy5LMEk64V5FHmxAH0vEVfuyoBVdl6CwH3mKTlhaa3/pJ837tbBgyF5DkN3Nqt93BSuMp7q/KluH5cRifevtbxI++tOGVb1Wp8ISyaDJ13lidDd2dasWUP33XefOxCNXith39q1a+mOO+4w7yGBp7q/qttXNx6NBj5AD+RinsXxP/s5phfaVtMyCgHCG6SiKe4syDqaQ3ggEkN5gAgOm4M9kDm0YOJw80yrsESzaWW767DOdQeIFr6e558spZITuyji9BE0uZZSOO/DVc3jouj5n/6Ydu8/TFshwJrHtqB+d95Cn7/7X8qDkOQW96sx9c5TTz+E5udjtGT+SkyEfhYDr+MpHFk+AzMhFKPvYumJE5R+Y1dqjqxh7ntYwjA9EcLyO3R83edkOXqQQju3p4QuXejMtu2UiGzcNQOupZOYXigCIviue281hSm73KNPLzpy4Di9/s+P6ZHnvkvZ89+lH/3wHizIkEwfvP8RVUFkWLB2+RcYVJPSLp1Su3SivZ/vpKI2GYQ5l6j44F6KKiqk6H7dKbFHRzq2bhNV7ThAcUNvxHRILej0ti8xp2Q8+jpCpEMAhp84hfkmS6lHj0407uUXqPBiCQbKvE2njsN39HPktcQffPIhTEV0kk6dOEm9r+oKvi20Zvl/0SWgZsJ6CyalZJFb3aoHxbTtg9iAWYhBzlqWnYdA3MuZTQhEOMhysyZWnOvEKH7EDElo8MwyFv9xXDFiK4znw+RTOd741Rx2vDzuRXpouONzA9vLWHryeZOYPqaufarjcagkN2l/JW1jLGn7pPGk/Q00PJ8JSyZy+vTp9Oqrr7rEKXeO5kFAntyk7ZPGk/Zd2yfNqDp4PKDgs/9tol9O/x2WLERLAQQGbzWr6+ADqwsIGhaXWEywZgJvnMNShVekMTeoQM5CVjZvQSEdB2PgSM2yjnxWZVEOGUe/pKv7dKedW7+mCG4ah4ph8ZKcnkp9b+yPkeNRWCKxnI4dPEJHdn5jjrxmZdn7ut702BMP0769B+nvi1bReTQXh6HvYRimKIruij6DLZqhmZ4oGpnHvM17qOpIHsXf0J3Sb8HclR9mE5otyNK+FSX26k0XjxyiKExnFo5Vf4rPX6IoNLV36dkZfSV3m30ev/PD79G11/ejX74+h+578Qf0zYqP6fEH70J28BtatWglRcdEUnLrVnQ2D0tfIsPHGcWSEqw81LUbVVY0o5J9O6lZRSEl3XYD5tPMoCPrt1EJpgkKa5lALdB3k/uhViMra+ElLHMKKKz4IpqqDUpOSaSRozDnIwT3nLfeofxTeeAePoaFUXrndtTjKjS149hpZFt3wZZirC3Ox3gd8hYJzbAUZTwdyztPYV2QGY1Hv1YISc5YWjDNUPWeTygKg3KYbHNAltl/FsHjFYZwFiJR212h5s8H7GVCzY2DbKH777/bXCO8TZs2l/fb/9WUsNT1c/C93+yXGOfOkH4fSeM5501wne1TYclU8yAe7hDrzMYFZOLEic5c4vK50vZJ47nsWCMXavsaISYAdldjsMaOnbvo51N/RYew4ow5DyXEH4sRzm/x5N41G++DBOGsGI6YR3GCKUIhfsowr2VkxyGmYGFhaBjFVL5/PUVXXqL7HxqGbNu/kKWrgrBkyVnz0wxrc0fhp6q6Ek2+EFt8T74WKHfedxfdhIE229A8/O9//4csrdOpBAN8InmaIKzJHZoAIYvMYxVGdhuFmIQcU/rcNukFOph/yZwCiPYdpIr4OEodOoiKThVQxY5daL4vpUqIaW7mxG3MtcDZt2sH30i3ffcBmrdoOV3/yJ2U8+FmuvfWmzDl0L/o+L7D0H2Y4JwnVed+p2hSjsDqP1EdkK3EpOUVpdVU/PVWaoZpfDrcO4BSMMXQ0QO5dGzVJxRahu4DzZuZk7WbWUHMZWlARHN2MCotHhNxVtH999xDXbp3o3cxQGk3VuIJhbjjaX8gDykSWWDmlyeutyBjzJ9DWVgie9q1e1tKTWtF//tsM5WimT2yxy041gLe8HKZ+DdnC7W4cNKMI6wA71jyEQhmZhMB4Fwlk8B9Yc1BW7iSmeeN738/pmkai2xqqrmMLs51cGtMWOr6+VsCdX36LReufJLmTxrPFZ+C4RqfC0sm+Te/+Y3DQpGnNuCRvd7cpO2TxpPmQtsnzahaeGUVJbQDU+Vs+eJLysH8ihcxArsafRhDeIQHb8hQshhjIZiamk7r1q2jnJPIsCFbiTQalbXCdETJN0KA4dwQCMWjm6jZ6eOmOHrwqcfp80+z6TgGCbF4YflizpnIbev8zdQtVfjMWicETeOx9MzIERQe3YI+WP0ebd+7mzo88V06nrWdSr7aQyy3uKkd6Ua+gkIwvPo7j36XOn//O/TvD96l/E07qXrXAarE6PZWD92DEdHN6OS6bAo/lg9xhbwemuqreQQQmpVZqA164HZq1bkrHcTAl6R2SXTqiwN0x9Xd6P1/vU+HsAJQCKZBisBgHwuaisOQ8ePR0jFYIaca0zCVnC2i8i1ZFIHuAW2H9KX2/Xuxc3Tgsx10PPsbCmO3IOpMO/EvFB0ldWtN6Tf1oRMbMJq8Ipwef/4pOrhnH+63GsIT54KPmgE1nBlm4cf7IG5DsFY47A3Hmuz33X8nxHgVrcM0SmUVmAYpsR01a38DtC/Edhn6VJ7+hqIL0JcbfwhUQ9UOhUi/6qqr6NDhI3Sh8IIpOM2A4l5gELihlIRlYnv16kEDB2VSF4xyhyNssVNbQ8JS18/1KdT1aX1OnNkjzZ80njO+BMu5SghLJvuVV16h3//+903yPm3aNJo0aVKT53jqoLR90njSfmv7pBn1TzweODJ4yN1mv0cWJwYvd9j1egqPaQ/Bh0ElZw5TyIHPKYoXDoc2GXTPXZTWOoM+WPkvKjpfCCVT04fPnNgbosZsgDWnwmFRGUND7r6d+lzXjw7uP0D/WrLCXIUm+d6bMDF4Oyo6cJSK9xwloxgr0UCYJiQlUt/BmdT71gH02fatdOLgMcpHU7SlAPeBWIoe2J/Sb+hN5w8co8L1m7ECTiU164vpg5CpLdq0jSIhlG948D4yUlpiqiOicydPURGWbezVqSNWCDpEm9/7D4Vjne5umOMyBxOsl2EUe+ve3Sh2yA1UcOoCXUQTftXXmIMTAjuyVSL1+f4AapEUizk4q+nEVwfpzJ6TaAYvM5v4eZnJ+C6tKe2abpR38Djlrt9BIcXldBPm7uyFeTC/WJ9Nu9FloKKyBLSh8wH8M5kyhTe7E4bZi5CtRN/MzEED6Ist22jr59sgHrGcIyZur+qAZTYTOmLAFEbNnz9GzU9tBdWc/TToHoyIf2PmdI8XOFthqevnxinX9Wnj3DhyRJo/aTxHfAimc5QRlkw697fkZpSGtilTptDUqVMbOuS1fdL2SeNJE6Htk2bU//AuYFnEmzKHQs9A8aBtuzIyCmLtVkxfE4dMICYEP7CJIjE/Imcz+Sce/SnvfvhBKjpTSLu//IpOHD5M5SVo3sV/nC/jvFhYZAh1gJi79qbrqUuvPhBtBfTuin/SGYwa57WtLSlx1Op2LP2IjGIYmtRDeWJzZPOSMDVPWGILOnE6jwpOnqGTm+ienmAAAEAASURBVPdT1f6TNUlCZPeMVknU+p5B1Cy+OUTgMSo9eZriOrVGq3wIncDSjaGVVdQczewRCYl04XguVWIZxRis6MN9QC9g4Ew5ZquIbhVPPR+5B4nYSIovriDqmE7nMXgmZ8dROs1zYGLidBbYPNip5dXtqeOg3tQsLoIi0HReifPLgMHLLYZjNHs5uMrHGuIFWciqYgL1MPjGfT4z77iNWnfsSCfRHWH/zp0YtHMUTfVVNeyA4wjM75mG+Tu7YlL5HsgqFiGjvBYDi85gxDnLT/6vMi6Bwtv3h5hPoko0g0cd32QKWs4L33JzJv31z3/weGGrKyx1/Wyfbl2f2ueoqTOk+ZPGa8r2YDumlLBk8l988UV66623rogD96dsTHBecaIXvkjbJ40nTYG2T5pR/8I7euw43Xn396Clws0R4Dz/ZYtrbsXckpj8+8Q3FHkSI7K5CR1Ci1OWrD+TW6fRzXfdRempLTE3I4TVqVy6eOEc5pPDqjQY+NMGfRZTW6VTVHRz2rtjH21a/z86l4+JuyHYzIQd9/vEYJiMzJ6U1LkNMo3IEGJ6IAv2l6PvYv7hAsqFqLTknoNY5L6aNYNUDDSTN7+2C6Xd0Aur50RgWp4KSLAwOvnFXjq3HktJItvHGO3Q9HvvfbdSXMtEen/tBtr9ObKJyDqGIesZhlHsre/OpHbXX4tJ1iOovAIr9uSdoWMff0kGMqjh8JH7KbJINuBzbLd0andjF4pPS8CAI+5CgHtY0F3gUiXlHMqjvK0HyDiNPqXc1QDX8WTr0cjU9rj2Guo/8CYyMN1PISacPwv/i4uwcg6mU0pLg9htGU8xcZgTMycfTeDr6DREN3eBZeHI/7KwrUjvRs1a9aXKi+cp/PB6znuaR69GM/jfl8wxP3vyH6uw1PWz4yzr+tRxrho6U5o/abyGbA7GfcoJSw7C888/T2+//bYZj8mTJ9OvfvUrpWIjbZ80njRZ2j5pRv0Hb+PnX9DTz7wAUcTN4Fj9BgNREq65g4pyTlDl3s0UiWUPWQ5yFu2yLDSbY8PR57E71p7uh/kdY5MSID4hh9AHsIqbfCG+cjENz5b1WZhy6DgO8LVXbthFRhSykMlx1Lx9KrKCzTGvZildOHyaLPlnKRxYPJej9Z7mACT0dzSQ8Qtpl0atbrqKmic0p/xvjtBZrNsdcqnMFGV9r+9JM6b/HP0K29DKI9toS84R+urfX9HR97PRR7LC7NtIMVGUOKA3JXRIx1KI5yn3y71k5F80p+qBhjX9MCeFZyHNhqLJOrZjGtYzTzSl3aVzpVR6vICqMdgohAcPsXd8HraaAUv4CmGYmNySrsu8kTp1aE/NMGKeT2PxWY2+mnn5eZgkfSsdRn9MaGHzGDtgfsZXZqwS/ERcdScypaEQlmspAk3+Bk7o0KEdvffucr6dRzcWlicwDZSun52jWdenzvFle7Y0f9J4tvYG43clhSUHggfocCUsvQ6pVJCl7ZPGk/LTiqPtszIRXL9X/nM1Tfo5/rCDEDJCIX4g2hKvuoHOZW+g0LM8bZE5E2aN6DL1E6sffGCVhBwaC7GYeExMjlHb3G+wAkL0/IXzaHYuMVUSZ/Cso9JrpNe3/PJUOwZWAWIRx2nCagsUF6PyZwg1Pt8UtHy/yxfzR643+HcVt7sjE8njfljUtohrQRNffZF+gBVyijFifMKWtyhn1yE6kW3BOt8YwX10F6QicpLhuBCdQblHKEOgkjRHWeMj9tWIWb4v94nke/HN8C+uwXfch22pkcrIXuJaXsjIupnn4Yt5HaPjWp5rMwHiOzIqkqoqK+jixUtYpxxCGCnKGvFc4555Lf7h0f2hzBuAK9LbQHj3o4ptaykS3Qb4Zm3btqEP/rPi8j2sd5b/vXnzZrrpppvkgQUQpesr1fEEKLsCQtrfK8AFvkjbJ40n4KJfQygrLP2aVW28ZiBAGPjHyn/SlNd+YybcLGgOD+vVAfopgqp374bCgbiCwAmF8Lv66t7mObsuzxfJEow1V93Nqq+su7nh1px3ETIMmox69OzOmoz27UHzMQs0/oaTcQtTuPK5vJevr7mOKAPrgPe95mr6eO2nGPiDPpGXwfmXOSCGM5uXL0pGv8XX35iKwS8RtPniUdpWtpkOvXeECnZXU3RqH6re+h/oZzT5wx9TnAKj5mY1NvDXZDSfX3ddX/rq6+109jT3LcW5poE119RYyGeyjTVN03xOzx7dqB3WQ/9kXRa6BLCdNYbiKj4To9EvG25+wz81uy//YlSD+l93DewLpc8//7L2BAumXqIufYmO7Kco4ELKek1Ywgi9aQY0A5qBegxoYVmPEr1DM6AZsDJQIyx/a4o0C4uhxFgKu1hMIVWYwgeyh6VTSnIy/eVPb5hZzT//ZR598skG7MU8jFZFh28seGw31k68NxJ9I3/wwAP0yCM/MIXjkmUrac2a95C1+1YomgdYXtVoTVPQDRk6kB7DcpG9e/akD/77Ef1+5my6VFJiilAWe7yCjWkCrjEgyGIT42js/xtJ67fso892bcexi1R07CLF9+iFAUUtqXrLfyEqYTdnSOtsBvsNjBjMqTnpZ2MxSv4W2r5tB/117nzayUKahSW2mixk3QstFN08mm6/fQg99shD1BZLvH706XqaO3chHcdSkXyVCc0+mV+YUXyogTM/c8aSl1scfEsmvfDjZyFAQ+nxJ0ZQMTK+uMzsF2rBIKFQLLnJ85Cy4PZWxrKOp/qjZkAzoBmoZUALy1oqGv5QUFBgLj+5ceNGdMq30KBBg8ylKFPMyYTJXK+Wl4vKysoyV8oYMGDAFccbRpXbW9c+Rs3MzLzi/ryersr2We2vy9+wYcMwf2JqgyRZz+d4qOhvg0a7sdOev25AO3QpC8tfTJ0BkQahBsHDzbro+Yhra35YiP3tz2/SzZgPkfdUop/ixk1baMGCpbTt611UhlVoWCc1JCyTEpMg0jLpmWceo07tkQnFNDq8VVkq6DSygVu++IrOnTtrNv2aB/APi7ckjOq+7rprqTXWEg/HNSzG8GjS7n17aOHCZXTo4CE0m2NankoMoIGAu1RShivRHxJZwaF3D6FumdfTH/+wkC7ln6fI9JbU+oYhdHbzxxR+Fiv2mAqPgN2aOnVqb96PB+X07N6dHv7hDygNUxXxvJws4Cot5fTNrn2065u95sTmVhv5dzhWDmqFQThsZzIGIoVh1LhpJ8RfPuqU1Zizc/W7H9KRI0fNy+qJUpCWnJiA5/km+sGDD9A111yFAUlR4Liafvf6n+ideYtqBCiTbjbJ4yu3rOM/LSxNSpX4x/r8cv3G5UbV+rkp+3g54uxszA2LMs1dH3gpZuv7z5ZkR/z1JZ6tve5+t/pbVx/UfX/5+v3rrn8uX48KUm+NMLB69WojISHh27fo5bdpcnKyAbFmLF261EhKSmr0eCOwYrv93b5ly5Y1yB9zzvzabqr7a2uvu9+b8vfw4cPuwjt0/c7de4077n7Q6Nb7BqNrz/5G9x79jG498dOrn3H9gFuN+fOXAgeNzjYb/ggzLl68aOzfd9DYtm1nvZ+jR44bZWVlNlfJfj1//pwxdtxEo0v3fkbnrv2MTvjp0vsmY/hLLxv3/fYPRo+nJxu9n/210eG2x4xOPa43unbvb3TDuV3h41t/nStrTANoWGbTyMvLN77ZteeKnz3g/OSpk0Z5eXkDVxnGyZOnjBE/GWX07jvA6N4LMeGf3tcbPfvcYPTPvNX4y9tzGrxO7/QuA43Vb6q8P+zZt2TJEiMxMdHh95vqeNLRb6p+VkEfSPvrDB7/5a23BhhYvHhxvQcK6t2pfcuXL28AWWZXsNmnur8yUf0WxZ6/f/3rX7892YOf0JxsbNq8xXjokR8Z/W8cgp/BRj/83HrH/cbceYuMSyWXPHh396CxfKTxn/c+NAbcfBfEZX+jczcWmNcaHbtdZ3Tqe7PRof9tRvurM41OEMpdICZZOHfD7zvu+r6xbccu927u9tUYntTIxqJ93/79xktjXkEcHjCG3n6fMRTx+M4DDxnvLFxqIGvcyJV6t7cYsPf8OvIu8af3h7S/0njScUfW1Skt0FC8PRlfaX+dxdNN4Q3kenNycrDcWS9MTFzUwFHHd8XHx9O+ffswL12a4xc5cGaw2BcXF2fyh8yO0vFwIGROneJIfCEszWm5nAJ28WReb/sQmmzzCzDXJP9thf9bNMcKNV07o99hjIuo3rmsGEs3rlj5b5o1689UVspN4peH13D7/OVmb7MPJX/HloEJ018e/SLdfdftFIkpk1TdUNHTydw8dBk4jeRAjZVsb9fOHSkKc2HqzXcMOPL8OmKdv7w/uMuJ5PtSGk/6/ZuXl0fd0TUGLTKOhLHRczwV30Zv6M0DzirRYDh/7ty5bv81ghiaGAsXLhSnLJjsW7BggaG6v9IBdsRfb2UspX3zBR5eVMaiJX83M5Jd0dTdBRnLLt35p6bZuwsylZ179zN698s0/v2fD4yqqkpfmKnvGSAMOPL8Wt8P9n6r/v5YtGiRaP3sCTzpYvXOO+8orQ+k/XUFTzeFN8Da6NGjxQrOuHHjGriDe7tUt2/MmDGi/Knur3vRrH+1I/xpYVmft6b3WIz3P1xnPPTwM8attz9gDLntfvNnKD7feuf3jOGPP2t8tO5TQNTvL9o0rj6qGbiSAdXrK0fqF3uC13p8/PjxhjSeJH+Yn/LK4Ah8Gzt2rOj7TcAk5SC0sGwgJJIPiicKtur2ST54zJ/q/jZQhNza5Qh/Wli6RvGlS5eMnJyTxtGjx40jx46bv3NyTnl8IJFr1uqr/JEByfrKE4kJR+oXq3C093vChAmGNJ4kfyx8pTeOiT1eHD3uifhK++sKnhaWDbA2f/58sYLDI+ukt2Cyjztxq+6vL+KrhaU06xpPMyDDgGR9xfWf9CZpH8+MojqeNH/cPcFR4WjvPE/EV9pfV/C0sGyANQzaMdLT090uPBkZGQZjSW/BYh86XZv8qe6vL+KrhaU06xpPMyDDgFR9Za3/ZKz6FkXKPuv7TXW8bz2X+STlr6fiK+OleyhaWDbC34oVK9wWlmvXrm0E3f3dwWDfmjVraolS3d9aQ4U+2PNXC0shojWMZsADDNh7fu1lsvh43fpP2kQJ++q+31THk+aP56l0JIZNnePJ+Er76yyenm4IkW9smz59Or366quNHW5y/+zZs+mll15q8hx3Dwabfar76248ba9vyl8IS9vTr/g+cOBA6t279xX7vv76a/riiy+u2Ofol4bwHL02UM6T5k8aL1B4DhQ/mnp+7fnoj+8PaX+l8exx7uxx1e1z1h/R851VosF2/qxZs5z+ywQFzms0BZt9qvsrHXhpf6XxpP1VHU+aP2k81fkLNvtUj6+0farjSZc/aX+l7fMVnm4Kd4D5GTNmOCwuZ86c6QCi7CnBZp/q/spG1zCk/ZXGk/ZXdTxp/qTxVOcv2OxTPb7S9qmOJ13+pP2Vts8XeFpYOsg6T6uAVHGTP9OmTXMQTf60YLNPdX+lIyztrzSetL+q40nzJ42nOn/BZp/q8ZW2T3U86fIn7a+0fd7G08LSCcYnTZrUqLCcMmWKE0ieOTXY7FPdX+koS/srjSftr+p40vxJ46nOX7DZp3p8pe1THU+6/En7K22fN/G0sHSS7ZEjR9YTlxMnTnQSxXOnB5t9qvsrHWlpf6XxpP1VHU+aP2k81fkLNvtUj6+0farjSZc/aX+l7fMWnhaWLjA9YsSIWnE5efJkFxA8e0mw2ae6v9LRlvZXGk/aX9XxpPmTxlOdv2CzT/X4StunOp50+ZP2V9o+b+Dp6YZcHGOPpQYpJCSEMFjHRQTPXhZs9qnur3S0pf2VxpP2V3U8af6k8VTnL9jsUz2+0vapjidd/qT9lbbP03haWHqaYY2vGdAMaAY0A5oBzYBmIEgY0MIySAKt3dQMaAY0A5oBzYBmQDPgaQa0sPQ0wxpfaQYKCgpo5cqVlJWVRWFhYTRgwAAaNmwYpaammnbbO27rnPX8jRs3mocyMzNp+PDhlJKS4hKeLb5q363+NsZffn4+YfmzRvn1tD9W+3Q8asqzs/GQ5s+K11h5sXfctrzYO9/ecU/j2eLr775lwFoeuD6wWCw0aNCggK6ffca2Nzpy6ntoBlRkYNmyZUZSUlLtQCw8hObnhIQEg9eCtXfc1qfVq1cbfK0Vx/o7OTnZJTxbfNW+2+Nn6dKlTfLraX90PK4sz87GQ5o/e+XF3nHb8mLvfHvHPY1ni6+/+5YB6fLsW2/UvrseFa52fLR1HmJg0aJF9QSgVQg6+nv58uW11i1evFgUrxZY0Q/S/Em7qePR9GIODZVxT5Zn6fKiOp50edZ47jGAVqmgqp/dY8v9q3VTOGpYvQUXAzk5OdSrVy8qKipyy/G4uDjat28fVVVVieKlp6e7ZZenL5bmT9pf1e2Tjo+0v9LlOdjwpMuzdHkJNrzc3Fzq3r27WH2v4+tACXJfm2oEzYB/MTBnzhy3/3rFo2ViLFiwwJg7d64onupsSvMn7a+Oh/PZSk+WZ+nyojqedHnWeO4xMG/evKCqn91jS+Zq3RQuw6NG8SMGRo8eLVbRjBs3zpDEGzt2rPJMjho1Sow/T/gbbPGQ9JfL85gxY8TiK/18eAJP9fKsfIWguIGS5dkT9ZXi9LlknhaWLtGmL/JnBiRfxFzRSFZcjKX6JvkiZqEgvUnGwx9eJJLlGRM7G+yzNYPp7m9PCEFJf9k+yfLsD+VF+nlTHU+yPOv4OhZtLSwd40mfFUAMSDaNLFy40Jg/f77Yi5jxVN8k+eNBNtKbZDx4kIjqm3Q8pPmTtI/joTqe6uUl2Ozj7kru/oFkvd4f6gMV4qsH76DE6C24GLhw4YLZmZvn9HNnS0tLo4MHD5oQXbt2pby8PHfgyIoXExPjFo6nL5bmT9rf4uJikohHRkYG7d27l6Ttk46PdDzYPkn+qqurRZ43azxUx1O9vEiXP9Xxgq0+UCIeKqhbbYNmwNsMSEw/sWbNmlqzV6xY4fZfxXXxaoEV/SDNn7SbEvFYu3attFkew5OOhzR/EvbVjYfqeB4LtAZ2iQHp8uKSEUF0kW4KD6Jga1evZGDatGkui8HZs2dfCYZv0nj1bqDYDtX9Vd0+6XBK+6vxHB9d31B9IB1fjeceA9Ll2T1rAvtqLSwDO77aOzsMzJo1y2lxOX369EZRpfEavZEiB1T3V3X7pMMo7a/Gsy8um6oPpOOr8dxjQLo8u2dN4F6thWXgxlZ75iADM2bMcFhczpw50y6qNJ7dG/r4BNX9Vd0+6fBJ+6vxGheXjtQH0vHVeO4xIF2e3bMmMK/WwjIw46q9cpKBCRMm2BWX3JTi6CaN5+h9fXWe6v6qbp903KT91Xj1xaUz9YF0fDWeewxIl2f3rAm8q7WwDLyYao9cZGDSpEmNisspU6Y4jSqN57QBXr5AdX9Vt086XNL+arxvxaUr9YF0fDWeewxIl2f3rAmsq7WwDKx4am/cZGDkyJH1xOXEiRNdRpXGc9kQL12our+q2ycdJml/NR4Z7tQH0vHVeO4xIF2e3bMmcK7WwjJwYqk9EWJgxIgRteJy8uTJbqNK47ltkIcBVPdXdfukwyPtr8aTjpDG8yUD0uXZl76ocm89QboSs4lqI1RjAEvbUUhICKFzvohp0ngiRnkQRHV/VbdPOjTS/mo86QhpPF8yIF2efemLCvfWwlKFKGgbNAOaAc2AZkAzoBnQDAQAA1pYBkAQtQuaAc2AZkAzoBnQDGgGVGDA58KyoKCAsNwSZWVlUVhYGA0YMICGDRtGqampJj/2jtuSaD1/48aNZLFYaNCgQW7h2eKr9t3qrxR/0v5J2+cveFz+eMvMzKThw4dTSkqK+d2e/eZJQfyPlR8p/qTxVA+N1d/G6oP8/HxatWpVo/Wtp/2zZ5+947b22Tvf3nGN1/T7l8sLv5+zs7Nr38916zNb/vR3zYDJgC87ey5btsxISkqqHSgBg8zPCQkJBio/w95xW9tXr15t8LVWHOvv5ORkl/Bs8VX7bo8fe8c97Y+9+9s7bmufvfPtHfc0XrCVP1s+3f0uzZ80nrv+efp6e+V/6dKlTda3vrbPnv229tk7395xjdf0+3fJkiVGYmJio+9TW/70d82AlQGfjQpftGhRvQJrFYKO/l6+fLnVD0Nikfm6eLXAin6Q5k/aTWn7VMdbvHixaHmWjofqeNL8SeOpzp/08yHtr7R9Gu/bOTVdeV9K8yddXjSefzPgE2F54sQJIzY21u0XcVxcnJGbm2ucOnXK4M+OPmCNnWfFUz2k0vxJ+yttX7DhScdDdTzV4xts/En7q3p8tX3Oi1R+h8bHxxt5eXnSxUXjBQADPhGWc+bMcVsEWsXhggULjLlz54riqR5Xaf6k/ZW2T3W8YCt/0uVFmj9pPGl/pfGknw/V7ZP2V+O5Jiz5HcyZT71pBmwZ8ImwHD16tJgQHDdunPHSSy+J4Y0dO9aWI+W+jxo1Sml/peMbTHj+UP6kH4gxY8aIlWeuDyTLiz/EQ9cHrgsj6fLiD3iS5QXzP0pXBxovABjwe2HJFT//WDOY7v7ml5zqm2TF4Al/pV/squNJCiNPxEP18iz5/DKWZDwYT/VNsj5gYSS9ST6//iDcVPdXsrxoYSn9tAQGnk+E5bx588SE4MKFCw1uDndXUFqvZzzVN2n+pP2Vtk91vPnz5wdV+ZMuL9L8SeL5Q1Of5PPBg56kN0n7OB4az/UMrTR/PHJcb5oBWwZ8IiwLCwuNtLQ0t1/GjFFUVGT+pKeni+HZkqTad2n+pP2Ttk91PC6DwVT+pMuLNH9SeBkZGWbdIu2vNJ7086GqfdZ4SPmr8VwXqJyIsfInXV40nv8z4BNhybRJTA+0Zs2a2ghI49UCK/pBdX+l7VMdb8WKFW7/YVO3PCta7DxmljR/Enhr1671mL/SwNLPh4r21Y2HhL8azz1hWZc/6fKi8fybAZ8JS6Zt2rRpLr+MZ8+eXY95abx6N1Bsh+r+StsXbHiKFTePm6N6fD1OgJs3kObPTXPqXS5tn8ZzXBjq92W94qh3eJABnwpL9mvWrFlOi8vp06c3Sok0XqM3UuSA6v5K2xdseIoUM6+ZoXp8vUaEizeS5s9FMxq9TNo+jWdfXOr3ZaPFUR/wEAM+F5bs14wZMxwWlzNnzrRLhTSe3Rv6+ATV/ZW2L9jwfFy8vH571ePrdUKcvKE0f07e3u7p0vZpvMbFpX5f2i2O+gQPMKCEsGS/JkyYYFdcctOHo5s0nqP39dV5qvsrbV+w4fmqXPnqvqrH11e8OHpfaf4cva+j50nbp/Hqi0v9vnS0NOrzpBlQRliyY5MmTWpUXE6ZMsVp36XxnDbAyxeo7q+0fcGG5+Xi5PPbqR5fnxNkxwBp/uzczunD0vZpvG/FpX5fOl0c9QWCDCglLNmvkSNH1hOXEydOdNllaTyXDfHShar7K21fsOF5qRgpcxvV46sMUY0YIs1fI7dxebe0fRqPDP2+dLk46guFGFBOWLJfI0aMqBWXkydPdttVaTy3DfIwgOr+StsXbHgeLj7KwaseX+UIszFImj8beLe/Stun8dwLiTR/7lmjr/ZHBkLYaEx2qtyGpaIoJCSE0PlYxDZpPBGjPAiiur/S9gUbngeLjpLQqsdXSdLqGCXNXx1okY/S9mk898IizZ971uir/Y0BZYWlvxGp7dUMaAY0A5oBzYBmQDMQ7AxoYRnsJUD7rxnQDGgGNAOaAc2AZkCIAS0shYjUMP7JQEFBAWF5OMrKyqKwsDAaMGAADRs2jFJTU02H7B239dp6/saNG81DmZmZNHz4cEpJSXELT9q+xvDy8/Np1apVjfJh66/+rhlwhgHr89FY+bN33PZe9s63d9wWL9i+2+OH6wOuH7Ozs2vrx7r1mS1fquPZ2qu/e4gBf+wYqm3WDEgwsGzZMiMpKal2oBgeMfNzQkKCAXFl2Dtua8Pq1asNvtaKY/2dnJzsEp69+9s7bmufvfOXLl3aJB+2ePq7ZsAZBuyVP3vHbe9l73x7x23xgu27PX6WLFliJCYmNlqf2fKlOp6tvfq75xhQclS459zVyJqBGgYWLVpUr8K0CkFHfy9fvryWzsWLF4viSdsnjVfruP6gGXCAAenyJ43ngAsBdYo0f6rjBVTw/MAZ3RQOFaG34GIgJyeHevXqRUVFRW45HhcXR/v27aOqqqqgwktPT3eLN31xcDGg+vMWbOVZKh7x8fFm/VdZWSlS/3kKLy0tLbgeOAW81cJSgSBoE7zLwNy5c+m5554TuemCBQtMYfnss8+K4XFFLWmfNN6TTz4p4qsGCQ4GpJ83XZ7dKzeS8UCmksrLy8XqK0/gPf744+4Rpq92ngE/yKpqEzUDogyMHj3a7WZrPGkmxrhx44wxY8aI4knbN2rUKDH7xo4dKxoLDRb4DOjyrFaMJeMxfvx4QxpPsr7CfJxqkR8k1uiMpfNaXF/h5wxACNKbb74p4gWElokza9YsMTyLxSJqX3V1Nc2ePVvEPghpev3110WwNEhwMCD5vHH5464nUuWZn9833ngjOAJx2UvJeEBYEmeQpepTxquoqBCLL0/0LrXISlAVEjed1cLSTQL15f7HwDvvvEPPPPOMiOELFy4kFoJPP/20GB6/OCXtk8TDICV67LHHRHzVIMHBgOTzxk2lLGSkng/GC7amUsl4YOS42RQuFQ9P4D366KPB8aAp5KUWlgoFQ5viHQYuXLhA3bt3J56jzZ2NO4UfPHjQhOjatSvl5eW5A0dWPM4wStonjRcTE+OWn/ri4GJA6nnLyMigvXv3klR5tuIFW3lWPR46vgFQPwRJk792UzNwBQOY9Nftfodr1qypxVyxYoUonrR90ni1jusPmgEHGJAof2vXrq29kzReLXCQfJDmT3W8IAmrMm7qeSyVCYU2xNsMTJs2zWUxiD5e9cwNNrx6BOgdmoEmGFD9+WjC9IA8pHo8pO0LyCAq6pQWlooGRpvlHQYw6MZpcTl9+vRGjQs2vEaJ0Ac0Aw0woPrz0YDJAb1L9XhI2xfQwVTIOS0sFQqGNsU3DMyYMcNhcYkRhnaNDDY8u4ToEzQDdRhQ/fmoY2pQfFQ9HtL2BUVQfeykFpY+DoC+vRoMTJgwwa645KYZR7dgw3OUF32eZoAZUP35CLYoqR4PafuCLb7e9lcLS28zru+nLAOTJk1qVFxOmTLFabuDDc9pgvQFQc2A6s9HsAVH9XhI2xds8fWmv1pYepNtfS/lGRg5cmQ9cTlx4kSX7Q42PJeJ0hcGJQOqPx/BFhTV4yFtX7DF11v+amHpLab1ffyGgREjRtSKy8mTJ7ttd7DhuU2YBggqBlR/PoIqGHBW9XhI2xds8fWGv3qC9ACYi1S7IM8ALwUWEhIithxYsOHJR0QjBjIDqj8fgcx9Q76pHg9p+xriQO9znQEtLF3nTl+pGdAMaAY0A5oBzYBmQDNQhwEtLOuQoT9qBjQDmgHNgGZAM6AZ0Ay4zoBPhCU3Maq2DRkyxGmTBg8e3OQ1jWE2tr9JMH3QIwwUFBQQliOjrKwsCgsLowEDBtCwYcMoNTXVvJ+94x4xqg6ovfvbO14HyiF/eP30VatWNcqHLZ70d6s/GzduNKEzMzNp+PDhlJKS4pD9tvaojmdrr2rfPcWf1PNmtU8KT5p/f7eP6wOuH7Ozs2vrx7rPoy1f9vz1NZ6tve5+t/rL9ZXFYqFBgwa5VV+5a48y13ujI6ftPeB87eAI/ZkMCM3aH57Wpu7Pp59+avCP3uQZWLZsmZGUlFSvLCYkJBgQV4a94/IWXYlo7/72jl+JZtj1Z+nSpU3yYYsn/X316tUGc29bJyQnJ7sUD9XxpPmTxpPmz155tXfc1j9759s7bosn/d3e/e0dl7bHFs/e/ZcsWWIkJiY2+jz6G56tve5+l34+3LVHpet9Mirc9sWhvzsntK1C1FaAqlSwVLdl0aJF9SpMZ8vh8uXLPeamtH3SeNKOL168WDQequNJ8yeNJ82fdPmTxpPmL9jsk/ZXGk86vsjiitZX0vb5Gk8LywDMnrLwtIpOne2s/4idOHHCiI2NdbtiiIuLM3Jzc+vfwM090vZJ47npXr3Lpe1THa8eAYrtUJ0/afuk6Q8W++Lj4428vDxDyl9P4UnH99SpU0q/P6T9dQVPC8sAFJaNZd6sgjPYxeacOXPcFpVWjhcsWODKc9fkNdL2SeM1abwLB+fOnSsaD9XxXKDIq5dI8ydd/qTxpMkNJvs4syjpryfwpOM7b9480fpK2j4V8LSwDCJhaRVD1t9WocnZzWDaRo0aJVYxjB07Vpy60aNHi9k3btw4Q3V/x4wZI+qvNJ5kPDxRXqQLoMr8+UN5Vv15kyzP48ePN6TxJPnDfJfSj4ch+Xz4Q33gCoFaWAaxsLQKTOtva/O5KwXJn66RrLi4kpHeJCtqrrgk/eUXu/TGNlrLoLu/GUsSj/0NtheJNH+S5VkLS/efPsl4BKOwlHw+GCsQNy0stbBs8KUeyCJTsilj4cKF4vWCtH2SeDyoQ3qbP39+g2XQFZHJ8ZDE46Y5aTxp/qTxpP2VLH8cD2k8af6CyT4eOS7pryfwpOPL3Z9cqZsauobLcyBuWlhqYWn3IQm0pvLCwkIjLS3Nrt8NVQR19zFGUVGReL0gbZ80nrTDzGF6erpYPKTwMjIyzPhK40nzJ40n7a9U+bPGQxpPmr9gs0/aX2k86fhKPx/S9qmAp4WlFpYOv9BZYAbKwJ+//vWvDvtdV0zW/ezJvzal7ZPGk668/va3v4nGQ3U8af6k8aTLi+p4qvOnon2cXbRuEvH1JJ7VTqnf0vWLlF2q4GhhqYWl0y/0QMlgTps2zWnfrcJy9uzZHn+Gpe2TxpMmQNo+1fGk+ZPGU50/aftU5091+6TjIY2nOn/S9vkSTwtLLSxdFleBIDBnzZrltP/Tp0/32jMrbZ80njQR0vapjifNnzSe6vxJ26c6f6rbJx0PaTzV+ZO2z1d4WlhqYem0sLJm7ay//V1gzpgxw2EOZs6c6fVnVdo+aTxpQqTtUx1Pmj9pPNX5k7ZPdf5Ut086HtJ4qvMnbZ8v8LSw1MLSYVFlFZIN/fZ3cTlhwgS7PHDTjK82afuk8aR5kbZPdTxp/qTxVOdP2j7V+VPdPul4SOOpzp+0fd7G08JSC0u7gqohIdnYPn8e3DNp0qRGuVBBOEvbJ40nXXlJ26c6njR/0niq8ydtn+r8qW6fdDyk8VTnT9o+b+JpYamFZaNiqjHxaG+/CiLM1Ydo5MiR9fiYOHGiq3Di10nbJ40n7bC0farjSfMnjac6f9L2qc6f6vZJx0MaT3X+pO3zFp4WllpY1hNS9oSjI8f9WVyOGDGilpPJkyd761l0+D7S9knjOeyIgydK26c6noO0+Ow01fmTtk+a6GCzT9pfabxgi6+0vw3hhfBOCAWvbiEhIV69n76ZbxiAuKSpU6f65uZu3hVrzBKXUwzWcRPJM5dL2yeNJ+21tH2q40nzJ42nOn/S9qnOn+r2ScdDGk91/qTt8zSeFpaeZjjI8f1ZXAZ56LT7mgHNgGZAM6AZcJoBLSydpkxf4CwDGNBDQ4YMcfYyfb5mQDOgGdAMaAY0A37GQEAISx+05tP69esdCnVT523YsOEKjKbOveJEP/wSLOKyoKCAVq5cSRs3bjSjlJmZScOHD6eUlBTzu/V4VlYWhYWF0YABA2jYsGGUmpraYFTtnW/veIOgCu+0+iPFn8KumqZZ/W2sPOTn59OqVauoseO2/knj2eK7+92effaO297f3vn2jtviBdt3e/xw+eP6LDs7u7a+qlufeZovafuseFy/WCwWGjRokFv1s6f991v8hjpeenofyKodHCHx2dP2+gKfp+3hHx4EU/cHmT9R7iT4dwSD7Q70bfXq1UZCQkK9+CQnJxsQB8ayZcuMpKSkesf5Gj5uu9k7395xWzzVv0vzp7q/9uK3dOlS0fLiLJ40f/b8tXfc1h5759s7bosXbN/t8cNrdycmJtarr6z1maf5krYv2OoXT8enKfyAGBXelIOBfKyu8PQHwckCOVC3xYsX16uAHRHcdc9Zvnx5LT2LFi0SxasFVvSDNH+KullrlnR8pfFqDRX6IG2fNJ6Qm34Dozp/0vYh6xpU9amvC6JuCsebPdA260hsbmpXrXkdYpggggOK8pycHOrVqxcVFRW55VdcXBzt27ePqqqqRPHS09PdssvTF0vzF2z+ql5epOOrur+efl7cxZeKR3x8vFlfpaWluWvSFddL28dN3t27dxern1WvX64g01dffKFs4avbfz3UxfCFD/50T2tTel3OfPnZn7hzxNa5c+eKlecFCxYYc+bMEcVzxAdfniPNny99ceTe0vGVxnPEB2fOkbZPGs8ZXwLhXEn+OLMovUnbN2/evKCqT6Xj4Qqebgp3hTU/vkYFkRlo/S3HjBkjVnGNGzfOGDVqlBje2LFjlS+to0eP1v66+Me2P5QXyfj6g7+qP3CS9QvmkxR3V7K8jB8/3pCsn/2hPhUPiAuAWli6QFqgXMIi01eZS+4fGigbVzZSPDKWZMXPlarqm2TF7w/+Sr44+cUuWV5YuElvkv5qYel+dCTLiz8IS+n62f0IBD6CFpaBH2O7HvpCYAZS1nL+/PliwnLhwoWGZNMN46m+SfOnur+S8eVBT9J40vxJ2sdNr9J40v6qjifJH48cl96k7ePuRVJ/+Hui6V+aPxXwtLBUIQqK2OBtgRkoWUsM2jHQodvtygud4A3GKiwsNPizu5WhFU+R4tWoGdL8NXojRQ5Ix1caT5omKfsyMjJEnw8rnrS/quNJx0PaX2n7pOqXYC0vrsRXC0tXWAvga7wpLgMpa7lixQq3heCaNWtqS5bE9Bh18WqBFf0gzZ+ibtaaJR1fabxaQ4U+SNi3du3aWmuk8WqBg+SD6vxJ2yeNFyTFxGU3tbB0mbrAvtBbAjNQspZcGqZNm+ayuJw9e3a9AiWNV+8Giu3Q/jo+W4Y/lhfp+ErjKfY4eNwc1fmTtk8az+MB8uMbaGHpx8HztOneEJd8j0DaZs2a5bS4nD59eqMUSOM1eiNFDmh/7YtLfy4v0vGVxlPkMfCaGarzJ22fNJ7XAuVnN9LC0s8C5m1zvSEuve2Tp+83Y8YMh8XlzJkz7ZojjWf3hj4+QfvbuLgMhPIiHV9pPB8Xf6/fXnX+pO2TxvN6wPzghlpY+kGQfG2ip8VlIDWHW2M1YcIEu+KSm2Yc3aTxHL2vr87T/tYXl4FUXqTjK43nq3Lvq/uqzp+0fdJ4voqbqvfVwlLVyChmFw+0cXeUcmPXB9IgnrphmzRpUqOcudIFQBqvrq0qftb+fisuA7G8SMdXGk/FZ8KTNqnOn7R90niejI2/YWth6W8R86G9nhSXPnTLo7ceOXJkPXE5ceJEl+8pjeeyIV66UPtLRiCXF+n4SuN5qZgrcxvV+ZO2TxpPmUD62BCfCEtpgeJjDoPm9txk3VjW0d39gdgcbi0YI0aMqOVt8uTJ1t0u/5bGc9kQL12o/XWPaNX5k7ZPGs899v3vatX5k7ZPGs//Ii5vcQhDQhR4dRs6dCitX79e7J4+cEHMdn8Dmjp1Kr322mviZuOPDYK4FMdVBRBLn1FISAhh8IWISdJ4IkZ5EET76x65qvMnbZ80nnvs+9/VqvMnbZ80nv9FXNZiLSxl+QwKNBZIntj0HwieYFVjagY0A5oBzYBmwHsMaGHpPa4D5k6eylpyxpIzl3rTDGgGNAOaAc2AZsA/GdDC0stx4y4A1m4AGzZsqL27dV9dYTV48GDzOO+ru7/2Ih9+kO7OwK5g5CuxaPXmVlBQQFjui7KysigsLIwGDBhAw4YNo9TUVNMMe8e9aauK97LHT35+Pq1atapRfm19suJt3LjRPJSZmUnDhw+nlJQU87v1eGPxssULtu/2+Am0eNjz195x2/Jh73x7xwMNj8sL14/Z2dm19WPd59FZf53Fs8VX7bu1PHB9ZbFYaNCgQbq+4iBxH0tvbxBJtYMZ2AR3f7xtv7P344EpEj7zlCOuTDvirL2OnM8+uRs32+uZI29uy5YtM5KSkur5kZCQYEAMGfaOe9NWFe9lj5+lS5c2ya+tT6tXrzaYe9tykZycrONhS1YD34MtHvb8tXfclkJ759s7Hmh4S5YsMRITExt9Hp3111k8W3zVvuv6qvGIaGHZODduHZESk7YvWet3FQSm1RbJ326R7sTFixYtqldhOuvH8uXLnbhjYJ0qzd/ixYt1PNwoIsEWD2l/NZ7zCZ669Z80f248Cl65FFlcXV81wbQWlk2Q48ohTwtKW/HjS4EpkYW19Yf58/R24sQJIzY21u2KIS4uzsjNzfW0ucrhS/MnjaccYR42SJo/aTxp96Xt03jOi0qut+Pj4428vDxDij8rnnR5kcY7deqUfn/YIVULSzsEOXrY24LSVpD5QmCyz7Z2uPvdG37MmTNHzO4FCxY4WkQC5jxp/ubOnavj4UbpCLZ4SPur8VwTllzXc6ZSkj/GU32bN2+erq/sBEkLSzsEOXLYEwLLVYHmDWFWlxNX7WzsOm/0sxw1apRYxTB27Ni6dATF59GjR4vxN27cOEMST8fDdZHAz6Q/xEOyvEj7G2x448ePNyTrU8wnqXwdOmbMGLH6L1DrKy0s3SzGLOQaE0m+2u9NcemJ5nA3Q2L3csmKkCuZYNskX+z8IpGsqHU83BOW0vHwxItTsvwFmxCU9jcYhSWXaal3uyeeDxXeR1pYuhEFFUWltcB7S1x6IlvrRkgculSyKWPhwoUO3TOQTpLkjwftzJ8/X6yi1vFwT1hKx8MTTZuS5Y/t03iulxke6S3JH+OpvnH3J+t71t3fnng+VOAvIIQlixtvb57I1LlbSG2v90azMvNue193v3s6noWFhUZaWprbdjNGUVGRt4uez+8nzR9zmJ6eruPhYmRVjUdGRoZHng8pf632aTzXhKWn+HPxMfDaZVL1lZU/rxnuxRtpYekC2f4gKq3izhviUpoPb2RbJaaLWLNmjQulJzAukeZvxYoVbgtLHQ/XBIK1rqjLn0Q81q5d67HCLlH+6tqn8ZwvO57kz2MFRwhYurwImaUMjE+EpXQTsqczXHWjJW27tVL35G9PCzVpTrwhhjmm06ZNc1nMzJ49u26xCMrP0vxJ4wVbUKT5k8aTjoe0fRrPcXHZUP0nzZ90eZHGCzZ/neFPC0sn2JIWUJ4Uk7bYnhSX0v0svSUsOfSzZs1yWlxOnz7diVIT2KdK8yeNF9js1/dOmj9pvPoWu7dH2j6NZ19cNlX/SfPnXunw/NXB5q+jjGph6SBT/iwqrSLTk5ld6z2kfjsYFpHTZsyY4bC4nDlzpsg9AwlEmj9pvEDi2hFfpPmTxnPEB2fOkbZP4zUuLh2p/6T5c6Ys+OLcYPPXEY61sHSEJZwjJZh8jeMpcSndz9LBsIidNmHCBLsx5qYPvTXMgDR/0ngNWx24e6X5k8aTZl7aPo1XX1w6U/9J8yddXqTxgs1fe/xpYWmPIRwPhGylVdB6qplZWlh6SgA3Fe5JkyY1Ki492ZWgKZv86Zg0f9J4/sSlhK3S/EnjSfhYF0PaPo33rbh0pf6T5q9urFX8HGz+NhUDLSybYufyMasoC5TfnhBt0uLbEzY6EGpj5MiR9cTlxIkTHblUnwMGpPmTxgu2IEnzJ40nHQ9p+zQeGe7Uf9L8SZcXabxg87cx/rSwbIyZy/ulBZMK4tQTWUsWgpK+ufIXsp1QOnx4xIgRtb5MnjzZ4ev0iTUMSPMnjRdscZLmTxpPOh7S9mk89yIkzZ971nj+6mDztyFGQ3gnBIFXt6lTp9Jrr70mdk+IGoJYEsOrCxQSElL3a8B8luZs/fr1NHToUDF+OJ5so682LG1HHHt0VveVCX59X2n+pPH8mlwXjJfmTxrPBZeavETaPo3XJN12D0rzZ/eGPj4h2Py1pdsnwlJahEiLJCtJ0gLYiqvCb08IN0kR7gn7VOBd26AZ0AxoBjQDmoFAZkALyyaiKymUmriNzw5JJ6sl+dLC0mfFQt9YM6AZ0AxoBjQDLjMQEMIS/fGIs4uSWyBnK608SWd6uSmcs9FSm7TwlbKrKZyCggLCcl+0ceNG87TMzEwaPnw4paSkmN+tx7OysigsLIwGDBhAw4YNo9TU1KZgg+aYlR8p/lTHC5rAXnbUGo/Gyr+9457my9797R3X9tXUf43FNz8/36wfs7Oza+u/uvWjLX/2+HYVj+sXi8VCgwYN0vWzLekS37mPpbc3CJrawRHwwe3PnhjoEYiDdmy5RlZQNPSMZ3sPd76LGucFsNWrVxsJCQn1OEhOTjZWrVplLFu2zEhKSqp3nK/h48G+SfOnOl6wxdte+bd33NN82bu/vePavqbrtyVLlhiJiYn16j9r/WjLnz2+ncWTrg9s7dXfv2XAJ6PC/UFYuiOI/Onab4uC+5+kxTiXE3/ZFi9eXK/CdLYcLF++3F/cFbdTmj/V8cQJVBxw0aJFSj8f2j73CpA0f9J4aEVSuvy5x756V2th2UBMpIWvswLDm+dLirdgFZYnTpwwYmNj3a644uLijNzc3AZKZGDvkuZPdbzAjmZ976TjUf8O7u3R9qnBX3x8vJGXl2dIxcOKd+rUKV0/uxdip6/2ibBkKyXFk3RTuLRAkvRVGkuSO2lBLil6nX4ynLhg7ty5YuV5wYIFTtw5ME6V5k91vMCImuNezJkzR+nnQ9vneCwbOlOSP85USuPNmzdP6fLXEKf+vi8ghKV0X0EtLF0r1tLCUlL0uuaRY1eNHj1arOIaO3asYzcNoLPGjBkjxt+4ceMMaTwdX/cK26hRo8Ti64nnQ9vnXnwln4/x48cb0niS9YEnyp977Kt5tRaWDcRFehCKdJZREk9SlAersJSsuBgr2DaurKXKNGNJ4kkL1WB8MWnh5t4TrTp/0kJQGk+yPgjG59eV0quFZQOsaWHZACkO7pISCIzjLxnL+fPniwmjhQsXOsh04JwmzZ8kHjfNSeMFTuQc80SyKZLjIb1p+9xjVJI/Huktjcfdi6TeS54of+6xr+bVPhOWkuJNMuvGYZK0TapAewpHmjtJO6Vt89QjWFRUZKSnp7tdeaWlpRmMFWybNH9SeBkZGWY8pPGCLb6FhYUGl2136wZrPKT50/a5x6g0f9J4+vl1L76uXK2FZQOsuVsB+tv1DVDg8i5J3/1FWDJZK1ascPvFuWbNGpd59/cLpfmTwFu7dm0trdJ4tcBB8kFiupe68ZCmTdvnHqPS/KmO5x5bgX91QAhLFjOSm6Q48gcsSe4ks73+JCyZw2nTprksLmfPni0ZBr/EkuZPdTy/DJIbRkvHww1TGrxU29cgLQ7vlOZPdTyHiQnCE2UVmRMESgoQaWEpbZvK4lJavEly9//bO5vdqq3vDfsIpkBSxIfEBbSXABUS5R7gEjKJ1BZSqJQoAxiQTCJFYlygfEtUDKLOGAWpcA/ttBJJGFVFYhj/vfP/+dScL/t4v9te9n4stcfH9n73Ws9a9nnx+Yg6tjnas/ah29vbc5vLjY2N2vP1baCan3W9vtWvLB91Pcrmm3c/8c1L7Mvj1fys632ZPc9yAq0ZS/VP+uQJKR6V5siyqXSxqc2bmp2ink1rbG5uVjaXW1tbTYdnfj41P+t65gsiDlBdD3F4KfH5EVXzs67nR6ufo3tjLJU/pq02R5bNJcYyzIl9+/btUnPp3uphmUxAzc+63mQK/d2qroeaFPH5EVXzs67nR6t/ozGWE2qqvptq2Viqf9JHbconlKczm9bW1qaaSzX3zkCZI1A1P+t6c6DpxaHqeqihEJ8fUTU/63p+tPo1ujVjqf4xbeUdS4xl/SZXs6sfiY2Ry8vLY+ZydXXVRnAdiELNz7peB0oiDVFdD2lwmRjx+RFV87Ou50erP6N7YyyVd4DUptfyHUulIXenhdpYquNr49RdWloamsv19fU2Quj0nGp+1vU6XawawavrUSOEmUOIbyae0p1qftb1SoFEcMDA5ZgZn8aX3d3d5OrVq7J5M0OT3LlzR6Y3GAxkWpaF1OV3Nbh7964s5cxYJtnb6zK9toR++umnxPVU9mWdtkLo9Lxqftb1Ol2sGsGr61EjhJlDiG8mntKdan7W9UqB9PyA1oyl46o0b858OBOiWpzpdea3z4vajDtWGMs+dwy5QQACEIAABGYTwFhO4aO+ozplmlY3Yyxbxc/kEIAABCAAgd4RaNVYqu8Kqt/WVd5Rtdg5al4uR7Uh79pb4R8/fkyyP0eWvH///qjk3377bXL9+vXkzJkzR8/z/X/88Udy7Nix5NKlS8m1a9eSs2fPHu0f/V/Z8WX759U7ODhIXr9+najiq6un4jeav+/znLcqvlxvGu95+fnmF/v4snqU7R/lV3Z82f5RPfXzsvld/7nr2bt374bXq+L1TB3PqJ46vlzPnb+Hh4fJ5cuXJddnld5o/p19npmL1hbrP02jji9rkuGXONped1+yCbG4L9soc3N6XVl2dnbShYWFsfxPnz6dZmYtffnyZfrVV1+N7Xdj3P7Rpez4sv3z6r148UIa37x6an6j+fs+V8dXVr95+fnmF/v4snqU7R/lV3Z82f5RPfXzsvmfP3+eLi4ujl2v8uuZOp5RPXV86vNXrTeaf5eft/atcAdNbdzUJkRtkpSGy1crVNOqmYUywOr8nz17NnYBnrdGr169Gob19OnTqPTU/IYgRSvq+NT1FaUZrYy6Hmo9dWFiiy+76yq9nqr11PVtW69VY+lMw7wvvrOOVxtLVxy1+Z0Vf1P7Qpq1GI3l33//nZ44ccK7l0+ePJnu7e2l6NW7s5/zU19UrddDnW9serHVV5XvqVOn0v39fXm7qOP78OGD9Pqs1pMDNCDYqrHsgglRx9iUeZw1T8i+U/MKaYJVHB48eOBtKvN6PX78OP3ll1+i0lPzU9U111HHp65vHieP9Qio66HWq5fV9FHK+NydT/Wiju/hw4fS66laT83Pgl6vjKW7uxhi6dNdy9BGLUZjeePGDdmFa2VlJf3xxx/Rq/l55Js3b8ovAer6/vDDD7L6hshXDtC4oPp8s15fZXzZ70nKq6usx61bt1J3juT/cPd9dNdn5fWgr+dvq8bSdaRvoYvjQxlLtVkqxtz0uvwqMCKoZhXaCI+EX+up8sLltJQXVrWeeyFRxuf0lBdqp6VelPV1L0zKF3anx+JHQNnP6vq63lMvyv7rgrF0NVG9zjot5fUgRH3V/VJHr1fG0jVPqEVtmFSNPo9OEyZNzamJmH175tdff5VduJ48eZIq32pR67kvsSjjc3pqfr71HB2vjM+9dajmNxovz+cjoKyHur4h3mpW5uu+Oa5e1PG5jxfN8zo561hXD7Wemp8FvXBOrGJ26reZnbEJtTiTM6vpLO9ryqDFaCw/ffqUnj9/3rs3zp07lzqtf/75J3Xrvv3UFT01P/X5r4rvwoULQeqrzjc2PdX5pq5vrqeuhzpf6/Gpz1+1npqfBb3eGcvQBqqL5jI0k2Ijx2gsXf6//fabtxH8/fffhygVP2fRJT01vyFI0Yoivjdv3gyjUdd3KMxKLQKKeqjrW9SrldSMQep8Z0xVa5c6Put6tSAZHtS6sVQbtVCfsyzWUH2X1ffO1KzxTfAoslEby6bjL+Yy7/q9e/dqm8v79++PTYde9Z8dmsRvDKjnBuv18Ewv+uGx1Vedr7qB1PFZ11Pza1OvdWOpNiLOZDWxdMFctmHK1PVsIwef/tne3p7bXG5sbEydEr1yczmL31SwNXdYr0fNtBj2PwKx1Vedr7qR1PFZ11Pza0uvGRdWkt2sO2519jlz08SivttaJ9egXFHDAAAQXUlEQVRpY5p8+3uU9bSY6mzvmrF0LDY3Nyuby62trVF8Y8/Rm24uq/AbA+q5wXo9PNOLfnhs9VXnq24gdXzW9dT82tDrpbFs0oxYNJdtmkrXxHUM5LQxTdZSeQLevn27lIN7a6bqgt64uZyHX1XOVY+zXo+qeXDcZAKx1Ved72Sq9beq47OuV5+UjZEmjKUzD9OMRd3tTeK1ZC6buls7i2/dmk0a11Vj6fisra1N7es65h+9/8xlHX6zerbOPuv1qJMTY/4jEFt91fn+R1Kzpo7Pup6GWjsqJoxlCGPWhsEKkcckszVpmzNgbeQ8qW0nxVd3W5eNpWOzvLw8Zi5XV1cnYau0Db0k9eFXCfIcB1mvxxypcOgEArHVV53vBKRem9TxWdfzgtXiYBPG0hmiusZj2rg2DUmTBtOSocz7eFpN6mxvs455Pr6PS0tLw/5eX1/3lUvR80YoFbBeD2myEYrFVl91vuqWUcdnXU/Nrwm9gZske8FvfRkMBvIY2k7tzp07yd27d+V5OcHMcCWZgT16DDKBh6iyli7P7B8eHtHYGJr96bPEccm+bCIJCD0JRpmI9XrIEo1UKLb6qvNVt406Put6an6h9cwYy6tXrya7u7vSfJ0hccak7cUZTLf4mkyXi1UzeZTg//6HsSzSYB0CEIAABCAQDwEzxjLE3T2Ld7ucec4N9Nu3b4edlm8rGuErV64c7XfbituHg4yuYCyNFoawIAABCEAAAoEJmDGWzli5u5bqxd3hy+8YqrXRm0wAYzmZi4WtHz9+TLI/b5a8f/8+OTw8TC5fvpxcv349OXPmzFF4BwcHR/vfvXuXHDt2LLl06dIX+0dzUOuN6vs+nxTftWvXkrNnz9bK1zee0OMn5auurw8/dXyhefrqq/NtU+/48ePJxYsXZdeDNvR868n4igSa+CBn1TmykIdfclCuV52f4zQElLXL7tRqgkIl3dnZSRcWFsbOsdOnT6evX79Onz9/ni4uLk7dP4pQrTeq7/vceny++Y2OV+drXW80f2vPrfOLLT5r/dHneEx8KzwH7EyE0pTkWu5b2izNEci5Kx4xlpq6ZXcpvc+tV69eDYNR6w2FRSvW4xOlOZRR52tdb5i40RXr/GKLz2ib9DYsU8YyxM8O5ebGabM0QyBnrnjEWPrX7MOHD+mJEye8jeWpU6fS/f39VK3nn+GXCnt7e+nJkydl+X6pbu+Zuh5qfur47FXgy4jU+VrVc+9+ZG/Ny64HofS+rA7PmiBgyli6hBVmZJIGBqWJdvr/OSbx99nWXOT9nOnhw4ey8+rp06epWk9N/dGjR9J81fGp9dT1UPNTx6fmp9ZT52tZ79mzZ9LrQQg9dX3RKydgzliGejvcGRvMZXlDKI7wMZGTxipiilnj5s2bMqN169at9MaNGzK97Pfj5KVR5hsiPnXCynxdfVdWVmT17UK/WK+Hur5KPfc3t9V6yuuL6z+W5gmYM5Yh3w53poXPW4Zvsknm0Gdb+Ij7PYPSKKhfSEJc+JX5dsFYKvN19XU5+5yvxbGuvkrjEVs9HD9lfdV6P//8szQ+p6fsF9fPLM0TMGcsHYLihSnEOuYybKOpaxY22v6rP378WHZOvXjxIlXrqSvw5MkTWb7um/LWF3U91PyU8cVWD5evmp9S7+XLl9L4QuhZP3/7GJ9JY+mMn9qcjOphLsO18yhr3+fhIo1D+dOnT+n58+e9z6kLFy6kTkutp66C9fis56vmp9ZT81PrqfO1rPf582fp9SCEnrq+6JUTMGksQ78dnhsdzGV5g9Q5IuereqwTA2O+JKD4eZE3b94MRdV6Q2HRivtdTt/+K+YrCiuYjLoean7q+IKBFAmr80Vv/t+47tL5K2o7MzImjaWjE/JLPKMvOBhMbT+O8vV9ro0uXrV79+7VNlv3798fA6fWG5vAc4P1+DzTGxuuzte63hgAYxus84stPmPt0etwzBrLpu5a5qYHc6nr85yp6lEXGUrb29tzm8uNjY2p4NR6UyequcN6fDXTmjpMna91vakgjOywzi+2+Iy0Re/DMGssHfkm71rmJgiD6d/zOUvVo39EKBQJbG5uVjaXW1tbxaET19V6Eyfx2Gg9Po/UJg5V52tdbyIEQxut84stPkOt0dtQTBvLpu9aFo0QBrN+zxc5KtbrR8LIaQTcz3CU1ca9VVZ1UetVnbfqcdbjq5pH1ePU+VrXq8qlreOs84stvrb6IJZ5TRtLV4Q27loWX3CdwcRkznc6FPkp1uebnaOrElhbW5tqLuv0vFqvah5Vj7MeX9U8qh6nzte6XlUubR1nnV9s8bXVBzHMa95YuiIozIlCA5NZ7ZRQsC5qVJuVo+oQWF5eHju/VldX60gdjVHr1Q5kykDr8U0Ju/Zmdb7W9WqDamigdX6xxddQ2aObphPGss23xIsGp7ju7qRiNCefL0VOivXJs7BVRWBpaWloLtfX171l1XreAY0IWI9vJFzvp+p8ret5AwssYJ1fbPEFLneU8gOXdfbib365c+dOcvfuXdNxZmYzuXLlylGMbt39F+MyGAykaXekRaU5Ny2W/am8xNUt+7KOZGq1niSogoj1+AqhSlbV+VrXk0ALKGKdX2zxBSx1lNKdMZauOlevXk12d3c7V6ii4cyDz01n/phv78MjxrIPVSQHCEAAAhCAwPwEOmUsnal05rKvy6jJzO9+Tsp39NhJx7htVY+bNr7OdoxlHWqMgQAEIAABCHSfQKeMpcPdd3PZ/ZbSZxDyrfCPHz8m2Z9LS96/f58cHh4mly9fTq5du5acPXv2KJGDg4Oj/e/evUuOHTuWXLp0Kbl+/Xpy5swZfaINKE7Kt5jPvPmq9RpAwBQ9ImC9//oU3/Hjx5OLFy/27vrX5+t9a6e6+4xl1xb3pZkMGP9FwiBUf+7s7KQLCwtjfXT69OnU/a3k58+fp4uLi1P3h4orlK46X7VeqLzR7ScB6/1HfLb6blo93GtAH6/3bdLvxLfCJwHCXMZjrCfV33dbdpdyzDDO+4+VV69e+YbR2Hh1vmq9xkAwUS8IWO8/4rPVZtbrYYuWfzSdeyu8eGu3C98UL8bLej0CWZvXGzhl1N7eXvLNN98k//7775Qjqm0+depU8ueffybnzp2rNqClo1y+X3/9dfLp0yevCPJ83UcGlHrW+XlBY7CcgLqf1f0XS3zZnb7kr7/+Mv+xoP39/aPrVSzXe/kJV0fQ35u2q8Cdy/7fuVR32IMHD7zvVmbn2pHG06dP1eHJ9R4+fCjNV60nTxjBXhOw3n8xxffs2TPzvfbo0SPp9c98wgYC7Oxb4UV2Fn9APTcePPob32KtFevff/+97EKT/d6bIqSgGjdv3pTle+vWrfTGjRsyvS7wC1ocxOcmYL3/YorPXQ+sL8rrH9eratXuhbHMU+Xupb+Js2iE8/qqHpUXmi5cWFdWVmRG8Pbt22ls/FR9h46GgLL/QhiFmOJz1wPri/L6F6JfrPOrE1+vjKUDgLnsn7ms09izxjx+/FhmtF68eDFrKhP71Pmq9UxAIojOEFD2n/vlB/USU3wvX75U45PrPXnyRHa9D9Ev8oQNCPbOWOZMMZj9MZh5TVWP2ZdY0vPnz3tfbC5cuJA6LeuLOl+1nnV+xGeLgPX+iym+z58/22qOCdFYr8eEkDu/qbfGMq8MBrP7BjOvpfJR8fMTb968UYYUVEudr1ovaPKI946A9f4jPlst536n0vdjXl263rdNv/fG0gF2X+7BYHbXYIY6Se7du1f7YnP//v1QYQXTVeer1guWOMK9JGC9/4jPVttZr4ctWn7RRGEsi4gwmN0zmMX6qde3t7fnNpcbGxvqMBrTU+er1msMBBP1goD1/iM+W21mvR62aNWPJjpjmaNyBhOT2Q2Tmdcs1OPm5mZlc7m1tRUqjMZ01fmq9RoDwUS9IGC9/4jPVptZr4ctWvWiidZYFnFhMm0bzGKtQq27n80o+wyOeyulL4s6X7VeXziTRzMErPcf8TXTB1VnsV6PqnlYPQ5jOVKZ3GR+9913pUajzIiwX2NYR0oU7Ona2trUmru+6Nuizlet1zfe5BOWgPX+I76w9Z9X3Xo95s3H0vEYy5Jq5F/8wWhqTGIds11SIunu5eXlMXO5uroqncOSmDpftZ4lVsRin4D1/iM+Wz1kvR62aFWPBmNZndXwyNxsurtYGM7whnMIvqGVpaWloblcX19vaNb2plHnq9Zrjwwzd5GA9f4jPltdZb0etmhVi2bgDsvuIrEICOzu7ibuv3x5+/bt0WpxW76Px+oE2mjR7E93JYPBIMm+rFM90A4fqc5XrddhtITeAgHr/Ud8LTTFjCmt12NG6CZ3YSwbLktuMvPHfPrchLrno/vyY2J9bMNYxsqavCEAAQhAAAI+BDCWPvQaGjvNaE7bnodVNKv5tiqPZbpVNJTHYCyVNNGCAAQgAAEIhCOAsQzHFmUIQAACEIAABCAQFQGMZVTlJlkIQAACEIAABCAQjgDGMhxblCEAAQhAAAIQgEBUBDCWUZWbZCEAAQhAAAIQgEA4AhjLcGxRhgAEIAABCEAAAlERwFhGVW6ShQAEIAABCEAAAuEIYCzDsUUZAhCAAAQgAAEIREUAYxlVuUkWAhCAAAQgAAEIhCOAsQzHFmUIQAACEIAABCAQFQGMZVTlJlkIQAACEIAABCAQjgDGMhxblCEAAQhAAAIQgEBUBDCWUZWbZCEAAQhAAAIQgEA4AhjLcGxRhgAEIAABCEAAAlERwFhGVW6ShQAEIAABCEAAAuEIDA4PD9My+cFgUHYI+yEAAQhAAAIQgAAEWiSQpqWWLnh0GMvgiJkAAhCAAAQgAAEIhCeAsQzPmBkgAAEIQAACEIBAFAQwllGUmSQhAAEIQAACEIBAeAIYy/CMmQECEIAABCAAAQhEQQBjGUWZSRICEIAABCAAAQiEJ9AZYxkeBTNAAAIQgAAEIAABCHSdQKVvhXc9SeKHAAQgAAEIQAACEAhPAGMZnjEzQAACEIAABCAAgSgIYCyjKDNJQgACEIAABCAAgfAEMJbhGTMDBCAAAQhAAAIQiIIAxjKKMpMkBCAAAQhAAAIQCE8AYxmeMTNAAAIQgAAEIACBKAhgLKMoM0lCAAIQgAAEIACB8AQwluEZMwMEIAABCEAAAhCIggDGMooykyQEIAABCEAAAhAITwBjGZ4xM0AAAhCAAAQgAIEoCGAsoygzSUIAAhCAAAQgAIHwBDCW4RkzAwQgAAEIQAACEIiCAMYyijKTJAQgAAEIQAACEAhPAGMZnjEzQAACEIAABCAAgSgIYCyjKDNJQgACEIAABCAAgfAEMJbhGTMDBCAAAQhAAAIQiIIAxjKKMpMkBCAAAQhAAAIQCE8AYxmeMTNAAAIQgAAEIACBKAhgLKMoM0lCAAIQgAAEIACB8AQwluEZMwMEIAABCEAAAhCIggDGMooykyQEIAABCEAAAhAITwBjGZ4xM0AAAhCAAAQgAIEoCGAsoygzSUIAAhCAAAQgAIHwBDCW4RkzAwQgAAEIQAACEIiCAMYyijKTJAQgAAEIQAACEAhPAGMZnjEzQAACEIAABCAAgSgI/B8M3V0ZUaaUEAAAAABJRU5ErkJggg==;" vertex="1" parent="1">
          <mxGeometry x="83" y="370" width="662" height="668" as="geometry" />
        </mxCell>
        <mxCell id="C2CYXAZEnYBO-IzJzkXt-2" value="&lt;b&gt;&lt;br&gt;&lt;/b&gt;&lt;div&gt;&lt;font face=&quot;Architects Daughter&quot; style=&quot;background-color: light-dark(#ffffff, var(--ge-dark-color, #121212));&quot;&gt;&lt;span style=&quot;color: oklch(0.278078 0.029596 256.848);&quot;&gt;&lt;font&gt;&lt;b&gt;Vrienden van Helde op Zökke&lt;/b&gt;&lt;/font&gt;&lt;/span&gt;&lt;/font&gt;&lt;/div&gt;" style="text;html=1;align=center;verticalAlign=middle;whiteSpace=wrap;rounded=0;fontFamily=Architects Daughter;fontSource=https%3A%2F%2Ffonts.googleapis.com%2Fcss%3Ffamily%3DArchitects%2BDaughter;fontSize=96;" vertex="1" parent="1">
          <mxGeometry x="10" y="10" width="759" height="320" as="geometry" />
        </mxCell>
      </root>
    </mxGraphModel>
  </diagram>
  <diagram name="Kopie van Pagina-1" id="GWLsVD_-p86qD0Wuj28z">
    <mxGraphModel dx="1210" dy="768" grid="1" gridSize="10" guides="1" tooltips="1" connect="1" arrows="1" fold="1" page="1" pageScale="1" pageWidth="827" pageHeight="1169" math="0" shadow="0">
      <root>
        <mxCell id="EiuIYhhaLN8YT0klHCEb-0" />
        <mxCell id="EiuIYhhaLN8YT0klHCEb-1" parent="EiuIYhhaLN8YT0klHCEb-0" />
        <mxCell id="bmT1slZsArjGku9tbNGf-0" value="" style="shape=image;verticalLabelPosition=bottom;labelBackgroundColor=default;verticalAlign=top;aspect=fixed;imageAspect=0;image=data:image/png,iVBORw0KGgoAAAANSUhEUgAAAfQAAAH0AQMAAADxGE3JAAAABlBMVEX///8AAABVwtN+AAAACXBIWXMAAA7EAAAOxAGVKw4bAAABwUlEQVR4nO3ay43DMAxFUbmClKBS3apLSAVRxgqlRyn2YIAsMjTuWyj+HS4J0XFKH2YtU+791q2UlHJ57MdLKdu+TNnweDz+i17gJ9VrMZ9fz9YiyoLH4/HhvVqnqVs/3Xrr1FJcOTwej7+SrydWxJ5Vw8Tj8fgLe8vR/IzH4/HX8opvolb4MRZR8Hg8PrifMnl1TbVOBY/H4+P6X1L3j29d8+/B4/H4f+3XuXUexVpn20lmt6fE4/H4qN7aZPuvJM3XrHW2JtoVHo/Hx/cNaGruW8c2P1vrLL5IdtXxeDw+oF/3H3lfrryemLzG6QWPx+Nje6nk/jVu/VO0OL/0Uzwej/+eH/JWxMbcYf49e3+Ix+PxsXwbeDX/+kk4u+LqpH7+xePx+MDe7r9X6pl2jbqGx+Pxwb0WVarJL9Bo6adWBI/H46P6o6jSWKSmVnqcYzwejw/i1zJl2Drata3vH7XYDTwej4/rtVdMI62VvDrun3g8Hh/YT63TT9JH2VwRPB6Pv5Yv9k10/0wmnb1JxOPx+Gv5u5m+axyiSng8Hh/cK5PfMzRMi76pxuPx+Lh+SmunpvN+vJ1VwuPx+Lj+wzwB2w4wuIQt40YAAAAASUVORK5CYII=;" vertex="1" parent="EiuIYhhaLN8YT0klHCEb-1">
          <mxGeometry x="110" y="390" width="590" height="590" as="geometry" />
        </mxCell>
        <mxCell id="biMbeAFXw4N0zEyeF8AR-0" value="&lt;b&gt;&lt;br&gt;&lt;/b&gt;&lt;div&gt;&lt;font face=&quot;Architects Daughter&quot; style=&quot;background-color: light-dark(#ffffff, var(--ge-dark-color, #121212));&quot;&gt;&lt;span style=&quot;color: oklch(0.278078 0.029596 256.848);&quot;&gt;&lt;font&gt;&lt;b&gt;Vrienden van Helde op Zökke&lt;/b&gt;&lt;/font&gt;&lt;/span&gt;&lt;/font&gt;&lt;/div&gt;" style="text;html=1;align=center;verticalAlign=middle;whiteSpace=wrap;rounded=0;fontFamily=Architects Daughter;fontSource=https%3A%2F%2Ffonts.googleapis.com%2Fcss%3Ffamily%3DArchitects%2BDaughter;fontSize=96;" vertex="1" parent="EiuIYhhaLN8YT0klHCEb-1">
          <mxGeometry x="40" y="40" width="759" height="320" as="geometry" />
        </mxCell>
      </root>
    </mxGraphModel>
  </diagram>
</mxfile>
